<svg version="1.1" xmlns="http://www.w3.org/2000/svg" xmlns:xlink="http://www.w3.org/1999/xlink" stroke-linecap="round" stroke-linejoin="round" stroke-width="0" fill-rule="evenodd" width="63.593300000000006mm" height="39.367mm" viewBox="42554.8 -12122.6 63593.3 39367" id="QxeDrWgzlgG9P2znjo3x"><defs><rect x="-775" y="-205" width="1550" height="410" id="QxeDrWgzlgG9P2znjo3x_pad-10"/><rect x="-775" y="-130" width="1550" height="260" id="QxeDrWgzlgG9P2znjo3x_pad-11"/><rect x="-750" y="-400" width="1500" height="800" id="QxeDrWgzlgG9P2znjo3x_pad-12"/><rect x="-1025" y="-180" width="2050" height="360" id="QxeDrWgzlgG9P2znjo3x_pad-13"/><rect x="-750" y="-350" width="1500" height="700" id="QxeDrWgzlgG9P2znjo3x_pad-14"/><rect x="-525" y="-700" width="1050" height="1400" id="QxeDrWgzlgG9P2znjo3x_pad-15"/><rect x="-700" y="-525" width="1400" height="1050" id="QxeDrWgzlgG9P2znjo3x_pad-16"/></defs><g transform="translate(0,15121.8) scale(1,-1)" fill="currentColor" stroke="currentColor"><use xlink:href="#QxeDrWgzlgG9P2znjo3x_pad-10" x="105373.1" y="10608.1"/><use xlink:href="#QxeDrWgzlgG9P2znjo3x_pad-11" x="105373.1" y="11183.1"/><use xlink:href="#QxeDrWgzlgG9P2znjo3x_pad-11" x="105373.1" y="11683.1"/><use xlink:href="#QxeDrWgzlgG9P2znjo3x_pad-11" x="105373.1" y="12183.1"/><use xlink:href="#QxeDrWgzlgG9P2znjo3x_pad-11" x="105373.1" y="12683.1"/><use xlink:href="#QxeDrWgzlgG9P2znjo3x_pad-11" x="105373.1" y="13183.1"/><use xlink:href="#QxeDrWgzlgG9P2znjo3x_pad-11" x="105373.1" y="13683.1"/><use xlink:href="#QxeDrWgzlgG9P2znjo3x_pad-11" x="105373.1" y="14183.1"/><use xlink:href="#QxeDrWgzlgG9P2znjo3x_pad-11" x="105373.1" y="14683.1"/><use xlink:href="#QxeDrWgzlgG9P2znjo3x_pad-11" x="105373.1" y="15183.1"/><use xlink:href="#QxeDrWgzlgG9P2znjo3x_pad-11" x="105373.1" y="15683.1"/><use xlink:href="#QxeDrWgzlgG9P2znjo3x_pad-10" x="105373.1" y="16258.1"/><use xlink:href="#QxeDrWgzlgG9P2znjo3x_pad-12" x="103053.1" y="9808.1"/><use xlink:href="#QxeDrWgzlgG9P2znjo3x_pad-13" x="105123.1" y="10028.1"/><use xlink:href="#QxeDrWgzlgG9P2znjo3x_pad-14" x="103053.1" y="16703.1"/><use xlink:href="#QxeDrWgzlgG9P2znjo3x_pad-13" x="105123.1" y="16838.1"/><use xlink:href="#QxeDrWgzlgG9P2znjo3x_pad-15" x="92716.8" y="21026.4"/><use xlink:href="#QxeDrWgzlgG9P2znjo3x_pad-15" x="94166.8" y="17426.4"/><use xlink:href="#QxeDrWgzlgG9P2znjo3x_pad-15" x="94166.8" y="21026.4"/><use xlink:href="#QxeDrWgzlgG9P2znjo3x_pad-15" x="92716.8" y="17426.4"/><use xlink:href="#QxeDrWgzlgG9P2znjo3x_pad-16" x="81376.8" y="25269.4"/><use xlink:href="#QxeDrWgzlgG9P2znjo3x_pad-16" x="84976.8" y="26719.4"/><use xlink:href="#QxeDrWgzlgG9P2znjo3x_pad-16" x="81376.8" y="26719.4"/><use xlink:href="#QxeDrWgzlgG9P2znjo3x_pad-16" x="84976.8" y="25269.4"/><use xlink:href="#QxeDrWgzlgG9P2znjo3x_pad-16" x="46854.8" y="-10147.6"/><use xlink:href="#QxeDrWgzlgG9P2znjo3x_pad-16" x="43254.8" y="-11597.6"/><use xlink:href="#QxeDrWgzlgG9P2znjo3x_pad-16" x="46854.8" y="-11597.6"/><use xlink:href="#QxeDrWgzlgG9P2znjo3x_pad-16" x="43254.8" y="-10147.6"/><use xlink:href="#QxeDrWgzlgG9P2znjo3x_pad-16" x="82795.8" y="-10147.6"/><use xlink:href="#QxeDrWgzlgG9P2znjo3x_pad-16" x="79195.8" y="-11597.6"/><use xlink:href="#QxeDrWgzlgG9P2znjo3x_pad-16" x="82795.8" y="-11597.6"/><use xlink:href="#QxeDrWgzlgG9P2znjo3x_pad-16" x="79195.8" y="-10147.6"/><use xlink:href="#QxeDrWgzlgG9P2znjo3x_pad-16" x="56379.8" y="-10147.6"/><use xlink:href="#QxeDrWgzlgG9P2znjo3x_pad-16" x="52779.8" y="-11597.6"/><use xlink:href="#QxeDrWgzlgG9P2znjo3x_pad-16" x="56379.8" y="-11597.6"/><use xlink:href="#QxeDrWgzlgG9P2znjo3x_pad-16" x="52779.8" y="-10147.6"/></g></svg>