<svg version="1.1" xmlns="http://www.w3.org/2000/svg" xmlns:xlink="http://www.w3.org/1999/xlink" stroke-linecap="round" stroke-linejoin="round" stroke-width="0" fill-rule="evenodd" width="230.47889999999998mm" height="49.76mm" viewBox="-122319.2 -18896.6 230478.9 49760" id="deDEumv-ki2kPyLSNw1y"><defs><rect x="-900" y="-900" width="1800" height="1800" id="deDEumv-ki2kPyLSNw1y_pad-10"/><circle cx="0" cy="0" r="900" id="deDEumv-ki2kPyLSNw1y_pad-11"/><circle cx="0" cy="0" r="800" id="deDEumv-ki2kPyLSNw1y_pad-12"/><g id="deDEumv-ki2kPyLSNw1y_pad-13"><polygon points="400,400 -400,400 -400,-400 400,-400"/><circle cx="400" cy="400" r="400"/><circle cx="-400" cy="400" r="400"/><circle cx="-400" cy="-400" r="400"/><circle cx="400" cy="-400" r="400"/><polygon points="400,0 -400,0 -400,800 400,800"/><polygon points="0,400 0,-400 -800,-400 -800,400"/><polygon points="-400,-800 400,-800 400,0 -400,0"/><polygon points="800,-400 800,400 0,400 0,-400"/></g><rect x="-762" y="-750" width="1524" height="1500" id="deDEumv-ki2kPyLSNw1y_pad-14"/><circle cx="0" cy="0" r="750" id="deDEumv-ki2kPyLSNw1y_pad-15"/><rect x="-762" y="-1000" width="1524" height="2000" rx="762" ry="762" id="deDEumv-ki2kPyLSNw1y_pad-16"/><circle cx="0" cy="0" r="300" id="deDEumv-ki2kPyLSNw1y_pad-17"/></defs><g transform="translate(0,11966.800000000003) scale(1,-1)" fill="currentColor" stroke="currentColor"><use xlink:href="#deDEumv-ki2kPyLSNw1y_pad-10" x="101553.1" y="22203.1"/><use xlink:href="#deDEumv-ki2kPyLSNw1y_pad-11" x="101553.1" y="24743.1"/><use xlink:href="#deDEumv-ki2kPyLSNw1y_pad-12" x="107359.7" y="7050.9"/><use xlink:href="#deDEumv-ki2kPyLSNw1y_pad-12" x="107359.7" y="1970.9"/><use xlink:href="#deDEumv-ki2kPyLSNw1y_pad-13" x="99739.7" y="7050.9"/><use xlink:href="#deDEumv-ki2kPyLSNw1y_pad-12" x="99739.7" y="4510.9"/><use xlink:href="#deDEumv-ki2kPyLSNw1y_pad-12" x="99739.7" y="1970.9"/><use xlink:href="#deDEumv-ki2kPyLSNw1y_pad-12" x="102279.7" y="7050.9"/><use xlink:href="#deDEumv-ki2kPyLSNw1y_pad-12" x="102279.7" y="4510.9"/><use xlink:href="#deDEumv-ki2kPyLSNw1y_pad-12" x="102279.7" y="1970.9"/><use xlink:href="#deDEumv-ki2kPyLSNw1y_pad-14" x="-121557.2" y="-18146.6"/><use xlink:href="#deDEumv-ki2kPyLSNw1y_pad-15" x="-121557.2" y="-15606.6"/><use xlink:href="#deDEumv-ki2kPyLSNw1y_pad-15" x="-121557.2" y="-13066.6"/><use xlink:href="#deDEumv-ki2kPyLSNw1y_pad-15" x="-121557.2" y="-10526.6"/><use xlink:href="#deDEumv-ki2kPyLSNw1y_pad-15" x="-121557.2" y="-7986.6"/><use xlink:href="#deDEumv-ki2kPyLSNw1y_pad-15" x="-121557.2" y="-5446.6"/><use xlink:href="#deDEumv-ki2kPyLSNw1y_pad-15" x="-121557.2" y="-2906.6"/><use xlink:href="#deDEumv-ki2kPyLSNw1y_pad-15" x="-121557.2" y="-366.6"/><use xlink:href="#deDEumv-ki2kPyLSNw1y_pad-15" x="-121557.2" y="2173.4"/><use xlink:href="#deDEumv-ki2kPyLSNw1y_pad-15" x="-121557.2" y="4713.4"/><use xlink:href="#deDEumv-ki2kPyLSNw1y_pad-15" x="-121557.2" y="7253.4"/><use xlink:href="#deDEumv-ki2kPyLSNw1y_pad-15" x="-121557.2" y="9793.4"/><use xlink:href="#deDEumv-ki2kPyLSNw1y_pad-15" x="-121557.2" y="12333.4"/><use xlink:href="#deDEumv-ki2kPyLSNw1y_pad-15" x="-121557.2" y="14873.4"/><use xlink:href="#deDEumv-ki2kPyLSNw1y_pad-15" x="-121557.2" y="17413.4"/><use xlink:href="#deDEumv-ki2kPyLSNw1y_pad-15" x="-121557.2" y="19953.4"/><use xlink:href="#deDEumv-ki2kPyLSNw1y_pad-15" x="-121557.2" y="22493.4"/><use xlink:href="#deDEumv-ki2kPyLSNw1y_pad-15" x="-121557.2" y="25033.4"/><use xlink:href="#deDEumv-ki2kPyLSNw1y_pad-15" x="-121557.2" y="27573.4"/><use xlink:href="#deDEumv-ki2kPyLSNw1y_pad-15" x="-121557.2" y="30113.4"/><use xlink:href="#deDEumv-ki2kPyLSNw1y_pad-15" x="-25037.2" y="30113.4"/><use xlink:href="#deDEumv-ki2kPyLSNw1y_pad-15" x="-25037.2" y="27573.4"/><use xlink:href="#deDEumv-ki2kPyLSNw1y_pad-15" x="-25037.2" y="25033.4"/><use xlink:href="#deDEumv-ki2kPyLSNw1y_pad-15" x="-25037.2" y="22493.4"/><use xlink:href="#deDEumv-ki2kPyLSNw1y_pad-15" x="-25037.2" y="19953.4"/><use xlink:href="#deDEumv-ki2kPyLSNw1y_pad-15" x="-25037.2" y="17413.4"/><use xlink:href="#deDEumv-ki2kPyLSNw1y_pad-15" x="-25037.2" y="14873.4"/><use xlink:href="#deDEumv-ki2kPyLSNw1y_pad-15" x="-25037.2" y="12333.4"/><use xlink:href="#deDEumv-ki2kPyLSNw1y_pad-15" x="-25037.2" y="9793.4"/><use xlink:href="#deDEumv-ki2kPyLSNw1y_pad-15" x="-25037.2" y="7253.4"/><use xlink:href="#deDEumv-ki2kPyLSNw1y_pad-15" x="-25037.2" y="4713.4"/><use xlink:href="#deDEumv-ki2kPyLSNw1y_pad-15" x="-25037.2" y="2173.4"/><use xlink:href="#deDEumv-ki2kPyLSNw1y_pad-15" x="-25037.2" y="-366.6"/><use xlink:href="#deDEumv-ki2kPyLSNw1y_pad-15" x="-25037.2" y="-2906.6"/><use xlink:href="#deDEumv-ki2kPyLSNw1y_pad-15" x="-25037.2" y="-5446.6"/><use xlink:href="#deDEumv-ki2kPyLSNw1y_pad-15" x="-25037.2" y="-7986.6"/><use xlink:href="#deDEumv-ki2kPyLSNw1y_pad-15" x="-25037.2" y="-10526.6"/><use xlink:href="#deDEumv-ki2kPyLSNw1y_pad-15" x="-25037.2" y="-13066.6"/><use xlink:href="#deDEumv-ki2kPyLSNw1y_pad-15" x="-25037.2" y="-15606.6"/><use xlink:href="#deDEumv-ki2kPyLSNw1y_pad-15" x="-25037.2" y="-18146.6"/><use xlink:href="#deDEumv-ki2kPyLSNw1y_pad-16" x="90876.4" y="25614.5"/><use xlink:href="#deDEumv-ki2kPyLSNw1y_pad-16" x="88336.4" y="25614.5"/><use xlink:href="#deDEumv-ki2kPyLSNw1y_pad-16" x="78176.4" y="25614.5"/><use xlink:href="#deDEumv-ki2kPyLSNw1y_pad-16" x="75636.4" y="25614.5"/><use xlink:href="#deDEumv-ki2kPyLSNw1y_pad-16" x="73096.4" y="25614.5"/><use xlink:href="#deDEumv-ki2kPyLSNw1y_pad-16" x="60396.4" y="-9945.5"/><use xlink:href="#deDEumv-ki2kPyLSNw1y_pad-16" x="62936.4" y="-9945.5"/><use xlink:href="#deDEumv-ki2kPyLSNw1y_pad-16" x="65476.4" y="-9945.5"/><use xlink:href="#deDEumv-ki2kPyLSNw1y_pad-16" x="85796.4" y="-9945.5"/><use xlink:href="#deDEumv-ki2kPyLSNw1y_pad-16" x="88336.4" y="-9945.5"/><use xlink:href="#deDEumv-ki2kPyLSNw1y_pad-16" x="90876.4" y="-9945.5"/><use xlink:href="#deDEumv-ki2kPyLSNw1y_pad-16" x="40076.4" y="-9945.5"/><use xlink:href="#deDEumv-ki2kPyLSNw1y_pad-16" x="37536.4" y="-9945.5"/><use xlink:href="#deDEumv-ki2kPyLSNw1y_pad-16" x="37536.4" y="25614.5"/><use xlink:href="#deDEumv-ki2kPyLSNw1y_pad-16" x="40076.4" y="25614.5"/><use xlink:href="#deDEumv-ki2kPyLSNw1y_pad-16" x="42616.4" y="25614.5"/><use xlink:href="#deDEumv-ki2kPyLSNw1y_pad-16" x="45156.4" y="25614.5"/><use xlink:href="#deDEumv-ki2kPyLSNw1y_pad-16" x="52776.4" y="25614.5"/><use xlink:href="#deDEumv-ki2kPyLSNw1y_pad-17" x="48356.8" y="-11130.602"/><use xlink:href="#deDEumv-ki2kPyLSNw1y_pad-17" x="56379.8" y="-11597.6"/><use xlink:href="#deDEumv-ki2kPyLSNw1y_pad-17" x="84976.8" y="25269.4"/><use xlink:href="#deDEumv-ki2kPyLSNw1y_pad-17" x="52779.8" y="-10147.6"/><use xlink:href="#deDEumv-ki2kPyLSNw1y_pad-17" x="82795.8" y="-11597.6"/><use xlink:href="#deDEumv-ki2kPyLSNw1y_pad-17" x="81376.8" y="26719.4"/><use xlink:href="#deDEumv-ki2kPyLSNw1y_pad-17" x="58008.8" y="-11634.6"/><use xlink:href="#deDEumv-ki2kPyLSNw1y_pad-17" x="92716.8" y="17426.4"/><use xlink:href="#deDEumv-ki2kPyLSNw1y_pad-17" x="84996.3" y="23163.4"/><use xlink:href="#deDEumv-ki2kPyLSNw1y_pad-17" x="94166.8" y="21026.4"/><use xlink:href="#deDEumv-ki2kPyLSNw1y_pad-17" x="46854.8" y="-11597.6"/><use xlink:href="#deDEumv-ki2kPyLSNw1y_pad-17" x="43254.8" y="-10147.6"/><use xlink:href="#deDEumv-ki2kPyLSNw1y_pad-17" x="79195.8" y="-10147.6"/><use xlink:href="#deDEumv-ki2kPyLSNw1y_pad-17" x="41752.8" y="-7316.6"/><use xlink:href="#deDEumv-ki2kPyLSNw1y_pad-17" x="60421.8" y="-7316.6"/><use xlink:href="#deDEumv-ki2kPyLSNw1y_pad-17" x="50769.8" y="-7316.6"/><use xlink:href="#deDEumv-ki2kPyLSNw1y_pad-17" x="37942.8" y="-5284.6"/><use xlink:href="#deDEumv-ki2kPyLSNw1y_pad-17" x="52928.8" y="-4014.6"/><use xlink:href="#deDEumv-ki2kPyLSNw1y_pad-17" x="41752.8" y="-11126.6"/><use xlink:href="#deDEumv-ki2kPyLSNw1y_pad-17" x="52166.8" y="-1855.6"/><use xlink:href="#deDEumv-ki2kPyLSNw1y_pad-17" x="43784.8" y="6272.4"/><use xlink:href="#deDEumv-ki2kPyLSNw1y_pad-17" x="81817.47" y="18987.869"/><use xlink:href="#deDEumv-ki2kPyLSNw1y_pad-17" x="78176.4" y="23140.115"/><use xlink:href="#deDEumv-ki2kPyLSNw1y_pad-17" x="37992.8" y="-1986.6"/><use xlink:href="#deDEumv-ki2kPyLSNw1y_pad-17" x="49935.8" y="6272.4"/><use xlink:href="#deDEumv-ki2kPyLSNw1y_pad-17" x="43657.8" y="9574.4"/><use xlink:href="#deDEumv-ki2kPyLSNw1y_pad-17" x="62834.8" y="6272.4"/><use xlink:href="#deDEumv-ki2kPyLSNw1y_pad-17" x="75534.8" y="-585.6"/><use xlink:href="#deDEumv-ki2kPyLSNw1y_pad-17" x="81122.8" y="-1093.6"/><use xlink:href="#deDEumv-ki2kPyLSNw1y_pad-17" x="49935.8" y="9574.4"/><use xlink:href="#deDEumv-ki2kPyLSNw1y_pad-17" x="37942.8" y="16940.4"/><use xlink:href="#deDEumv-ki2kPyLSNw1y_pad-17" x="62762.8" y="16178.4"/><use xlink:href="#deDEumv-ki2kPyLSNw1y_pad-17" x="52928.8" y="16940.4"/><use xlink:href="#deDEumv-ki2kPyLSNw1y_pad-17" x="90901.8" y="20750.857"/><use xlink:href="#deDEumv-ki2kPyLSNw1y_pad-17" x="69057.8" y="19734.4"/><use xlink:href="#deDEumv-ki2kPyLSNw1y_pad-17" x="62762.8" y="19861.4"/><use xlink:href="#deDEumv-ki2kPyLSNw1y_pad-17" x="81376.8" y="23163.4"/><use xlink:href="#deDEumv-ki2kPyLSNw1y_pad-17" x="66462.8" y="-712.6"/><use xlink:href="#deDEumv-ki2kPyLSNw1y_pad-17" x="65476.4" y="-7316.6"/><use xlink:href="#deDEumv-ki2kPyLSNw1y_pad-17" x="59024.8" y="1319.4"/><use xlink:href="#deDEumv-ki2kPyLSNw1y_pad-17" x="66517.8" y="19480.4"/><use xlink:href="#deDEumv-ki2kPyLSNw1y_pad-17" x="53563.8" y="6399.4"/><use xlink:href="#deDEumv-ki2kPyLSNw1y_pad-17" x="66517.8" y="-3633.6"/><use xlink:href="#deDEumv-ki2kPyLSNw1y_pad-17" x="59024.8" y="19099.4"/><use xlink:href="#deDEumv-ki2kPyLSNw1y_pad-17" x="77185.8" y="16686.4"/><use xlink:href="#deDEumv-ki2kPyLSNw1y_pad-17" x="81757.8" y="-2490.6"/><use xlink:href="#deDEumv-ki2kPyLSNw1y_pad-17" x="59024.8" y="-2998.6"/><use xlink:href="#deDEumv-ki2kPyLSNw1y_pad-17" x="43712.8" y="-2617.6"/><use xlink:href="#deDEumv-ki2kPyLSNw1y_pad-17" x="60421.8" y="-1601.6"/><use xlink:href="#deDEumv-ki2kPyLSNw1y_pad-17" x="81884.8" y="9447.4"/><use xlink:href="#deDEumv-ki2kPyLSNw1y_pad-17" x="46854.8" y="-7316.6"/><use xlink:href="#deDEumv-ki2kPyLSNw1y_pad-17" x="77058.8" y="19988.4"/><use xlink:href="#deDEumv-ki2kPyLSNw1y_pad-17" x="75636.4" y="23193.947"/><use xlink:href="#deDEumv-ki2kPyLSNw1y_pad-17" x="75462.8" y="9574.4"/><use xlink:href="#deDEumv-ki2kPyLSNw1y_pad-17" x="43784.8" y="15162.4"/><use xlink:href="#deDEumv-ki2kPyLSNw1y_pad-17" x="69057.8" y="9447.4"/><use xlink:href="#deDEumv-ki2kPyLSNw1y_pad-17" x="89827.693" y="16614.775"/><use xlink:href="#deDEumv-ki2kPyLSNw1y_pad-17" x="75407.8" y="16686.4"/><use xlink:href="#deDEumv-ki2kPyLSNw1y_pad-17" x="84551.8" y="16686.4"/><use xlink:href="#deDEumv-ki2kPyLSNw1y_pad-17" x="88298.3" y="23163.4"/><use xlink:href="#deDEumv-ki2kPyLSNw1y_pad-17" x="41189.8" y="9574.4"/><use xlink:href="#deDEumv-ki2kPyLSNw1y_pad-17" x="59024.8" y="14527.4"/><use xlink:href="#deDEumv-ki2kPyLSNw1y_pad-17" x="90901.8" y="-5538.6"/><use xlink:href="#deDEumv-ki2kPyLSNw1y_pad-17" x="90380.693" y="17486.119"/><use xlink:href="#deDEumv-ki2kPyLSNw1y_pad-17" x="94140.3" y="14908.4"/><use xlink:href="#deDEumv-ki2kPyLSNw1y_pad-17" x="91155.8" y="-1347.6"/><use xlink:href="#deDEumv-ki2kPyLSNw1y_pad-17" x="85567.8" y="6272.4"/><use xlink:href="#deDEumv-ki2kPyLSNw1y_pad-17" x="85525.976" y="17477.184"/><use xlink:href="#deDEumv-ki2kPyLSNw1y_pad-17" x="90520.8" y="-2871.6"/><use xlink:href="#deDEumv-ki2kPyLSNw1y_pad-17" x="85294.785" y="-11742.585"/><use xlink:href="#deDEumv-ki2kPyLSNw1y_pad-17" x="56379.8" y="-7362.34"/><use xlink:href="#deDEumv-ki2kPyLSNw1y_pad-17" x="69184.8" y="-4141.6"/><use xlink:href="#deDEumv-ki2kPyLSNw1y_pad-17" x="68422.8" y="18083.4"/><use xlink:href="#deDEumv-ki2kPyLSNw1y_pad-17" x="62762.8" y="-4141.6"/><use xlink:href="#deDEumv-ki2kPyLSNw1y_pad-17" x="73096.4" y="23156.184"/><use xlink:href="#deDEumv-ki2kPyLSNw1y_pad-17" x="52928.8" y="-5411.6"/><use xlink:href="#deDEumv-ki2kPyLSNw1y_pad-17" x="82795.8" y="-7338.6"/><use xlink:href="#deDEumv-ki2kPyLSNw1y_pad-17" x="92715.532" y="-5653.022"/><use xlink:href="#deDEumv-ki2kPyLSNw1y_pad-17" x="69184.8" y="-2871.6"/><use xlink:href="#deDEumv-ki2kPyLSNw1y_pad-17" x="62961.8" y="-7316.6"/><use xlink:href="#deDEumv-ki2kPyLSNw1y_pad-17" x="47412.8" y="18464.4"/><use xlink:href="#deDEumv-ki2kPyLSNw1y_pad-17" x="52928.8" y="-1220.6"/><use xlink:href="#deDEumv-ki2kPyLSNw1y_pad-17" x="47412.8" y="811.4"/><use xlink:href="#deDEumv-ki2kPyLSNw1y_pad-17" x="53055.8" y="21385.4"/><use xlink:href="#deDEumv-ki2kPyLSNw1y_pad-17" x="79217.8" y="-3887.6"/><use xlink:href="#deDEumv-ki2kPyLSNw1y_pad-17" x="77566.8" y="-7316.6"/><use xlink:href="#deDEumv-ki2kPyLSNw1y_pad-17" x="83281.8" y="20559.9"/><use xlink:href="#deDEumv-ki2kPyLSNw1y_pad-17" x="88336.4" y="-7316.6"/><use xlink:href="#deDEumv-ki2kPyLSNw1y_pad-17" x="79090.8" y="19480.4"/><use xlink:href="#deDEumv-ki2kPyLSNw1y_pad-17" x="85512.8" y="-3887.6"/><use xlink:href="#deDEumv-ki2kPyLSNw1y_pad-17" x="86710.8" y="23163.4"/><use xlink:href="#deDEumv-ki2kPyLSNw1y_pad-17" x="82639.352" y="18261.845"/><use xlink:href="#deDEumv-ki2kPyLSNw1y_pad-17" x="83662.8" y="-1855.6"/><use xlink:href="#deDEumv-ki2kPyLSNw1y_pad-17" x="66517.8" y="6272.4"/><use xlink:href="#deDEumv-ki2kPyLSNw1y_pad-17" x="72867.8" y="-712.6"/><use xlink:href="#deDEumv-ki2kPyLSNw1y_pad-17" x="79217.8" y="6145.4"/><use xlink:href="#deDEumv-ki2kPyLSNw1y_pad-17" x="85694.8" y="-7316.6"/><use xlink:href="#deDEumv-ki2kPyLSNw1y_pad-17" x="72867.8" y="6272.4"/><use xlink:href="#deDEumv-ki2kPyLSNw1y_pad-17" x="83662.8" y="-4649.6"/><use xlink:href="#deDEumv-ki2kPyLSNw1y_pad-17" x="40101.8" y="-7316.6"/><use xlink:href="#deDEumv-ki2kPyLSNw1y_pad-17" x="37561.8" y="21067.9"/><use xlink:href="#deDEumv-ki2kPyLSNw1y_pad-17" x="40076.4" y="23188.8"/><use xlink:href="#deDEumv-ki2kPyLSNw1y_pad-17" x="42616.4" y="23125.3"/><use xlink:href="#deDEumv-ki2kPyLSNw1y_pad-17" x="45156.4" y="23125.3"/></g></svg>