<svg version="1.1" xmlns="http://www.w3.org/2000/svg" xmlns:xlink="http://www.w3.org/1999/xlink" stroke-linecap="round" stroke-linejoin="round" stroke-width="0" fill-rule="evenodd" width="260.11060000000003mm" height="67.4023mm" viewBox="-122319.2 -25421.9 260110.6 67402.3" id="GAmVIm36OiOHP9Kl73CD"><defs><rect x="-900" y="-900" width="1800" height="1800" id="GAmVIm36OiOHP9Kl73CD_pad-10"/><circle cx="0" cy="0" r="900" id="GAmVIm36OiOHP9Kl73CD_pad-11"/><circle cx="0" cy="0" r="800" id="GAmVIm36OiOHP9Kl73CD_pad-12"/><g id="GAmVIm36OiOHP9Kl73CD_pad-13"><polygon points="400,400 -400,400 -400,-400 400,-400"/><circle cx="400" cy="400" r="400"/><circle cx="-400" cy="400" r="400"/><circle cx="-400" cy="-400" r="400"/><circle cx="400" cy="-400" r="400"/><polygon points="400,0 -400,0 -400,800 400,800"/><polygon points="0,400 0,-400 -800,-400 -800,400"/><polygon points="-400,-800 400,-800 400,0 -400,0"/><polygon points="800,-400 800,400 0,400 0,-400"/></g><rect x="-775" y="-205" width="1550" height="410" id="GAmVIm36OiOHP9Kl73CD_pad-14"/><rect x="-775" y="-130" width="1550" height="260" id="GAmVIm36OiOHP9Kl73CD_pad-15"/><rect x="-750" y="-400" width="1500" height="800" id="GAmVIm36OiOHP9Kl73CD_pad-16"/><rect x="-1025" y="-180" width="2050" height="360" id="GAmVIm36OiOHP9Kl73CD_pad-17"/><rect x="-750" y="-350" width="1500" height="700" id="GAmVIm36OiOHP9Kl73CD_pad-18"/><rect x="-762" y="-750" width="1524" height="1500" id="GAmVIm36OiOHP9Kl73CD_pad-19"/><circle cx="0" cy="0" r="750" id="GAmVIm36OiOHP9Kl73CD_pad-20"/><rect x="-762" y="-1000" width="1524" height="2000" rx="762" ry="762" id="GAmVIm36OiOHP9Kl73CD_pad-21"/><rect x="-525" y="-700" width="1050" height="1400" id="GAmVIm36OiOHP9Kl73CD_pad-22"/><rect x="-700" y="-525" width="1400" height="1050" id="GAmVIm36OiOHP9Kl73CD_pad-23"/><circle cx="0" cy="0" r="300" id="GAmVIm36OiOHP9Kl73CD_pad-24"/></defs><g transform="translate(0,16558.5) scale(1,-1)" fill="currentColor" stroke="currentColor"><use xlink:href="#GAmVIm36OiOHP9Kl73CD_pad-10" x="101553.1" y="22203.1"/><use xlink:href="#GAmVIm36OiOHP9Kl73CD_pad-11" x="101553.1" y="24743.1"/><use xlink:href="#GAmVIm36OiOHP9Kl73CD_pad-12" x="107359.7" y="7050.9"/><use xlink:href="#GAmVIm36OiOHP9Kl73CD_pad-12" x="107359.7" y="1970.9"/><use xlink:href="#GAmVIm36OiOHP9Kl73CD_pad-13" x="99739.7" y="7050.9"/><use xlink:href="#GAmVIm36OiOHP9Kl73CD_pad-12" x="99739.7" y="4510.9"/><use xlink:href="#GAmVIm36OiOHP9Kl73CD_pad-12" x="99739.7" y="1970.9"/><use xlink:href="#GAmVIm36OiOHP9Kl73CD_pad-12" x="102279.7" y="7050.9"/><use xlink:href="#GAmVIm36OiOHP9Kl73CD_pad-12" x="102279.7" y="4510.9"/><use xlink:href="#GAmVIm36OiOHP9Kl73CD_pad-12" x="102279.7" y="1970.9"/><use xlink:href="#GAmVIm36OiOHP9Kl73CD_pad-14" x="105373.1" y="10608.1"/><use xlink:href="#GAmVIm36OiOHP9Kl73CD_pad-15" x="105373.1" y="11183.1"/><use xlink:href="#GAmVIm36OiOHP9Kl73CD_pad-15" x="105373.1" y="11683.1"/><use xlink:href="#GAmVIm36OiOHP9Kl73CD_pad-15" x="105373.1" y="12183.1"/><use xlink:href="#GAmVIm36OiOHP9Kl73CD_pad-15" x="105373.1" y="12683.1"/><use xlink:href="#GAmVIm36OiOHP9Kl73CD_pad-15" x="105373.1" y="13183.1"/><use xlink:href="#GAmVIm36OiOHP9Kl73CD_pad-15" x="105373.1" y="13683.1"/><use xlink:href="#GAmVIm36OiOHP9Kl73CD_pad-15" x="105373.1" y="14183.1"/><use xlink:href="#GAmVIm36OiOHP9Kl73CD_pad-15" x="105373.1" y="14683.1"/><use xlink:href="#GAmVIm36OiOHP9Kl73CD_pad-15" x="105373.1" y="15183.1"/><use xlink:href="#GAmVIm36OiOHP9Kl73CD_pad-15" x="105373.1" y="15683.1"/><use xlink:href="#GAmVIm36OiOHP9Kl73CD_pad-14" x="105373.1" y="16258.1"/><use xlink:href="#GAmVIm36OiOHP9Kl73CD_pad-16" x="103053.1" y="9808.1"/><use xlink:href="#GAmVIm36OiOHP9Kl73CD_pad-17" x="105123.1" y="10028.1"/><use xlink:href="#GAmVIm36OiOHP9Kl73CD_pad-18" x="103053.1" y="16703.1"/><use xlink:href="#GAmVIm36OiOHP9Kl73CD_pad-17" x="105123.1" y="16838.1"/><use xlink:href="#GAmVIm36OiOHP9Kl73CD_pad-19" x="-121557.2" y="-18146.6"/><use xlink:href="#GAmVIm36OiOHP9Kl73CD_pad-20" x="-121557.2" y="-15606.6"/><use xlink:href="#GAmVIm36OiOHP9Kl73CD_pad-20" x="-121557.2" y="-13066.6"/><use xlink:href="#GAmVIm36OiOHP9Kl73CD_pad-20" x="-121557.2" y="-10526.6"/><use xlink:href="#GAmVIm36OiOHP9Kl73CD_pad-20" x="-121557.2" y="-7986.6"/><use xlink:href="#GAmVIm36OiOHP9Kl73CD_pad-20" x="-121557.2" y="-5446.6"/><use xlink:href="#GAmVIm36OiOHP9Kl73CD_pad-20" x="-121557.2" y="-2906.6"/><use xlink:href="#GAmVIm36OiOHP9Kl73CD_pad-20" x="-121557.2" y="-366.6"/><use xlink:href="#GAmVIm36OiOHP9Kl73CD_pad-20" x="-121557.2" y="2173.4"/><use xlink:href="#GAmVIm36OiOHP9Kl73CD_pad-20" x="-121557.2" y="4713.4"/><use xlink:href="#GAmVIm36OiOHP9Kl73CD_pad-20" x="-121557.2" y="7253.4"/><use xlink:href="#GAmVIm36OiOHP9Kl73CD_pad-20" x="-121557.2" y="9793.4"/><use xlink:href="#GAmVIm36OiOHP9Kl73CD_pad-20" x="-121557.2" y="12333.4"/><use xlink:href="#GAmVIm36OiOHP9Kl73CD_pad-20" x="-121557.2" y="14873.4"/><use xlink:href="#GAmVIm36OiOHP9Kl73CD_pad-20" x="-121557.2" y="17413.4"/><use xlink:href="#GAmVIm36OiOHP9Kl73CD_pad-20" x="-121557.2" y="19953.4"/><use xlink:href="#GAmVIm36OiOHP9Kl73CD_pad-20" x="-121557.2" y="22493.4"/><use xlink:href="#GAmVIm36OiOHP9Kl73CD_pad-20" x="-121557.2" y="25033.4"/><use xlink:href="#GAmVIm36OiOHP9Kl73CD_pad-20" x="-121557.2" y="27573.4"/><use xlink:href="#GAmVIm36OiOHP9Kl73CD_pad-20" x="-121557.2" y="30113.4"/><use xlink:href="#GAmVIm36OiOHP9Kl73CD_pad-20" x="-25037.2" y="30113.4"/><use xlink:href="#GAmVIm36OiOHP9Kl73CD_pad-20" x="-25037.2" y="27573.4"/><use xlink:href="#GAmVIm36OiOHP9Kl73CD_pad-20" x="-25037.2" y="25033.4"/><use xlink:href="#GAmVIm36OiOHP9Kl73CD_pad-20" x="-25037.2" y="22493.4"/><use xlink:href="#GAmVIm36OiOHP9Kl73CD_pad-20" x="-25037.2" y="19953.4"/><use xlink:href="#GAmVIm36OiOHP9Kl73CD_pad-20" x="-25037.2" y="17413.4"/><use xlink:href="#GAmVIm36OiOHP9Kl73CD_pad-20" x="-25037.2" y="14873.4"/><use xlink:href="#GAmVIm36OiOHP9Kl73CD_pad-20" x="-25037.2" y="12333.4"/><use xlink:href="#GAmVIm36OiOHP9Kl73CD_pad-20" x="-25037.2" y="9793.4"/><use xlink:href="#GAmVIm36OiOHP9Kl73CD_pad-20" x="-25037.2" y="7253.4"/><use xlink:href="#GAmVIm36OiOHP9Kl73CD_pad-20" x="-25037.2" y="4713.4"/><use xlink:href="#GAmVIm36OiOHP9Kl73CD_pad-20" x="-25037.2" y="2173.4"/><use xlink:href="#GAmVIm36OiOHP9Kl73CD_pad-20" x="-25037.2" y="-366.6"/><use xlink:href="#GAmVIm36OiOHP9Kl73CD_pad-20" x="-25037.2" y="-2906.6"/><use xlink:href="#GAmVIm36OiOHP9Kl73CD_pad-20" x="-25037.2" y="-5446.6"/><use xlink:href="#GAmVIm36OiOHP9Kl73CD_pad-20" x="-25037.2" y="-7986.6"/><use xlink:href="#GAmVIm36OiOHP9Kl73CD_pad-20" x="-25037.2" y="-10526.6"/><use xlink:href="#GAmVIm36OiOHP9Kl73CD_pad-20" x="-25037.2" y="-13066.6"/><use xlink:href="#GAmVIm36OiOHP9Kl73CD_pad-20" x="-25037.2" y="-15606.6"/><use xlink:href="#GAmVIm36OiOHP9Kl73CD_pad-20" x="-25037.2" y="-18146.6"/><use xlink:href="#GAmVIm36OiOHP9Kl73CD_pad-21" x="90876.4" y="25614.5"/><use xlink:href="#GAmVIm36OiOHP9Kl73CD_pad-21" x="88336.4" y="25614.5"/><use xlink:href="#GAmVIm36OiOHP9Kl73CD_pad-21" x="78176.4" y="25614.5"/><use xlink:href="#GAmVIm36OiOHP9Kl73CD_pad-21" x="75636.4" y="25614.5"/><use xlink:href="#GAmVIm36OiOHP9Kl73CD_pad-21" x="73096.4" y="25614.5"/><use xlink:href="#GAmVIm36OiOHP9Kl73CD_pad-21" x="60396.4" y="-9945.5"/><use xlink:href="#GAmVIm36OiOHP9Kl73CD_pad-21" x="62936.4" y="-9945.5"/><use xlink:href="#GAmVIm36OiOHP9Kl73CD_pad-21" x="65476.4" y="-9945.5"/><use xlink:href="#GAmVIm36OiOHP9Kl73CD_pad-21" x="85796.4" y="-9945.5"/><use xlink:href="#GAmVIm36OiOHP9Kl73CD_pad-21" x="88336.4" y="-9945.5"/><use xlink:href="#GAmVIm36OiOHP9Kl73CD_pad-21" x="90876.4" y="-9945.5"/><use xlink:href="#GAmVIm36OiOHP9Kl73CD_pad-21" x="40076.4" y="-9945.5"/><use xlink:href="#GAmVIm36OiOHP9Kl73CD_pad-21" x="37536.4" y="-9945.5"/><use xlink:href="#GAmVIm36OiOHP9Kl73CD_pad-21" x="37536.4" y="25614.5"/><use xlink:href="#GAmVIm36OiOHP9Kl73CD_pad-21" x="40076.4" y="25614.5"/><use xlink:href="#GAmVIm36OiOHP9Kl73CD_pad-21" x="42616.4" y="25614.5"/><use xlink:href="#GAmVIm36OiOHP9Kl73CD_pad-21" x="45156.4" y="25614.5"/><use xlink:href="#GAmVIm36OiOHP9Kl73CD_pad-21" x="52776.4" y="25614.5"/><use xlink:href="#GAmVIm36OiOHP9Kl73CD_pad-22" x="92716.8" y="21026.4"/><use xlink:href="#GAmVIm36OiOHP9Kl73CD_pad-22" x="94166.8" y="17426.4"/><use xlink:href="#GAmVIm36OiOHP9Kl73CD_pad-22" x="94166.8" y="21026.4"/><use xlink:href="#GAmVIm36OiOHP9Kl73CD_pad-22" x="92716.8" y="17426.4"/><use xlink:href="#GAmVIm36OiOHP9Kl73CD_pad-23" x="81376.8" y="25269.4"/><use xlink:href="#GAmVIm36OiOHP9Kl73CD_pad-23" x="84976.8" y="26719.4"/><use xlink:href="#GAmVIm36OiOHP9Kl73CD_pad-23" x="81376.8" y="26719.4"/><use xlink:href="#GAmVIm36OiOHP9Kl73CD_pad-23" x="84976.8" y="25269.4"/><use xlink:href="#GAmVIm36OiOHP9Kl73CD_pad-23" x="46854.8" y="-10147.6"/><use xlink:href="#GAmVIm36OiOHP9Kl73CD_pad-23" x="43254.8" y="-11597.6"/><use xlink:href="#GAmVIm36OiOHP9Kl73CD_pad-23" x="46854.8" y="-11597.6"/><use xlink:href="#GAmVIm36OiOHP9Kl73CD_pad-23" x="43254.8" y="-10147.6"/><use xlink:href="#GAmVIm36OiOHP9Kl73CD_pad-23" x="82795.8" y="-10147.6"/><use xlink:href="#GAmVIm36OiOHP9Kl73CD_pad-23" x="79195.8" y="-11597.6"/><use xlink:href="#GAmVIm36OiOHP9Kl73CD_pad-23" x="82795.8" y="-11597.6"/><use xlink:href="#GAmVIm36OiOHP9Kl73CD_pad-23" x="79195.8" y="-10147.6"/><use xlink:href="#GAmVIm36OiOHP9Kl73CD_pad-23" x="56379.8" y="-10147.6"/><use xlink:href="#GAmVIm36OiOHP9Kl73CD_pad-23" x="52779.8" y="-11597.6"/><use xlink:href="#GAmVIm36OiOHP9Kl73CD_pad-23" x="56379.8" y="-11597.6"/><use xlink:href="#GAmVIm36OiOHP9Kl73CD_pad-23" x="52779.8" y="-10147.6"/><use xlink:href="#GAmVIm36OiOHP9Kl73CD_pad-24" x="48356.8" y="-11130.602"/><use xlink:href="#GAmVIm36OiOHP9Kl73CD_pad-24" x="56379.8" y="-11597.6"/><use xlink:href="#GAmVIm36OiOHP9Kl73CD_pad-24" x="84976.8" y="25269.4"/><use xlink:href="#GAmVIm36OiOHP9Kl73CD_pad-24" x="52779.8" y="-10147.6"/><use xlink:href="#GAmVIm36OiOHP9Kl73CD_pad-24" x="82795.8" y="-11597.6"/><use xlink:href="#GAmVIm36OiOHP9Kl73CD_pad-24" x="81376.8" y="26719.4"/><use xlink:href="#GAmVIm36OiOHP9Kl73CD_pad-24" x="58008.8" y="-11634.6"/><use xlink:href="#GAmVIm36OiOHP9Kl73CD_pad-24" x="92716.8" y="17426.4"/><use xlink:href="#GAmVIm36OiOHP9Kl73CD_pad-24" x="84996.3" y="23163.4"/><use xlink:href="#GAmVIm36OiOHP9Kl73CD_pad-24" x="94166.8" y="21026.4"/><use xlink:href="#GAmVIm36OiOHP9Kl73CD_pad-24" x="46854.8" y="-11597.6"/><use xlink:href="#GAmVIm36OiOHP9Kl73CD_pad-24" x="43254.8" y="-10147.6"/><use xlink:href="#GAmVIm36OiOHP9Kl73CD_pad-24" x="79195.8" y="-10147.6"/><use xlink:href="#GAmVIm36OiOHP9Kl73CD_pad-24" x="41752.8" y="-7316.6"/><use xlink:href="#GAmVIm36OiOHP9Kl73CD_pad-24" x="60421.8" y="-7316.6"/><use xlink:href="#GAmVIm36OiOHP9Kl73CD_pad-24" x="50769.8" y="-7316.6"/><use xlink:href="#GAmVIm36OiOHP9Kl73CD_pad-24" x="37942.8" y="-5284.6"/><use xlink:href="#GAmVIm36OiOHP9Kl73CD_pad-24" x="52928.8" y="-4014.6"/><use xlink:href="#GAmVIm36OiOHP9Kl73CD_pad-24" x="41752.8" y="-11126.6"/><use xlink:href="#GAmVIm36OiOHP9Kl73CD_pad-24" x="52166.8" y="-1855.6"/><use xlink:href="#GAmVIm36OiOHP9Kl73CD_pad-24" x="43784.8" y="6272.4"/><use xlink:href="#GAmVIm36OiOHP9Kl73CD_pad-24" x="81817.47" y="18987.869"/><use xlink:href="#GAmVIm36OiOHP9Kl73CD_pad-24" x="78176.4" y="23140.115"/><use xlink:href="#GAmVIm36OiOHP9Kl73CD_pad-24" x="37992.8" y="-1986.6"/><use xlink:href="#GAmVIm36OiOHP9Kl73CD_pad-24" x="49935.8" y="6272.4"/><use xlink:href="#GAmVIm36OiOHP9Kl73CD_pad-24" x="43657.8" y="9574.4"/><use xlink:href="#GAmVIm36OiOHP9Kl73CD_pad-24" x="62834.8" y="6272.4"/><use xlink:href="#GAmVIm36OiOHP9Kl73CD_pad-24" x="75534.8" y="-585.6"/><use xlink:href="#GAmVIm36OiOHP9Kl73CD_pad-24" x="81122.8" y="-1093.6"/><use xlink:href="#GAmVIm36OiOHP9Kl73CD_pad-24" x="49935.8" y="9574.4"/><use xlink:href="#GAmVIm36OiOHP9Kl73CD_pad-24" x="37942.8" y="16940.4"/><use xlink:href="#GAmVIm36OiOHP9Kl73CD_pad-24" x="62762.8" y="16178.4"/><use xlink:href="#GAmVIm36OiOHP9Kl73CD_pad-24" x="52928.8" y="16940.4"/><use xlink:href="#GAmVIm36OiOHP9Kl73CD_pad-24" x="90901.8" y="20750.857"/><use xlink:href="#GAmVIm36OiOHP9Kl73CD_pad-24" x="69057.8" y="19734.4"/><use xlink:href="#GAmVIm36OiOHP9Kl73CD_pad-24" x="62762.8" y="19861.4"/><use xlink:href="#GAmVIm36OiOHP9Kl73CD_pad-24" x="81376.8" y="23163.4"/><use xlink:href="#GAmVIm36OiOHP9Kl73CD_pad-24" x="66462.8" y="-712.6"/><use xlink:href="#GAmVIm36OiOHP9Kl73CD_pad-24" x="65476.4" y="-7316.6"/><use xlink:href="#GAmVIm36OiOHP9Kl73CD_pad-24" x="59024.8" y="1319.4"/><use xlink:href="#GAmVIm36OiOHP9Kl73CD_pad-24" x="66517.8" y="19480.4"/><use xlink:href="#GAmVIm36OiOHP9Kl73CD_pad-24" x="53563.8" y="6399.4"/><use xlink:href="#GAmVIm36OiOHP9Kl73CD_pad-24" x="66517.8" y="-3633.6"/><use xlink:href="#GAmVIm36OiOHP9Kl73CD_pad-24" x="59024.8" y="19099.4"/><use xlink:href="#GAmVIm36OiOHP9Kl73CD_pad-24" x="77185.8" y="16686.4"/><use xlink:href="#GAmVIm36OiOHP9Kl73CD_pad-24" x="81757.8" y="-2490.6"/><use xlink:href="#GAmVIm36OiOHP9Kl73CD_pad-24" x="59024.8" y="-2998.6"/><use xlink:href="#GAmVIm36OiOHP9Kl73CD_pad-24" x="43712.8" y="-2617.6"/><use xlink:href="#GAmVIm36OiOHP9Kl73CD_pad-24" x="60421.8" y="-1601.6"/><use xlink:href="#GAmVIm36OiOHP9Kl73CD_pad-24" x="81884.8" y="9447.4"/><use xlink:href="#GAmVIm36OiOHP9Kl73CD_pad-24" x="46854.8" y="-7316.6"/><use xlink:href="#GAmVIm36OiOHP9Kl73CD_pad-24" x="77058.8" y="19988.4"/><use xlink:href="#GAmVIm36OiOHP9Kl73CD_pad-24" x="75636.4" y="23193.947"/><use xlink:href="#GAmVIm36OiOHP9Kl73CD_pad-24" x="75462.8" y="9574.4"/><use xlink:href="#GAmVIm36OiOHP9Kl73CD_pad-24" x="43784.8" y="15162.4"/><use xlink:href="#GAmVIm36OiOHP9Kl73CD_pad-24" x="69057.8" y="9447.4"/><use xlink:href="#GAmVIm36OiOHP9Kl73CD_pad-24" x="89827.693" y="16614.775"/><use xlink:href="#GAmVIm36OiOHP9Kl73CD_pad-24" x="75407.8" y="16686.4"/><use xlink:href="#GAmVIm36OiOHP9Kl73CD_pad-24" x="84551.8" y="16686.4"/><use xlink:href="#GAmVIm36OiOHP9Kl73CD_pad-24" x="88298.3" y="23163.4"/><use xlink:href="#GAmVIm36OiOHP9Kl73CD_pad-24" x="41189.8" y="9574.4"/><use xlink:href="#GAmVIm36OiOHP9Kl73CD_pad-24" x="59024.8" y="14527.4"/><use xlink:href="#GAmVIm36OiOHP9Kl73CD_pad-24" x="90901.8" y="-5538.6"/><use xlink:href="#GAmVIm36OiOHP9Kl73CD_pad-24" x="90380.693" y="17486.119"/><use xlink:href="#GAmVIm36OiOHP9Kl73CD_pad-24" x="94140.3" y="14908.4"/><use xlink:href="#GAmVIm36OiOHP9Kl73CD_pad-24" x="91155.8" y="-1347.6"/><use xlink:href="#GAmVIm36OiOHP9Kl73CD_pad-24" x="85567.8" y="6272.4"/><use xlink:href="#GAmVIm36OiOHP9Kl73CD_pad-24" x="85525.976" y="17477.184"/><use xlink:href="#GAmVIm36OiOHP9Kl73CD_pad-24" x="90520.8" y="-2871.6"/><use xlink:href="#GAmVIm36OiOHP9Kl73CD_pad-24" x="85294.785" y="-11742.585"/><use xlink:href="#GAmVIm36OiOHP9Kl73CD_pad-24" x="56379.8" y="-7362.34"/><use xlink:href="#GAmVIm36OiOHP9Kl73CD_pad-24" x="69184.8" y="-4141.6"/><use xlink:href="#GAmVIm36OiOHP9Kl73CD_pad-24" x="68422.8" y="18083.4"/><use xlink:href="#GAmVIm36OiOHP9Kl73CD_pad-24" x="62762.8" y="-4141.6"/><use xlink:href="#GAmVIm36OiOHP9Kl73CD_pad-24" x="73096.4" y="23156.184"/><use xlink:href="#GAmVIm36OiOHP9Kl73CD_pad-24" x="52928.8" y="-5411.6"/><use xlink:href="#GAmVIm36OiOHP9Kl73CD_pad-24" x="82795.8" y="-7338.6"/><use xlink:href="#GAmVIm36OiOHP9Kl73CD_pad-24" x="92715.532" y="-5653.022"/><use xlink:href="#GAmVIm36OiOHP9Kl73CD_pad-24" x="69184.8" y="-2871.6"/><use xlink:href="#GAmVIm36OiOHP9Kl73CD_pad-24" x="62961.8" y="-7316.6"/><use xlink:href="#GAmVIm36OiOHP9Kl73CD_pad-24" x="47412.8" y="18464.4"/><use xlink:href="#GAmVIm36OiOHP9Kl73CD_pad-24" x="52928.8" y="-1220.6"/><use xlink:href="#GAmVIm36OiOHP9Kl73CD_pad-24" x="47412.8" y="811.4"/><use xlink:href="#GAmVIm36OiOHP9Kl73CD_pad-24" x="53055.8" y="21385.4"/><use xlink:href="#GAmVIm36OiOHP9Kl73CD_pad-24" x="79217.8" y="-3887.6"/><use xlink:href="#GAmVIm36OiOHP9Kl73CD_pad-24" x="77566.8" y="-7316.6"/><use xlink:href="#GAmVIm36OiOHP9Kl73CD_pad-24" x="83281.8" y="20559.9"/><use xlink:href="#GAmVIm36OiOHP9Kl73CD_pad-24" x="88336.4" y="-7316.6"/><use xlink:href="#GAmVIm36OiOHP9Kl73CD_pad-24" x="79090.8" y="19480.4"/><use xlink:href="#GAmVIm36OiOHP9Kl73CD_pad-24" x="85512.8" y="-3887.6"/><use xlink:href="#GAmVIm36OiOHP9Kl73CD_pad-24" x="86710.8" y="23163.4"/><use xlink:href="#GAmVIm36OiOHP9Kl73CD_pad-24" x="82639.352" y="18261.845"/><use xlink:href="#GAmVIm36OiOHP9Kl73CD_pad-24" x="83662.8" y="-1855.6"/><use xlink:href="#GAmVIm36OiOHP9Kl73CD_pad-24" x="66517.8" y="6272.4"/><use xlink:href="#GAmVIm36OiOHP9Kl73CD_pad-24" x="72867.8" y="-712.6"/><use xlink:href="#GAmVIm36OiOHP9Kl73CD_pad-24" x="79217.8" y="6145.4"/><use xlink:href="#GAmVIm36OiOHP9Kl73CD_pad-24" x="85694.8" y="-7316.6"/><use xlink:href="#GAmVIm36OiOHP9Kl73CD_pad-24" x="72867.8" y="6272.4"/><use xlink:href="#GAmVIm36OiOHP9Kl73CD_pad-24" x="83662.8" y="-4649.6"/><use xlink:href="#GAmVIm36OiOHP9Kl73CD_pad-24" x="40101.8" y="-7316.6"/><use xlink:href="#GAmVIm36OiOHP9Kl73CD_pad-24" x="37561.8" y="21067.9"/><use xlink:href="#GAmVIm36OiOHP9Kl73CD_pad-24" x="40076.4" y="23188.8"/><use xlink:href="#GAmVIm36OiOHP9Kl73CD_pad-24" x="42616.4" y="23125.3"/><use xlink:href="#GAmVIm36OiOHP9Kl73CD_pad-24" x="45156.4" y="23125.3"/><path d="M 17942.8 17853.4 30498.903 30409.503 M 36434.2 12974.206 36434.2 24474.206" fill="none" stroke-width="250"/><path d="M 82795.8 -11597.6 83752.8 -11597.6" fill="none" stroke-width="1000"/><path d="M 96942.8 11457.594 90556.4 11457.594" fill="none" stroke-width="250"/><path d="M 46854.8 -11597.6 47889.802 -11597.6" fill="none" stroke-width="1000"/><path d="M 36942.8 -6146.6 43442.8 -6146.6" fill="none" stroke-width="250"/><path d="M 94166.8 21026.4 94166.8 21993.9" fill="none" stroke-width="1000"/><path d="M 36704.2 13244.206 36704.2 -5908" fill="none" stroke-width="250"/><path d="M 102188.306 16703.1 99942.8 14457.594" fill="none" stroke-width="254"/><path d="M 36434.2 24474.206 30498.903 30409.503" fill="none" stroke-width="250"/><path d="M 84976.8 23239.41 84948.545 23211.155 M 56379.8 -11597.6 57971.8 -11597.6 M 92716.8 17426.4 92716.8 16342.4" fill="none" stroke-width="1000"/><path d="M 13942.8 17853.4 17942.8 17853.4" fill="none" stroke-width="250"/><path d="M 47889.802 -11597.6 48356.8 -11130.602 48356.8 -7316.6" fill="none" stroke-width="1000"/><path d="M 99942.8 14457.594 99942.8 20592.8" fill="none" stroke-width="250"/><path d="M 79195.8 -10147.6 79195.8 -7421.6" fill="none" stroke-width="1000"/><path d="M 84976.8 23182.9 84996.3 23163.4" fill="none" stroke-width="250"/><path d="M 43254.8 -10147.6 43254.8 -7338.6 M 57971.8 -11597.6 58008.8 -11634.6 M 81376.8 26719.4 80487.8 26719.4" fill="none" stroke-width="1000"/><path d="M 99942.8 20592.8 101553.1 22203.1 M 30498.903 30409.503 30434.2 30474.206 M 97056.4 11457.594 96942.8 11457.594 M 43442.8 -7150.6 43254.8 -7338.6" fill="none" stroke-width="250"/><path d="M 52779.8 -10147.6 52779.8 -7338.6" fill="none" stroke-width="1000"/><path d="M 36704.2 -5908 36942.8 -6146.6 M 43442.8 -6146.6 43442.8 -7150.6 M 96942.8 11457.594 99942.8 14457.594" fill="none" stroke-width="250"/><path d="M 103053.1 16703.1 102188.306 16703.1" fill="none" stroke-width="254"/><path d="M 84976.8 25269.4 84976.8 23239.41" fill="none" stroke-width="1000"/><path d="M 36704.2 13244.206 36434.2 12974.206 M 98323.1 10473.1 98442.8 10353.4 M 98524.05 10434.65 98404.35 10554.35 M 131442.8 -16646.6 131442.8 7553.994 M 89321.994 -24025.794 89573.1 -24276.9 M 103880.6 5078.1 98524.05 10434.65 M 136867.65 12978.844 137666.4 12180.094" fill="none" stroke-width="250"/><path d="M 103053.1 9808.1 103053.1 15463.7" fill="none" stroke-width="254"/><path d="M 98524.05 10434.65 98442.8 10353.4 M 112942.8 -15646.6 128942.8 -15646.6 M 98323.1 11973.1 98323.1 10473.1 M 89573.1 -24276.9 88573.1 -25276.9 M 103053.1 26463.7 115442.8 38853.4 M 103105.6 9755.6 105810.3 7050.9 M 87442.8 -24025.794 89321.994 -24025.794 M 98442.8 10353.4 98396.994 10307.594" fill="none" stroke-width="250"/><path d="M 103053.1 15463.7 129442.8 41853.4" fill="none" stroke-width="254"/><path d="M 128942.8 -15646.6 130692.8 -17396.6 M 103880.6 5078.1 103880.6 -9969.4 M -8065.8 -24025.794 87442.8 -24025.794 M 103053.1 16703.1 103053.1 26463.7 M 87442.8 -24146.6 87442.8 -24025.794 M 99203.1 9755.6 103105.6 9755.6 M 131442.8 7553.994 136867.65 12978.844 M 130692.8 -17396.6 131442.8 -16646.6 M 103053.1 9808.1 103105.6 9755.6 M 103880.6 -9969.4 89573.1 -24276.9 M 103053.1 16703.1 98323.1 11973.1 M 88573.1 -25276.9 87442.8 -24146.6 M 88573.1 -25276.9 88553.1 -25296.9 M 136867.65 12978.844 136598.9 13247.594 M -16065.8 -16025.794 -8065.8 -24025.794" fill="none" stroke-width="250"/><path d="M 33942.8 41853.4 31942.8 39853.4" fill="none" stroke-width="254"/><path d="M 98396.994 10307.594 81616.4 10307.594" fill="none" stroke-width="250"/><path d="M 129442.8 41853.4 33942.8 41853.4" fill="none" stroke-width="254"/><path d="M 105810.3 7050.9 107359.7 7050.9" fill="none" stroke-width="250"/><path d="M 41752.8 -11126.6 41752.8 -8646.6" fill="none" stroke-width="1000"/><path d="M 60421.8 -7316.6 60421.8 -9920.1" fill="none" stroke-width="1500"/><path d="M 41752.8 -5848.831 41188.569 -5284.6 M 89442.8 -20146.6 90942.8 -18646.6 M 39974.8 -1855.6 37942.8 -3887.6 M 41188.569 -5284.6 37942.8 -5284.6 M 90942.8 -18646.6 94442.8 -18646.6 M 37942.8 -5284.6 37942.8 -3887.6 M 43254.8 -8834.6 43442.8 -8646.6 M 52779.8 -11597.6 65328.8 -24146.6 M 43254.8 -11597.6 43254.8 -8834.6 M 52779.8 -11597.6 54393.8 -11597.6 M 41752.8 -10872.6 41752.8 -7316.6 M 75942.8 -24146.6 79942.8 -20146.6" fill="none" stroke-width="250"/><path d="M 41752.8 -8646.6 41752.8 -7316.6" fill="none" stroke-width="1000"/><path d="M 43442.8 -8646.6 41752.8 -8646.6 M 79942.8 -20146.6 89442.8 -20146.6" fill="none" stroke-width="250"/><path d="M 43254.8 -11597.6 42223.8 -11597.6" fill="none" stroke-width="1000"/><path d="M 50769.8 -7316.6 50769.8 -10999.6" fill="none" stroke-width="250"/><path d="M 52779.8 -11597.6 51367.8 -11597.6 M 50769.8 -10999.6 50769.8 -5411.6" fill="none" stroke-width="1000"/><path d="M 43254.8 -11597.6 52779.8 -11597.6 M 54393.8 -11597.6 54442.8 -11646.6 M 42477.8 -11597.6 41752.8 -10872.6 M 65328.8 -24146.6 75942.8 -24146.6 M 52166.8 -1855.6 39974.8 -1855.6 M 52166.8 -4014.6 50769.8 -5411.6" fill="none" stroke-width="250"/><path d="M 60421.8 -9920.1 60396.4 -9945.5" fill="none" stroke-width="1500"/><path d="M 51367.8 -11597.6 50769.8 -10999.6" fill="none" stroke-width="1000"/><path d="M 60396.4 -7094.115 57316.885 -4014.6 M 52928.8 -4014.6 52166.8 -4014.6 M 41752.8 -7316.6 41752.8 -5848.831 M 94442.8 -18646.6 94942.8 -19146.6" fill="none" stroke-width="250"/><path d="M 42223.8 -11597.6 41752.8 -11126.6" fill="none" stroke-width="1000"/><path d="M 43254.8 -11597.6 42477.8 -11597.6 M 57316.885 -4014.6 52928.8 -4014.6 M 79217.8 -966.6 80995.8 -966.6 M 52293.8 6272.4 52420.8 6272.4 M 75534.8 -585.6 78836.8 -585.6 M 74391.8 557.4 75534.8 -585.6 M 53563.8 7415.4 55214.8 7415.4 M 78176.4 23140.115 78176.4 22615.698 M 80995.8 -966.6 81122.8 -1093.6 M 52420.8 6272.4 53563.8 7415.4 M 39847.8 -131.6 37992.8 -1986.6 M 78176.4 22615.698 81804.229 18987.869 M 62834.8 3097.4 65374.8 557.4 M 62834.8 6272.4 62834.8 3097.4 M 65374.8 557.4 74137.8 557.4" fill="none" stroke-width="250"/><path d="M 78176.4 25614.5 78176.4 23140.115" fill="none" stroke-width="1500"/><path d="M 78836.8 -585.6 79217.8 -966.6 M 39847.8 2335.4 39847.8 -131.6 M 39847.8 2335.4 43784.8 6272.4 M 43657.8 9574.4 49935.8 9574.4 M 52293.8 6272.4 49935.8 6272.4 M 81804.229 18987.869 81817.47 18987.869 M 62834.8 6272.4 56357.8 6272.4 M 74137.8 557.4 74391.8 557.4 M 55214.8 7415.4 56357.8 6272.4" fill="none" stroke-width="250"/><path d="M 90876.4 25614.5 90876.4 20776.257" fill="none" stroke-width="1500"/><path d="M 63778.8 20877.4 67914.8 20877.4 M 71976.172 27097.772 78582.8 27097.772 M 88151.264 19468.323 89433.798 20750.857 M 78836.8 27034.272 79090.8 26780.272 M 81016.798 25269.4 81376.8 25269.4 M 79090.8 26780.272 79469.172 26401.9 M 81376.8 23163.4 81376.8 21512.4" fill="none" stroke-width="250"/><path d="M 92716.8 21026.4 91126.543 21026.4" fill="none" stroke-width="1000"/><path d="M 52928.8 16940.4 37942.8 16940.4 M 83414.216 19474.984 87754.333 19474.984 M 80032.8 25269.4 81376.8 25269.4 M 63778.8 20877.4 62762.8 19861.4 M 53690.8 16178.4 62762.8 16178.4 M 92441.257 20750.857 92716.8 21026.4 M 78773.3 27097.772 79090.8 26780.272 M 79469.172 26401.9 79469.172 25833.028 M 67914.8 20877.4 69057.8 19734.4 69057.8 24179.4 M 78582.8 27097.772 78773.3 27097.772 M 87760.994 19468.323 88151.264 19468.323" fill="none" stroke-width="250"/><path d="M 91126.543 21026.4 90876.4 20776.257" fill="none" stroke-width="1000"/><path d="M 69057.8 24179.4 71976.172 27097.772 M 79469.172 25833.028 80032.8 25269.4" fill="none" stroke-width="250"/><path d="M 81376.8 25269.4 81376.8 23163.4" fill="none" stroke-width="1000"/><path d="M 53690.8 16178.4 52928.8 16940.4" fill="none" stroke-width="250"/><path d="M 90876.4 20776.257 90901.8 20750.857" fill="none" stroke-width="1000"/><path d="M 87754.333 19474.984 87760.994 19468.323 M 89433.798 20750.857 90901.8 20750.857 M 81376.8 21512.4 83414.216 19474.984 M 59024.8 19099.4 66136.8 19099.4 M 59024.8 1319.4 61056.8 -712.6 M 59024.8 1319.4 55341.8 5002.4 M 66462.8 -712.6 61056.8 -712.6 M 54960.8 5002.4 53563.8 6399.4" fill="none" stroke-width="250"/><path d="M 65476.4 -7316.6 65476.4 -9945.5" fill="none" stroke-width="1500"/><path d="M 65476.4 -4675 66517.8 -3633.6 M 66136.8 19099.4 66517.8 19480.4 M 55341.8 5002.4 54960.8 5002.4 M 65476.4 -7316.6 65476.4 -4675 M 58643.8 -2617.6 43712.8 -2617.6" fill="none" stroke-width="250"/><path d="M 46854.8 -7316.6 46854.8 -10147.6" fill="none" stroke-width="1000"/><path d="M 78455.8 -2744.6 81122.8 -2744.6" fill="none" stroke-width="250"/><path d="M 75636.4 25614.5 75636.4 23193.947" fill="none" stroke-width="1500"/><path d="M 73502.8 -1855.6 73502.8 -2109.6 M 81122.8 -2744.6 81503.8 -2744.6 M 77185.8 11297.4 77185.8 16686.4 M 73502.8 -2109.6 73756.8 -2363.6 M 81503.8 -2744.6 81757.8 -2490.6 M 46854.8 -5759.6 43712.8 -2617.6 M 60421.8 -1601.6 60675.8 -1855.6 M 81757.8 9574.4 81884.8 9447.4 M 78201.8 -2490.6 78455.8 -2744.6 M 78201.8 -2363.6 78201.8 -2490.6 M 46854.8 -7316.6 46854.8 -5759.6 M 77058.8 21771.547 75636.4 23193.947 M 75462.8 9574.4 77185.8 11297.4 M 60675.8 -1855.6 73502.8 -1855.6 M 81757.8 9574.4 75462.8 9574.4 M 73756.8 -2363.6 78201.8 -2363.6 M 77058.8 19988.4 77058.8 21771.547 M 58643.8 -2617.6 59024.8 -2998.6 M 66771.8 14527.4 59024.8 14527.4 M 89756.068 16686.4 89827.693 16614.775 M 83281.8 16686.4 79979.8 16686.4 M 66771.8 14527.4 69057.8 12241.4 M 79979.8 16686.4 79725.8 16686.4 M 69057.8 12241.4 69057.8 9447.4" fill="none" stroke-width="250"/><path d="M 88336.4 23201.5 88298.3 23163.4" fill="none" stroke-width="1500"/><path d="M 41189.8 9646.4 43784.8 12241.4 M 41189.8 9646.4 41189.8 9574.4 M 76423.8 17702.4 75407.8 16686.4 M 84551.8 16686.4 89756.068 16686.4" fill="none" stroke-width="250"/><path d="M 88336.4 25614.5 88336.4 23201.5" fill="none" stroke-width="1500"/><path d="M 58389.8 15162.4 59024.8 14527.4 M 71343.8 9447.4 75407.8 13511.4 M 43784.8 12241.4 43784.8 15162.4 58389.8 15162.4 M 75407.8 13511.4 75407.8 16686.4 M 78709.8 17702.4 76423.8 17702.4 M 83535.8 16686.4 83281.8 16686.4 M 79725.8 16686.4 78709.8 17702.4 M 84551.8 16686.4 83535.8 16686.4 M 69057.8 9447.4 71343.8 9447.4 M 85545.798 17497.006 90391.578 17497.006 M 90380.693 17486.121 90380.693 17486.119 M 90315.406 17497.006 90315.406 17486.955 M 91155.8 -9666.1 90876.4 -9945.5 M 92616.3 14908.4 94140.3 14908.4 M 94166.8 17993.4 93695.8 18464.4 M 91663.8 14908.4 92616.3 14908.4 M 90520.8 17361.239 90480.961 17321.4 M 91282.8 18464.4 90520.8 17702.4 90315.406 17497.006 M 90901.8 -5538.6 90901.8 -4395.6 M 91155.8 -1347.6 91155.8 684.4 M 90901.8 -4395.6 91155.8 -4141.6 M 90315.406 17486.955 90480.961 17321.4 M 93695.8 18464.4 91282.8 18464.4 M 91155.8 684.4 85567.8 6272.4" fill="none" stroke-width="250"/><path d="M 94166.8 17426.4 94166.8 15887.4" fill="none" stroke-width="1000"/><path d="M 90315.406 17497.006 90391.578 17497.006 M 91155.8 16646.561 91155.8 15416.4 M 91155.8 -1347.6 91155.8 -4141.6 M 90480.961 17321.4 91155.8 16646.561" fill="none" stroke-width="250"/><path d="M 94166.8 15887.4 94140.3 15860.9" fill="none" stroke-width="1000"/><path d="M 91155.8 15416.4 91663.8 14908.4" fill="none" stroke-width="250"/><path d="M 90901.8 -9920.1 90876.4 -9945.5" fill="none" stroke-width="1500"/><path d="M 90391.578 17497.006 90380.693 17486.121" fill="none" stroke-width="250"/><path d="M 90901.8 -5538.6 90901.8 -9920.1" fill="none" stroke-width="1500"/><path d="M 94140.3 15860.9 94140.3 14908.4" fill="none" stroke-width="1000"/><path d="M 85525.976 17477.184 85545.798 17497.006 M 90520.8 17702.4 90520.8 17361.239 M 94166.8 17426.4 94166.8 17993.4 M 63596.8 -4141.6 64993.8 -2744.6" fill="none" stroke-width="250"/><path d="M 73096.4 25614.5 73096.4 23156.184" fill="none" stroke-width="1500"/><path d="M 54398.815 -5411.6 52928.8 -5411.6" fill="none" stroke-width="250"/><path d="M 56379.8 -10147.6 56379.8 -7362.34" fill="none" stroke-width="1000"/><path d="M 70835.8 19353.4 70835.8 20895.584 M 56379.8 -7392.585 54398.815 -5411.6 M 70835.8 20895.584 73096.4 23156.184 M 64231.8 -11078.593 64231.8 -4776.6 M 68422.8 18083.4 69565.8 18083.4 M 56379.8 -7392.585 56379.8 -7362.34 M 84170.8 -3252.6 84551.8 -2871.6 M 63596.8 -4141.6 62762.8 -4141.6 M 77820.8 -2871.6 78201.8 -3252.6" fill="none" stroke-width="250"/><path d="M 56379.8 -10147.6 58172.8 -10147.6" fill="none" stroke-width="1000"/><path d="M 56379.8 -10147.6 56379.8 -7392.585 M 92715.532 -10688.018 92715.532 -5653.022 M 90520.8 -2871.6 84551.8 -2871.6 M 59786.8 -11761.6 63548.793 -11761.6 M 64993.8 -2744.6 69057.8 -2744.6 M 77185.8 -2871.6 77820.8 -2871.6 M 69565.8 18083.4 70835.8 19353.4" fill="none" stroke-width="250"/><path d="M 83699.8 -10147.6 83736.8 -10110.6" fill="none" stroke-width="1000"/><path d="M 63548.793 -11761.6 64231.8 -11078.593 M 91660.965 -11742.585 92715.532 -10688.018 M 83699.8 -10147.6 83789.8 -10237.6 M 64231.8 -4776.6 63596.8 -4141.6" fill="none" stroke-width="250"/><path d="M 82795.8 -10147.6 82795.8 -7338.6" fill="none" stroke-width="1000"/><path d="M 77185.8 -2871.6 69184.8 -2871.6 M 69057.8 -2744.6 69184.8 -2871.6 M 78201.8 -3252.6 84170.8 -3252.6" fill="none" stroke-width="250"/><path d="M 83699.8 -10147.6 85294.785 -11742.585" fill="none" stroke-width="500"/><path d="M 82795.8 -10147.6 83699.8 -10147.6 M 85294.785 -11742.585 91660.965 -11742.585 M 58172.8 -10147.6 59786.8 -11761.6 M 61310.8 -3379.6 61310.8 -5552.208 M 50134.8 18464.4 53055.8 21385.4 M 61310.8 -5552.208 62757.692 -6999.1 M 50134.8 18464.4 47412.8 18464.4 M 50896.8 811.4 47412.8 811.4 M 62961.8 -7316.6 62961.8 -7203.208 M 59151.8 -1220.6 61310.8 -3379.6 M 62757.692 -6999.1 62936.4 -7177.808 M 52928.8 -1220.6 59151.8 -1220.6" fill="none" stroke-width="250"/><path d="M 62961.8 -9920.1 62936.4 -9945.5" fill="none" stroke-width="1000"/><path d="M 62961.8 -7203.208 62757.692 -6999.1" fill="none" stroke-width="250"/><path d="M 62961.8 -7316.6 62961.8 -9920.1" fill="none" stroke-width="1500"/><path d="M 50896.8 811.4 52928.8 -1220.6 M 79090.8 19480.4 80293.891 18277.309 M 77537.573 -10923.16 77537.573 -5567.827 M 79195.8 -11597.6 78212.013 -11597.6 77537.573 -10923.16 M 80293.891 18277.309 82623.888 18277.309" fill="none" stroke-width="250"/><path d="M 77566.8 -11003.602 77566.8 -10110.6" fill="none" stroke-width="1000"/><path d="M 88336.4 -6711.2 85512.8 -3887.6" fill="none" stroke-width="250"/><path d="M 86710.8 26020.402 86710.8 25576.4 M 86011.802 26719.4 86710.8 26020.402 M 78160.798 -11597.6 77566.8 -11003.602" fill="none" stroke-width="1000"/><path d="M 88336.4 -7316.6 88336.4 -6711.2 M 86710.8 25703.4 85694.8 26719.4 M 82623.888 18277.309 82639.352 18261.845 M 85584.695 21839.173 86710.8 22965.278 M 82654.816 18277.309 82639.352 18261.845" fill="none" stroke-width="250"/><path d="M 88336.4 -9945.5 88336.4 -7316.6" fill="none" stroke-width="1500"/><path d="M 77566.8 -10110.6 77566.8 -7316.6" fill="none" stroke-width="1000"/><path d="M 86710.8 22965.278 86710.8 23163.4 M 86710.8 25576.4 86710.8 25703.4" fill="none" stroke-width="250"/><path d="M 86710.8 26020.402 86710.8 23163.4" fill="none" stroke-width="1000"/><path d="M 84561.073 21839.173 85584.695 21839.173 M 83281.8 20559.9 84561.073 21839.173 M 77537.573 -5567.827 79217.8 -3887.6 M 85694.8 26719.4 84976.8 26719.4" fill="none" stroke-width="250"/><path d="M 84976.8 26719.4 86011.802 26719.4" fill="none" stroke-width="1000"/><path d="M 79217.8 -3887.6 85512.8 -3887.6" fill="none" stroke-width="250"/><path d="M 79195.8 -11597.6 78160.798 -11597.6" fill="none" stroke-width="1000"/><path d="M 75153.8 -1347.6 77185.8 -1347.6 M 67787.8 7542.4 71597.8 7542.4 M 74391.8 -585.6 75153.8 -1347.6 M 74264.8 -585.6 74391.8 -585.6 M 78201.8 -1347.6 78201.8 -1601.6 78455.8 -1855.6 M 79090.8 6272.4 72867.8 6272.4 M 79217.8 6145.4 79090.8 6272.4 M 78455.8 -1855.6 83662.8 -1855.6 M 71597.8 7542.4 72867.8 6272.4 M 66517.8 6272.4 67787.8 7542.4 M 77185.8 -1347.6 78201.8 -1347.6" fill="none" stroke-width="250"/><path d="M 85796.4 -7418.2 85694.8 -7316.6" fill="none" stroke-width="1500"/><path d="M 72994.8 -585.6 72867.8 -712.6 M 83662.8 -4649.6 83662.8 -5284.6" fill="none" stroke-width="250"/><path d="M 85796.4 -9945.5 85796.4 -7418.2" fill="none" stroke-width="1500"/><path d="M 83662.8 -5284.6 85694.8 -7316.6 M 74264.8 -585.6 72994.8 -585.6" fill="none" stroke-width="250"/><path d="M 40101.8 -7316.6 40101.8 -9920.1 40076.4 -9945.5 M 37536.4 -9945.5 37536.4 -7354.7 M 37536.4 21093.3 37561.8 21067.9 M 37536.4 25614.5 37536.4 21093.3 M 40076.4 25614.5 40076.4 23188.8 M 42616.4 25614.5 42616.4 23125.3 M 45156.4 25614.5 45156.4 23125.3 M 52776.4 25614.5 52776.4 23188.8" fill="none" stroke-width="1500"/></g></svg>