<svg version="1.1" xmlns="http://www.w3.org/2000/svg" xmlns:xlink="http://www.w3.org/1999/xlink" stroke-linecap="round" stroke-linejoin="round" stroke-width="0" fill-rule="evenodd" width="270mm" height="80.02419400000001mm" viewBox="-132108.6 -32646.6 270000 80024.194" id="Z5Q1t8-gW_cu88AdHn-d"><g transform="translate(0,14730.994000000006) scale(1,-1)" fill="currentColor" stroke="currentColor"><path d="M 134722.8 15453.4 134722.8 27453.4 M 134722.8 -6546.6 134722.8 5453.4 M 92892.8 2513.4 A 5000 5000 0 0 0 92892.8 12513.4 L 94992.8 12513.4 M -132108.6 47377.594 137891.4 47377.594 137891.4 -32646.6 -132108.6 -32646.6 -132108.6 47377.594 M 91992.8 -12486.6 34992.8 -12486.6 34992.8 27513.4 91992.8 27513.4 A 3000 3000 0 0 0 94992.8 24513.4 M 94992.8 2513.4 92892.8 2513.4 M 94992.8 -9486.6 A 3000 3000 0 0 0 91992.8 -12486.6 M 102295.6 9133.1 103998.1 9133.1 103998.1 9533.1 106148.1 9533.1 106598.1 9903.1 106598.1 10308.1 A 200.001 200.001 0 0 0 106798.1 10508.1 L 107048.1 10508.1 A 200.001 200.001 0 0 1 107248.1 10708.1 L 107248.1 12933.1 A 200.001 200.001 0 0 1 107048.1 13133.1 L 106848.1 13133.1 A 200.001 200.001 0 0 0 106648.1 13333.1 L 106648.1 14333.1 A 200 200 0 0 0 106848.1 14533.1 L 107048.1 14533.1 A 200 200 0 0 1 107248.1 14733.1 L 107248.1 16158.1 A 200 200 0 0 1 107048.1 16358.1 L 106798.1 16358.1 A 200 200 0 0 0 106598.1 16558.1 L 106598.1 17008.1 106148.1 17333.1 102308.1 17333.1" fill="none" stroke-width="150"/></g></svg>