<svg version="1.1" xmlns="http://www.w3.org/2000/svg" xmlns:xlink="http://www.w3.org/1999/xlink" stroke-linecap="round" stroke-linejoin="round" stroke-width="0" fill-rule="evenodd" width="266.0122mm" height="66.677mm" viewBox="-127684.2 -24773.6 266012.2 66677" id="WRyHOsbzj60Wx_-KPjFy"><defs><g id="WRyHOsbzj60Wx_-KPjFy_pad-10"><polygon points="-915,-225 915,-225 915,225 -915,225"/><circle cx="-915" cy="-225" r="75"/><circle cx="915" cy="-225" r="75"/><circle cx="915" cy="225" r="75"/><circle cx="-915" cy="225" r="75"/><polygon points="-915,-300 915,-300 915,-150 -915,-150"/><polygon points="990,-225 990,225 840,225 840,-225"/><polygon points="915,150 -915,150 -915,300 915,300"/><polygon points="-840,225 -840,-225 -990,-225 -990,225"/></g><circle cx="0" cy="0" r="200" id="WRyHOsbzj60Wx_-KPjFy_pad-11"/><rect x="-550" y="-900" width="1100" height="1800" id="WRyHOsbzj60Wx_-KPjFy_pad-12"/><rect x="-800" y="-1000" width="1600" height="2000" id="WRyHOsbzj60Wx_-KPjFy_pad-13"/><g id="WRyHOsbzj60Wx_-KPjFy_pad-14"><polygon points="412.5,-162.5 412.5,162.5 -412.5,162.5 -412.5,-162.5"/><circle cx="412.5" cy="-162.5" r="162.5"/><circle cx="412.5" cy="162.5" r="162.5"/><circle cx="-412.5" cy="162.5" r="162.5"/><circle cx="-412.5" cy="-162.5" r="162.5"/><polygon points="575,-162.5 575,162.5 250,162.5 250,-162.5"/><polygon points="412.5,0 -412.5,0 -412.5,325 412.5,325"/><polygon points="-250,162.5 -250,-162.5 -575,-162.5 -575,162.5"/><polygon points="-412.5,-325 412.5,-325 412.5,0 -412.5,0"/></g><g id="WRyHOsbzj60Wx_-KPjFy_pad-15"><polygon points="537.5,-112.5 537.5,112.5 -537.5,112.5 -537.5,-112.5"/><circle cx="537.5" cy="-112.5" r="112.5"/><circle cx="537.5" cy="112.5" r="112.5"/><circle cx="-537.5" cy="112.5" r="112.5"/><circle cx="-537.5" cy="-112.5" r="112.5"/><polygon points="650,-112.5 650,112.5 425,112.5 425,-112.5"/><polygon points="537.5,0 -537.5,0 -537.5,225 537.5,225"/><polygon points="-425,112.5 -425,-112.5 -650,-112.5 -650,112.5"/><polygon points="-537.5,-225 537.5,-225 537.5,0 -537.5,0"/></g><g id="WRyHOsbzj60Wx_-KPjFy_pad-16"><polygon points="600,-450 600,450 -600,450 -600,-450"/><circle cx="600" cy="-450" r="250"/><circle cx="600" cy="450" r="250"/><circle cx="-600" cy="450" r="250"/><circle cx="-600" cy="-450" r="250"/><polygon points="850,-450 850,450 350,450 350,-450"/><polygon points="600,200 -600,200 -600,700 600,700"/><polygon points="-350,450 -350,-450 -850,-450 -850,450"/><polygon points="-600,-700 600,-700 600,-200 -600,-200"/></g><g id="WRyHOsbzj60Wx_-KPjFy_pad-17"><polygon points="265,-135 265,135 -265,135 -265,-135"/><circle cx="265" cy="-135" r="135"/><circle cx="265" cy="135" r="135"/><circle cx="-265" cy="135" r="135"/><circle cx="-265" cy="-135" r="135"/><polygon points="400,-135 400,135 130,135 130,-135"/><polygon points="265,0 -265,0 -265,270 265,270"/><polygon points="-130,135 -130,-135 -400,-135 -400,135"/><polygon points="-265,-270 265,-270 265,0 -265,0"/></g><rect x="-900" y="-900" width="1800" height="1800" id="WRyHOsbzj60Wx_-KPjFy_pad-18"/><circle cx="0" cy="0" r="900" id="WRyHOsbzj60Wx_-KPjFy_pad-19"/><circle cx="0" cy="0" r="800" id="WRyHOsbzj60Wx_-KPjFy_pad-20"/><g id="WRyHOsbzj60Wx_-KPjFy_pad-21"><polygon points="400,400 -400,400 -400,-400 400,-400"/><circle cx="400" cy="400" r="400"/><circle cx="-400" cy="400" r="400"/><circle cx="-400" cy="-400" r="400"/><circle cx="400" cy="-400" r="400"/><polygon points="400,0 -400,0 -400,800 400,800"/><polygon points="0,400 0,-400 -800,-400 -800,400"/><polygon points="-400,-800 400,-800 400,0 -400,0"/><polygon points="800,-400 800,400 0,400 0,-400"/></g><rect x="-875" y="-180" width="1750" height="360" id="WRyHOsbzj60Wx_-KPjFy_pad-22"/><rect x="-775" y="-205" width="1550" height="410" id="WRyHOsbzj60Wx_-KPjFy_pad-23"/><rect x="-775" y="-130" width="1550" height="260" id="WRyHOsbzj60Wx_-KPjFy_pad-24"/><circle cx="0" cy="0" r="165" id="WRyHOsbzj60Wx_-KPjFy_pad-25"/><rect x="-3500" y="-3250" width="7000" height="6500" id="WRyHOsbzj60Wx_-KPjFy_pad-26"/><rect x="-762" y="-750" width="1524" height="1500" id="WRyHOsbzj60Wx_-KPjFy_pad-27"/><circle cx="0" cy="0" r="750" id="WRyHOsbzj60Wx_-KPjFy_pad-28"/><rect x="-762" y="-1000" width="1524" height="2000" rx="762" ry="762" id="WRyHOsbzj60Wx_-KPjFy_pad-29"/><circle cx="0" cy="0" r="300" id="WRyHOsbzj60Wx_-KPjFy_pad-30"/></defs><g transform="translate(0,17129.800000000003) scale(1,-1)" fill="currentColor" stroke="currentColor"><use xlink:href="#WRyHOsbzj60Wx_-KPjFy_pad-10" x="14277.8" y="-11201.6"/><use xlink:href="#WRyHOsbzj60Wx_-KPjFy_pad-10" x="14277.8" y="-12471.6"/><use xlink:href="#WRyHOsbzj60Wx_-KPjFy_pad-10" x="14277.8" y="-13741.6"/><use xlink:href="#WRyHOsbzj60Wx_-KPjFy_pad-10" x="14277.8" y="-15011.6"/><use xlink:href="#WRyHOsbzj60Wx_-KPjFy_pad-10" x="14277.8" y="-16281.6"/><use xlink:href="#WRyHOsbzj60Wx_-KPjFy_pad-10" x="14277.8" y="-17551.6"/><use xlink:href="#WRyHOsbzj60Wx_-KPjFy_pad-10" x="14277.8" y="-18821.6"/><use xlink:href="#WRyHOsbzj60Wx_-KPjFy_pad-10" x="14277.8" y="-20091.6"/><use xlink:href="#WRyHOsbzj60Wx_-KPjFy_pad-10" x="23607.8" y="-20091.6"/><use xlink:href="#WRyHOsbzj60Wx_-KPjFy_pad-10" x="23607.8" y="-18821.6"/><use xlink:href="#WRyHOsbzj60Wx_-KPjFy_pad-10" x="23607.8" y="-17551.6"/><use xlink:href="#WRyHOsbzj60Wx_-KPjFy_pad-10" x="23607.8" y="-16281.6"/><use xlink:href="#WRyHOsbzj60Wx_-KPjFy_pad-10" x="23607.8" y="-15011.6"/><use xlink:href="#WRyHOsbzj60Wx_-KPjFy_pad-10" x="23607.8" y="-13741.6"/><use xlink:href="#WRyHOsbzj60Wx_-KPjFy_pad-10" x="23607.8" y="-12471.6"/><use xlink:href="#WRyHOsbzj60Wx_-KPjFy_pad-10" x="23607.8" y="-11201.6"/><use xlink:href="#WRyHOsbzj60Wx_-KPjFy_pad-11" x="10442.8" y="-11446.6"/><use xlink:href="#WRyHOsbzj60Wx_-KPjFy_pad-11" x="10442.8" y="-12246.6"/><use xlink:href="#WRyHOsbzj60Wx_-KPjFy_pad-11" x="10442.8" y="-13046.6"/><use xlink:href="#WRyHOsbzj60Wx_-KPjFy_pad-11" x="10442.8" y="-16246.6"/><use xlink:href="#WRyHOsbzj60Wx_-KPjFy_pad-11" x="10442.8" y="-17046.6"/><use xlink:href="#WRyHOsbzj60Wx_-KPjFy_pad-11" x="10442.8" y="-17846.6"/><use xlink:href="#WRyHOsbzj60Wx_-KPjFy_pad-11" x="9642.8" y="-11446.6"/><use xlink:href="#WRyHOsbzj60Wx_-KPjFy_pad-11" x="9642.8" y="-12246.6"/><use xlink:href="#WRyHOsbzj60Wx_-KPjFy_pad-11" x="9642.8" y="-13046.6"/><use xlink:href="#WRyHOsbzj60Wx_-KPjFy_pad-11" x="9642.8" y="-16246.6"/><use xlink:href="#WRyHOsbzj60Wx_-KPjFy_pad-11" x="9642.8" y="-17046.6"/><use xlink:href="#WRyHOsbzj60Wx_-KPjFy_pad-11" x="9642.8" y="-17846.6"/><use xlink:href="#WRyHOsbzj60Wx_-KPjFy_pad-11" x="8842.8" y="-11446.6"/><use xlink:href="#WRyHOsbzj60Wx_-KPjFy_pad-11" x="8842.8" y="-12246.6"/><use xlink:href="#WRyHOsbzj60Wx_-KPjFy_pad-11" x="8842.8" y="-13046.6"/><use xlink:href="#WRyHOsbzj60Wx_-KPjFy_pad-11" x="8842.8" y="-16246.6"/><use xlink:href="#WRyHOsbzj60Wx_-KPjFy_pad-11" x="8842.8" y="-17046.6"/><use xlink:href="#WRyHOsbzj60Wx_-KPjFy_pad-11" x="8842.8" y="-17846.6"/><use xlink:href="#WRyHOsbzj60Wx_-KPjFy_pad-11" x="8042.8" y="-11446.6"/><use xlink:href="#WRyHOsbzj60Wx_-KPjFy_pad-11" x="8042.8" y="-12246.6"/><use xlink:href="#WRyHOsbzj60Wx_-KPjFy_pad-11" x="8042.8" y="-13046.6"/><use xlink:href="#WRyHOsbzj60Wx_-KPjFy_pad-11" x="8042.8" y="-16246.6"/><use xlink:href="#WRyHOsbzj60Wx_-KPjFy_pad-11" x="8042.8" y="-17046.6"/><use xlink:href="#WRyHOsbzj60Wx_-KPjFy_pad-11" x="8042.8" y="-17846.6"/><use xlink:href="#WRyHOsbzj60Wx_-KPjFy_pad-11" x="7242.8" y="-11446.6"/><use xlink:href="#WRyHOsbzj60Wx_-KPjFy_pad-11" x="7242.8" y="-12246.6"/><use xlink:href="#WRyHOsbzj60Wx_-KPjFy_pad-11" x="7242.8" y="-13046.6"/><use xlink:href="#WRyHOsbzj60Wx_-KPjFy_pad-11" x="7242.8" y="-16246.6"/><use xlink:href="#WRyHOsbzj60Wx_-KPjFy_pad-11" x="7242.8" y="-17046.6"/><use xlink:href="#WRyHOsbzj60Wx_-KPjFy_pad-11" x="7242.8" y="-17846.6"/><use xlink:href="#WRyHOsbzj60Wx_-KPjFy_pad-11" x="6442.8" y="-11446.6"/><use xlink:href="#WRyHOsbzj60Wx_-KPjFy_pad-11" x="6442.8" y="-12246.6"/><use xlink:href="#WRyHOsbzj60Wx_-KPjFy_pad-11" x="6442.8" y="-13046.6"/><use xlink:href="#WRyHOsbzj60Wx_-KPjFy_pad-11" x="6442.8" y="-16246.6"/><use xlink:href="#WRyHOsbzj60Wx_-KPjFy_pad-11" x="6442.8" y="-17046.6"/><use xlink:href="#WRyHOsbzj60Wx_-KPjFy_pad-11" x="6442.8" y="-17846.6"/><use xlink:href="#WRyHOsbzj60Wx_-KPjFy_pad-11" x="5642.8" y="-11446.6"/><use xlink:href="#WRyHOsbzj60Wx_-KPjFy_pad-11" x="5642.8" y="-12246.6"/><use xlink:href="#WRyHOsbzj60Wx_-KPjFy_pad-11" x="5642.8" y="-13046.6"/><use xlink:href="#WRyHOsbzj60Wx_-KPjFy_pad-11" x="5642.8" y="-16246.6"/><use xlink:href="#WRyHOsbzj60Wx_-KPjFy_pad-11" x="5642.8" y="-17046.6"/><use xlink:href="#WRyHOsbzj60Wx_-KPjFy_pad-11" x="5642.8" y="-17846.6"/><use xlink:href="#WRyHOsbzj60Wx_-KPjFy_pad-11" x="4842.8" y="-11446.6"/><use xlink:href="#WRyHOsbzj60Wx_-KPjFy_pad-11" x="4842.8" y="-12246.6"/><use xlink:href="#WRyHOsbzj60Wx_-KPjFy_pad-11" x="4842.8" y="-13046.6"/><use xlink:href="#WRyHOsbzj60Wx_-KPjFy_pad-11" x="4842.8" y="-16246.6"/><use xlink:href="#WRyHOsbzj60Wx_-KPjFy_pad-11" x="4842.8" y="-17046.6"/><use xlink:href="#WRyHOsbzj60Wx_-KPjFy_pad-11" x="4842.8" y="-17846.6"/><use xlink:href="#WRyHOsbzj60Wx_-KPjFy_pad-11" x="4042.8" y="-11446.6"/><use xlink:href="#WRyHOsbzj60Wx_-KPjFy_pad-11" x="4042.8" y="-12246.6"/><use xlink:href="#WRyHOsbzj60Wx_-KPjFy_pad-11" x="4042.8" y="-13046.6"/><use xlink:href="#WRyHOsbzj60Wx_-KPjFy_pad-11" x="4042.8" y="-16246.6"/><use xlink:href="#WRyHOsbzj60Wx_-KPjFy_pad-11" x="4042.8" y="-17046.6"/><use xlink:href="#WRyHOsbzj60Wx_-KPjFy_pad-11" x="4042.8" y="-17846.6"/><use xlink:href="#WRyHOsbzj60Wx_-KPjFy_pad-11" x="3242.8" y="-11446.6"/><use xlink:href="#WRyHOsbzj60Wx_-KPjFy_pad-11" x="3242.8" y="-12246.6"/><use xlink:href="#WRyHOsbzj60Wx_-KPjFy_pad-11" x="3242.8" y="-13046.6"/><use xlink:href="#WRyHOsbzj60Wx_-KPjFy_pad-11" x="3242.8" y="-16246.6"/><use xlink:href="#WRyHOsbzj60Wx_-KPjFy_pad-11" x="3242.8" y="-17046.6"/><use xlink:href="#WRyHOsbzj60Wx_-KPjFy_pad-11" x="3242.8" y="-17846.6"/><use xlink:href="#WRyHOsbzj60Wx_-KPjFy_pad-11" x="2442.8" y="-11446.6"/><use xlink:href="#WRyHOsbzj60Wx_-KPjFy_pad-11" x="2442.8" y="-12246.6"/><use xlink:href="#WRyHOsbzj60Wx_-KPjFy_pad-11" x="2442.8" y="-13046.6"/><use xlink:href="#WRyHOsbzj60Wx_-KPjFy_pad-11" x="2442.8" y="-16246.6"/><use xlink:href="#WRyHOsbzj60Wx_-KPjFy_pad-11" x="2442.8" y="-17046.6"/><use xlink:href="#WRyHOsbzj60Wx_-KPjFy_pad-11" x="2442.8" y="-17846.6"/><use xlink:href="#WRyHOsbzj60Wx_-KPjFy_pad-11" x="1642.8" y="-11446.6"/><use xlink:href="#WRyHOsbzj60Wx_-KPjFy_pad-11" x="1642.8" y="-12246.6"/><use xlink:href="#WRyHOsbzj60Wx_-KPjFy_pad-11" x="1642.8" y="-13046.6"/><use xlink:href="#WRyHOsbzj60Wx_-KPjFy_pad-11" x="1642.8" y="-16246.6"/><use xlink:href="#WRyHOsbzj60Wx_-KPjFy_pad-11" x="1642.8" y="-17046.6"/><use xlink:href="#WRyHOsbzj60Wx_-KPjFy_pad-11" x="1642.8" y="-17846.6"/><use xlink:href="#WRyHOsbzj60Wx_-KPjFy_pad-11" x="842.8" y="-11446.6"/><use xlink:href="#WRyHOsbzj60Wx_-KPjFy_pad-11" x="842.8" y="-12246.6"/><use xlink:href="#WRyHOsbzj60Wx_-KPjFy_pad-11" x="842.8" y="-13046.6"/><use xlink:href="#WRyHOsbzj60Wx_-KPjFy_pad-11" x="842.8" y="-16246.6"/><use xlink:href="#WRyHOsbzj60Wx_-KPjFy_pad-11" x="842.8" y="-17046.6"/><use xlink:href="#WRyHOsbzj60Wx_-KPjFy_pad-11" x="842.8" y="-17846.6"/><use xlink:href="#WRyHOsbzj60Wx_-KPjFy_pad-11" x="42.8" y="-11446.6"/><use xlink:href="#WRyHOsbzj60Wx_-KPjFy_pad-11" x="42.8" y="-12246.6"/><use xlink:href="#WRyHOsbzj60Wx_-KPjFy_pad-11" x="42.8" y="-13046.6"/><use xlink:href="#WRyHOsbzj60Wx_-KPjFy_pad-11" x="42.8" y="-16246.6"/><use xlink:href="#WRyHOsbzj60Wx_-KPjFy_pad-11" x="42.8" y="-17046.6"/><use xlink:href="#WRyHOsbzj60Wx_-KPjFy_pad-11" x="42.8" y="-17846.6"/><use xlink:href="#WRyHOsbzj60Wx_-KPjFy_pad-11" x="-757.2" y="-11446.6"/><use xlink:href="#WRyHOsbzj60Wx_-KPjFy_pad-11" x="-757.2" y="-12246.6"/><use xlink:href="#WRyHOsbzj60Wx_-KPjFy_pad-11" x="-757.2" y="-13046.6"/><use xlink:href="#WRyHOsbzj60Wx_-KPjFy_pad-11" x="-757.2" y="-16246.6"/><use xlink:href="#WRyHOsbzj60Wx_-KPjFy_pad-11" x="-757.2" y="-17046.6"/><use xlink:href="#WRyHOsbzj60Wx_-KPjFy_pad-11" x="-757.2" y="-17846.6"/><use xlink:href="#WRyHOsbzj60Wx_-KPjFy_pad-11" x="-1557.2" y="-11446.6"/><use xlink:href="#WRyHOsbzj60Wx_-KPjFy_pad-11" x="-1557.2" y="-12246.6"/><use xlink:href="#WRyHOsbzj60Wx_-KPjFy_pad-11" x="-1557.2" y="-13046.6"/><use xlink:href="#WRyHOsbzj60Wx_-KPjFy_pad-11" x="-1557.2" y="-16246.6"/><use xlink:href="#WRyHOsbzj60Wx_-KPjFy_pad-11" x="-1557.2" y="-17046.6"/><use xlink:href="#WRyHOsbzj60Wx_-KPjFy_pad-11" x="-1557.2" y="-17846.6"/><use xlink:href="#WRyHOsbzj60Wx_-KPjFy_pad-12" x="75462.8" y="4823.4"/><use xlink:href="#WRyHOsbzj60Wx_-KPjFy_pad-12" x="75462.8" y="11023.4"/><use xlink:href="#WRyHOsbzj60Wx_-KPjFy_pad-12" x="79162.8" y="4823.4"/><use xlink:href="#WRyHOsbzj60Wx_-KPjFy_pad-12" x="79162.8" y="11023.4"/><use xlink:href="#WRyHOsbzj60Wx_-KPjFy_pad-12" x="41189.8" y="11023.4"/><use xlink:href="#WRyHOsbzj60Wx_-KPjFy_pad-12" x="41189.8" y="4823.4"/><use xlink:href="#WRyHOsbzj60Wx_-KPjFy_pad-12" x="37489.8" y="11023.4"/><use xlink:href="#WRyHOsbzj60Wx_-KPjFy_pad-12" x="37489.8" y="4823.4"/><use xlink:href="#WRyHOsbzj60Wx_-KPjFy_pad-13" x="52928.8" y="-7316.6"/><use xlink:href="#WRyHOsbzj60Wx_-KPjFy_pad-13" x="52928.8" y="303.4"/><use xlink:href="#WRyHOsbzj60Wx_-KPjFy_pad-12" x="43712.8" y="13713.4"/><use xlink:href="#WRyHOsbzj60Wx_-KPjFy_pad-12" x="43712.8" y="19913.4"/><use xlink:href="#WRyHOsbzj60Wx_-KPjFy_pad-12" x="47412.8" y="13713.4"/><use xlink:href="#WRyHOsbzj60Wx_-KPjFy_pad-12" x="47412.8" y="19913.4"/><use xlink:href="#WRyHOsbzj60Wx_-KPjFy_pad-14" x="95106.4" y="-4602.406"/><use xlink:href="#WRyHOsbzj60Wx_-KPjFy_pad-14" x="95106.4" y="-7142.406"/><use xlink:href="#WRyHOsbzj60Wx_-KPjFy_pad-14" x="95106.4" y="-9682.406"/><use xlink:href="#WRyHOsbzj60Wx_-KPjFy_pad-14" x="95106.4" y="-3332.406"/><use xlink:href="#WRyHOsbzj60Wx_-KPjFy_pad-14" x="95106.4" y="-5872.406"/><use xlink:href="#WRyHOsbzj60Wx_-KPjFy_pad-14" x="95106.4" y="-8412.406"/><use xlink:href="#WRyHOsbzj60Wx_-KPjFy_pad-15" x="97276.4" y="-13627.406"/><use xlink:href="#WRyHOsbzj60Wx_-KPjFy_pad-15" x="99276.4" y="-13627.406"/><use xlink:href="#WRyHOsbzj60Wx_-KPjFy_pad-16" x="108836.4" y="-13462.406"/><use xlink:href="#WRyHOsbzj60Wx_-KPjFy_pad-17" x="108256.4" y="-9892.406"/><use xlink:href="#WRyHOsbzj60Wx_-KPjFy_pad-17" x="108256.4" y="-4812.406"/><use xlink:href="#WRyHOsbzj60Wx_-KPjFy_pad-16" x="108836.4" y="-1252.406"/><use xlink:href="#WRyHOsbzj60Wx_-KPjFy_pad-15" x="97276.4" y="-1087.406"/><use xlink:href="#WRyHOsbzj60Wx_-KPjFy_pad-15" x="99276.4" y="-1087.406"/><use xlink:href="#WRyHOsbzj60Wx_-KPjFy_pad-12" x="43712.8" y="4823.4"/><use xlink:href="#WRyHOsbzj60Wx_-KPjFy_pad-12" x="43712.8" y="11023.4"/><use xlink:href="#WRyHOsbzj60Wx_-KPjFy_pad-12" x="47412.8" y="4823.4"/><use xlink:href="#WRyHOsbzj60Wx_-KPjFy_pad-12" x="47412.8" y="11023.4"/><use xlink:href="#WRyHOsbzj60Wx_-KPjFy_pad-13" x="37942.8" y="15543.4"/><use xlink:href="#WRyHOsbzj60Wx_-KPjFy_pad-13" x="37942.8" y="23163.4"/><use xlink:href="#WRyHOsbzj60Wx_-KPjFy_pad-12" x="81812.8" y="4823.4"/><use xlink:href="#WRyHOsbzj60Wx_-KPjFy_pad-12" x="81812.8" y="11023.4"/><use xlink:href="#WRyHOsbzj60Wx_-KPjFy_pad-12" x="85512.8" y="4823.4"/><use xlink:href="#WRyHOsbzj60Wx_-KPjFy_pad-12" x="85512.8" y="11023.4"/><use xlink:href="#WRyHOsbzj60Wx_-KPjFy_pad-18" x="101553.1" y="22203.1"/><use xlink:href="#WRyHOsbzj60Wx_-KPjFy_pad-19" x="101553.1" y="24743.1"/><use xlink:href="#WRyHOsbzj60Wx_-KPjFy_pad-20" x="107359.7" y="7050.9"/><use xlink:href="#WRyHOsbzj60Wx_-KPjFy_pad-20" x="107359.7" y="1970.9"/><use xlink:href="#WRyHOsbzj60Wx_-KPjFy_pad-21" x="99739.7" y="7050.9"/><use xlink:href="#WRyHOsbzj60Wx_-KPjFy_pad-20" x="99739.7" y="4510.9"/><use xlink:href="#WRyHOsbzj60Wx_-KPjFy_pad-20" x="99739.7" y="1970.9"/><use xlink:href="#WRyHOsbzj60Wx_-KPjFy_pad-20" x="102279.7" y="7050.9"/><use xlink:href="#WRyHOsbzj60Wx_-KPjFy_pad-20" x="102279.7" y="4510.9"/><use xlink:href="#WRyHOsbzj60Wx_-KPjFy_pad-20" x="102279.7" y="1970.9"/><use xlink:href="#WRyHOsbzj60Wx_-KPjFy_pad-22" x="105273.1" y="10028.1"/><use xlink:href="#WRyHOsbzj60Wx_-KPjFy_pad-22" x="105273.1" y="16838.1"/><use xlink:href="#WRyHOsbzj60Wx_-KPjFy_pad-23" x="105373.1" y="16258.1"/><use xlink:href="#WRyHOsbzj60Wx_-KPjFy_pad-24" x="105373.1" y="15683.1"/><use xlink:href="#WRyHOsbzj60Wx_-KPjFy_pad-24" x="105373.1" y="15183.1"/><use xlink:href="#WRyHOsbzj60Wx_-KPjFy_pad-24" x="105373.1" y="14683.1"/><use xlink:href="#WRyHOsbzj60Wx_-KPjFy_pad-24" x="105373.1" y="14183.1"/><use xlink:href="#WRyHOsbzj60Wx_-KPjFy_pad-24" x="105373.1" y="13683.1"/><use xlink:href="#WRyHOsbzj60Wx_-KPjFy_pad-24" x="105373.1" y="13183.1"/><use xlink:href="#WRyHOsbzj60Wx_-KPjFy_pad-24" x="105373.1" y="12683.1"/><use xlink:href="#WRyHOsbzj60Wx_-KPjFy_pad-24" x="105373.1" y="12183.1"/><use xlink:href="#WRyHOsbzj60Wx_-KPjFy_pad-24" x="105373.1" y="11683.1"/><use xlink:href="#WRyHOsbzj60Wx_-KPjFy_pad-24" x="105373.1" y="11183.1"/><use xlink:href="#WRyHOsbzj60Wx_-KPjFy_pad-23" x="105373.1" y="10608.1"/><use xlink:href="#WRyHOsbzj60Wx_-KPjFy_pad-12" x="62762.8" y="4823.4"/><use xlink:href="#WRyHOsbzj60Wx_-KPjFy_pad-12" x="62762.8" y="11023.4"/><use xlink:href="#WRyHOsbzj60Wx_-KPjFy_pad-12" x="66462.8" y="4823.4"/><use xlink:href="#WRyHOsbzj60Wx_-KPjFy_pad-12" x="66462.8" y="11023.4"/><use xlink:href="#WRyHOsbzj60Wx_-KPjFy_pad-25" x="-207.2" y="27003.4"/><use xlink:href="#WRyHOsbzj60Wx_-KPjFy_pad-25" x="1092.8" y="27003.4"/><use xlink:href="#WRyHOsbzj60Wx_-KPjFy_pad-25" x="2392.8" y="27003.4"/><use xlink:href="#WRyHOsbzj60Wx_-KPjFy_pad-25" x="3042.8" y="27003.4"/><use xlink:href="#WRyHOsbzj60Wx_-KPjFy_pad-25" x="4342.8" y="27003.4"/><use xlink:href="#WRyHOsbzj60Wx_-KPjFy_pad-25" x="4992.8" y="27003.4"/><use xlink:href="#WRyHOsbzj60Wx_-KPjFy_pad-25" x="5642.8" y="27003.4"/><use xlink:href="#WRyHOsbzj60Wx_-KPjFy_pad-25" x="6942.8" y="27003.4"/><use xlink:href="#WRyHOsbzj60Wx_-KPjFy_pad-25" x="7592.8" y="27003.4"/><use xlink:href="#WRyHOsbzj60Wx_-KPjFy_pad-25" x="8242.8" y="27003.4"/><use xlink:href="#WRyHOsbzj60Wx_-KPjFy_pad-25" x="9542.8" y="27003.4"/><use xlink:href="#WRyHOsbzj60Wx_-KPjFy_pad-25" x="10192.8" y="27003.4"/><use xlink:href="#WRyHOsbzj60Wx_-KPjFy_pad-25" x="10842.8" y="27003.4"/><use xlink:href="#WRyHOsbzj60Wx_-KPjFy_pad-25" x="11492.8" y="27003.4"/><use xlink:href="#WRyHOsbzj60Wx_-KPjFy_pad-25" x="12142.8" y="27003.4"/><use xlink:href="#WRyHOsbzj60Wx_-KPjFy_pad-25" x="12792.8" y="27003.4"/><use xlink:href="#WRyHOsbzj60Wx_-KPjFy_pad-25" x="13442.8" y="27003.4"/><use xlink:href="#WRyHOsbzj60Wx_-KPjFy_pad-25" x="14092.8" y="27003.4"/><use xlink:href="#WRyHOsbzj60Wx_-KPjFy_pad-25" x="-207.2" y="14003.4"/><use xlink:href="#WRyHOsbzj60Wx_-KPjFy_pad-25" x="442.8" y="14003.4"/><use xlink:href="#WRyHOsbzj60Wx_-KPjFy_pad-25" x="1092.8" y="14003.4"/><use xlink:href="#WRyHOsbzj60Wx_-KPjFy_pad-25" x="1742.8" y="14003.4"/><use xlink:href="#WRyHOsbzj60Wx_-KPjFy_pad-25" x="2392.8" y="14003.4"/><use xlink:href="#WRyHOsbzj60Wx_-KPjFy_pad-25" x="3692.8" y="14003.4"/><use xlink:href="#WRyHOsbzj60Wx_-KPjFy_pad-25" x="4342.8" y="14003.4"/><use xlink:href="#WRyHOsbzj60Wx_-KPjFy_pad-25" x="5642.8" y="14003.4"/><use xlink:href="#WRyHOsbzj60Wx_-KPjFy_pad-25" x="6292.8" y="14003.4"/><use xlink:href="#WRyHOsbzj60Wx_-KPjFy_pad-25" x="7592.8" y="14003.4"/><use xlink:href="#WRyHOsbzj60Wx_-KPjFy_pad-25" x="8242.8" y="14003.4"/><use xlink:href="#WRyHOsbzj60Wx_-KPjFy_pad-25" x="8892.8" y="14003.4"/><use xlink:href="#WRyHOsbzj60Wx_-KPjFy_pad-25" x="9542.8" y="14003.4"/><use xlink:href="#WRyHOsbzj60Wx_-KPjFy_pad-25" x="10192.8" y="14003.4"/><use xlink:href="#WRyHOsbzj60Wx_-KPjFy_pad-25" x="11492.8" y="14003.4"/><use xlink:href="#WRyHOsbzj60Wx_-KPjFy_pad-25" x="12142.8" y="14003.4"/><use xlink:href="#WRyHOsbzj60Wx_-KPjFy_pad-25" x="12792.8" y="14003.4"/><use xlink:href="#WRyHOsbzj60Wx_-KPjFy_pad-25" x="13442.8" y="14003.4"/><use xlink:href="#WRyHOsbzj60Wx_-KPjFy_pad-25" x="14092.8" y="14003.4"/><use xlink:href="#WRyHOsbzj60Wx_-KPjFy_pad-25" x="-207.2" y="13353.4"/><use xlink:href="#WRyHOsbzj60Wx_-KPjFy_pad-25" x="442.8" y="13353.4"/><use xlink:href="#WRyHOsbzj60Wx_-KPjFy_pad-25" x="1092.8" y="13353.4"/><use xlink:href="#WRyHOsbzj60Wx_-KPjFy_pad-25" x="1742.8" y="13353.4"/><use xlink:href="#WRyHOsbzj60Wx_-KPjFy_pad-25" x="2392.8" y="13353.4"/><use xlink:href="#WRyHOsbzj60Wx_-KPjFy_pad-25" x="3042.8" y="13353.4"/><use xlink:href="#WRyHOsbzj60Wx_-KPjFy_pad-25" x="3692.8" y="13353.4"/><use xlink:href="#WRyHOsbzj60Wx_-KPjFy_pad-25" x="4342.8" y="13353.4"/><use xlink:href="#WRyHOsbzj60Wx_-KPjFy_pad-25" x="4992.8" y="13353.4"/><use xlink:href="#WRyHOsbzj60Wx_-KPjFy_pad-25" x="5642.8" y="13353.4"/><use xlink:href="#WRyHOsbzj60Wx_-KPjFy_pad-25" x="6292.8" y="13353.4"/><use xlink:href="#WRyHOsbzj60Wx_-KPjFy_pad-25" x="6942.8" y="13353.4"/><use xlink:href="#WRyHOsbzj60Wx_-KPjFy_pad-25" x="7592.8" y="13353.4"/><use xlink:href="#WRyHOsbzj60Wx_-KPjFy_pad-25" x="8242.8" y="13353.4"/><use xlink:href="#WRyHOsbzj60Wx_-KPjFy_pad-25" x="8892.8" y="13353.4"/><use xlink:href="#WRyHOsbzj60Wx_-KPjFy_pad-25" x="9542.8" y="13353.4"/><use xlink:href="#WRyHOsbzj60Wx_-KPjFy_pad-25" x="10192.8" y="13353.4"/><use xlink:href="#WRyHOsbzj60Wx_-KPjFy_pad-25" x="10842.8" y="13353.4"/><use xlink:href="#WRyHOsbzj60Wx_-KPjFy_pad-25" x="11492.8" y="13353.4"/><use xlink:href="#WRyHOsbzj60Wx_-KPjFy_pad-25" x="12142.8" y="13353.4"/><use xlink:href="#WRyHOsbzj60Wx_-KPjFy_pad-25" x="12792.8" y="13353.4"/><use xlink:href="#WRyHOsbzj60Wx_-KPjFy_pad-25" x="13442.8" y="13353.4"/><use xlink:href="#WRyHOsbzj60Wx_-KPjFy_pad-25" x="14092.8" y="13353.4"/><use xlink:href="#WRyHOsbzj60Wx_-KPjFy_pad-25" x="-207.2" y="12703.4"/><use xlink:href="#WRyHOsbzj60Wx_-KPjFy_pad-25" x="442.8" y="12703.4"/><use xlink:href="#WRyHOsbzj60Wx_-KPjFy_pad-25" x="1092.8" y="12703.4"/><use xlink:href="#WRyHOsbzj60Wx_-KPjFy_pad-25" x="1742.8" y="12703.4"/><use xlink:href="#WRyHOsbzj60Wx_-KPjFy_pad-25" x="2392.8" y="12703.4"/><use xlink:href="#WRyHOsbzj60Wx_-KPjFy_pad-25" x="3042.8" y="12703.4"/><use xlink:href="#WRyHOsbzj60Wx_-KPjFy_pad-25" x="3692.8" y="12703.4"/><use xlink:href="#WRyHOsbzj60Wx_-KPjFy_pad-25" x="4342.8" y="12703.4"/><use xlink:href="#WRyHOsbzj60Wx_-KPjFy_pad-25" x="4992.8" y="12703.4"/><use xlink:href="#WRyHOsbzj60Wx_-KPjFy_pad-25" x="5642.8" y="12703.4"/><use xlink:href="#WRyHOsbzj60Wx_-KPjFy_pad-25" x="6292.8" y="12703.4"/><use xlink:href="#WRyHOsbzj60Wx_-KPjFy_pad-25" x="6942.8" y="12703.4"/><use xlink:href="#WRyHOsbzj60Wx_-KPjFy_pad-25" x="7592.8" y="12703.4"/><use xlink:href="#WRyHOsbzj60Wx_-KPjFy_pad-25" x="8242.8" y="12703.4"/><use xlink:href="#WRyHOsbzj60Wx_-KPjFy_pad-25" x="8892.8" y="12703.4"/><use xlink:href="#WRyHOsbzj60Wx_-KPjFy_pad-25" x="9542.8" y="12703.4"/><use xlink:href="#WRyHOsbzj60Wx_-KPjFy_pad-25" x="10192.8" y="12703.4"/><use xlink:href="#WRyHOsbzj60Wx_-KPjFy_pad-25" x="10842.8" y="12703.4"/><use xlink:href="#WRyHOsbzj60Wx_-KPjFy_pad-25" x="11492.8" y="12703.4"/><use xlink:href="#WRyHOsbzj60Wx_-KPjFy_pad-25" x="12142.8" y="12703.4"/><use xlink:href="#WRyHOsbzj60Wx_-KPjFy_pad-25" x="12792.8" y="12703.4"/><use xlink:href="#WRyHOsbzj60Wx_-KPjFy_pad-25" x="13442.8" y="12703.4"/><use xlink:href="#WRyHOsbzj60Wx_-KPjFy_pad-25" x="14092.8" y="12703.4"/><use xlink:href="#WRyHOsbzj60Wx_-KPjFy_pad-25" x="-207.2" y="26353.4"/><use xlink:href="#WRyHOsbzj60Wx_-KPjFy_pad-25" x="442.8" y="26353.4"/><use xlink:href="#WRyHOsbzj60Wx_-KPjFy_pad-25" x="1092.8" y="26353.4"/><use xlink:href="#WRyHOsbzj60Wx_-KPjFy_pad-25" x="1742.8" y="26353.4"/><use xlink:href="#WRyHOsbzj60Wx_-KPjFy_pad-25" x="2392.8" y="26353.4"/><use xlink:href="#WRyHOsbzj60Wx_-KPjFy_pad-25" x="3042.8" y="26353.4"/><use xlink:href="#WRyHOsbzj60Wx_-KPjFy_pad-25" x="3692.8" y="26353.4"/><use xlink:href="#WRyHOsbzj60Wx_-KPjFy_pad-25" x="4342.8" y="26353.4"/><use xlink:href="#WRyHOsbzj60Wx_-KPjFy_pad-25" x="4992.8" y="26353.4"/><use xlink:href="#WRyHOsbzj60Wx_-KPjFy_pad-25" x="5642.8" y="26353.4"/><use xlink:href="#WRyHOsbzj60Wx_-KPjFy_pad-25" x="6942.8" y="26353.4"/><use xlink:href="#WRyHOsbzj60Wx_-KPjFy_pad-25" x="7592.8" y="26353.4"/><use xlink:href="#WRyHOsbzj60Wx_-KPjFy_pad-25" x="8242.8" y="26353.4"/><use xlink:href="#WRyHOsbzj60Wx_-KPjFy_pad-25" x="8892.8" y="26353.4"/><use xlink:href="#WRyHOsbzj60Wx_-KPjFy_pad-25" x="9542.8" y="26353.4"/><use xlink:href="#WRyHOsbzj60Wx_-KPjFy_pad-25" x="10192.8" y="26353.4"/><use xlink:href="#WRyHOsbzj60Wx_-KPjFy_pad-25" x="10842.8" y="26353.4"/><use xlink:href="#WRyHOsbzj60Wx_-KPjFy_pad-25" x="11492.8" y="26353.4"/><use xlink:href="#WRyHOsbzj60Wx_-KPjFy_pad-25" x="12142.8" y="26353.4"/><use xlink:href="#WRyHOsbzj60Wx_-KPjFy_pad-25" x="12792.8" y="26353.4"/><use xlink:href="#WRyHOsbzj60Wx_-KPjFy_pad-25" x="13442.8" y="26353.4"/><use xlink:href="#WRyHOsbzj60Wx_-KPjFy_pad-25" x="14092.8" y="26353.4"/><use xlink:href="#WRyHOsbzj60Wx_-KPjFy_pad-25" x="-207.2" y="25703.4"/><use xlink:href="#WRyHOsbzj60Wx_-KPjFy_pad-25" x="442.8" y="25703.4"/><use xlink:href="#WRyHOsbzj60Wx_-KPjFy_pad-25" x="1092.8" y="25703.4"/><use xlink:href="#WRyHOsbzj60Wx_-KPjFy_pad-25" x="1742.8" y="25703.4"/><use xlink:href="#WRyHOsbzj60Wx_-KPjFy_pad-25" x="2392.8" y="25703.4"/><use xlink:href="#WRyHOsbzj60Wx_-KPjFy_pad-25" x="3692.8" y="25703.4"/><use xlink:href="#WRyHOsbzj60Wx_-KPjFy_pad-25" x="4342.8" y="25703.4"/><use xlink:href="#WRyHOsbzj60Wx_-KPjFy_pad-25" x="4992.8" y="25703.4"/><use xlink:href="#WRyHOsbzj60Wx_-KPjFy_pad-25" x="6942.8" y="25703.4"/><use xlink:href="#WRyHOsbzj60Wx_-KPjFy_pad-25" x="7592.8" y="25703.4"/><use xlink:href="#WRyHOsbzj60Wx_-KPjFy_pad-25" x="8242.8" y="25703.4"/><use xlink:href="#WRyHOsbzj60Wx_-KPjFy_pad-25" x="8892.8" y="25703.4"/><use xlink:href="#WRyHOsbzj60Wx_-KPjFy_pad-25" x="9542.8" y="25703.4"/><use xlink:href="#WRyHOsbzj60Wx_-KPjFy_pad-25" x="10842.8" y="25703.4"/><use xlink:href="#WRyHOsbzj60Wx_-KPjFy_pad-25" x="11492.8" y="25703.4"/><use xlink:href="#WRyHOsbzj60Wx_-KPjFy_pad-25" x="12142.8" y="25703.4"/><use xlink:href="#WRyHOsbzj60Wx_-KPjFy_pad-25" x="13442.8" y="25703.4"/><use xlink:href="#WRyHOsbzj60Wx_-KPjFy_pad-25" x="14092.8" y="25703.4"/><use xlink:href="#WRyHOsbzj60Wx_-KPjFy_pad-25" x="-207.2" y="25053.4"/><use xlink:href="#WRyHOsbzj60Wx_-KPjFy_pad-25" x="442.8" y="25053.4"/><use xlink:href="#WRyHOsbzj60Wx_-KPjFy_pad-25" x="1092.8" y="25053.4"/><use xlink:href="#WRyHOsbzj60Wx_-KPjFy_pad-25" x="1742.8" y="25053.4"/><use xlink:href="#WRyHOsbzj60Wx_-KPjFy_pad-25" x="2392.8" y="25053.4"/><use xlink:href="#WRyHOsbzj60Wx_-KPjFy_pad-25" x="4992.8" y="25053.4"/><use xlink:href="#WRyHOsbzj60Wx_-KPjFy_pad-25" x="6292.8" y="25053.4"/><use xlink:href="#WRyHOsbzj60Wx_-KPjFy_pad-25" x="6942.8" y="25053.4"/><use xlink:href="#WRyHOsbzj60Wx_-KPjFy_pad-25" x="8892.8" y="25053.4"/><use xlink:href="#WRyHOsbzj60Wx_-KPjFy_pad-25" x="9542.8" y="25053.4"/><use xlink:href="#WRyHOsbzj60Wx_-KPjFy_pad-25" x="10842.8" y="25053.4"/><use xlink:href="#WRyHOsbzj60Wx_-KPjFy_pad-25" x="11492.8" y="25053.4"/><use xlink:href="#WRyHOsbzj60Wx_-KPjFy_pad-25" x="12142.8" y="25053.4"/><use xlink:href="#WRyHOsbzj60Wx_-KPjFy_pad-25" x="12792.8" y="25053.4"/><use xlink:href="#WRyHOsbzj60Wx_-KPjFy_pad-25" x="13442.8" y="25053.4"/><use xlink:href="#WRyHOsbzj60Wx_-KPjFy_pad-25" x="14092.8" y="25053.4"/><use xlink:href="#WRyHOsbzj60Wx_-KPjFy_pad-25" x="-207.2" y="24403.4"/><use xlink:href="#WRyHOsbzj60Wx_-KPjFy_pad-25" x="442.8" y="24403.4"/><use xlink:href="#WRyHOsbzj60Wx_-KPjFy_pad-25" x="1092.8" y="24403.4"/><use xlink:href="#WRyHOsbzj60Wx_-KPjFy_pad-25" x="1742.8" y="24403.4"/><use xlink:href="#WRyHOsbzj60Wx_-KPjFy_pad-25" x="2392.8" y="24403.4"/><use xlink:href="#WRyHOsbzj60Wx_-KPjFy_pad-25" x="3042.8" y="24403.4"/><use xlink:href="#WRyHOsbzj60Wx_-KPjFy_pad-25" x="3692.8" y="24403.4"/><use xlink:href="#WRyHOsbzj60Wx_-KPjFy_pad-25" x="4342.8" y="24403.4"/><use xlink:href="#WRyHOsbzj60Wx_-KPjFy_pad-25" x="4992.8" y="24403.4"/><use xlink:href="#WRyHOsbzj60Wx_-KPjFy_pad-25" x="5642.8" y="24403.4"/><use xlink:href="#WRyHOsbzj60Wx_-KPjFy_pad-25" x="6292.8" y="24403.4"/><use xlink:href="#WRyHOsbzj60Wx_-KPjFy_pad-25" x="6942.8" y="24403.4"/><use xlink:href="#WRyHOsbzj60Wx_-KPjFy_pad-25" x="7592.8" y="24403.4"/><use xlink:href="#WRyHOsbzj60Wx_-KPjFy_pad-25" x="8242.8" y="24403.4"/><use xlink:href="#WRyHOsbzj60Wx_-KPjFy_pad-25" x="8892.8" y="24403.4"/><use xlink:href="#WRyHOsbzj60Wx_-KPjFy_pad-25" x="9542.8" y="24403.4"/><use xlink:href="#WRyHOsbzj60Wx_-KPjFy_pad-25" x="10192.8" y="24403.4"/><use xlink:href="#WRyHOsbzj60Wx_-KPjFy_pad-25" x="10842.8" y="24403.4"/><use xlink:href="#WRyHOsbzj60Wx_-KPjFy_pad-25" x="11492.8" y="24403.4"/><use xlink:href="#WRyHOsbzj60Wx_-KPjFy_pad-25" x="12792.8" y="24403.4"/><use xlink:href="#WRyHOsbzj60Wx_-KPjFy_pad-25" x="13442.8" y="24403.4"/><use xlink:href="#WRyHOsbzj60Wx_-KPjFy_pad-25" x="-207.2" y="23753.4"/><use xlink:href="#WRyHOsbzj60Wx_-KPjFy_pad-25" x="442.8" y="23753.4"/><use xlink:href="#WRyHOsbzj60Wx_-KPjFy_pad-25" x="1092.8" y="23753.4"/><use xlink:href="#WRyHOsbzj60Wx_-KPjFy_pad-25" x="2392.8" y="23753.4"/><use xlink:href="#WRyHOsbzj60Wx_-KPjFy_pad-25" x="3692.8" y="23753.4"/><use xlink:href="#WRyHOsbzj60Wx_-KPjFy_pad-25" x="4342.8" y="23753.4"/><use xlink:href="#WRyHOsbzj60Wx_-KPjFy_pad-25" x="4992.8" y="23753.4"/><use xlink:href="#WRyHOsbzj60Wx_-KPjFy_pad-25" x="6292.8" y="23753.4"/><use xlink:href="#WRyHOsbzj60Wx_-KPjFy_pad-25" x="6942.8" y="23753.4"/><use xlink:href="#WRyHOsbzj60Wx_-KPjFy_pad-25" x="7592.8" y="23753.4"/><use xlink:href="#WRyHOsbzj60Wx_-KPjFy_pad-25" x="8242.8" y="23753.4"/><use xlink:href="#WRyHOsbzj60Wx_-KPjFy_pad-25" x="8892.8" y="23753.4"/><use xlink:href="#WRyHOsbzj60Wx_-KPjFy_pad-25" x="9542.8" y="23753.4"/><use xlink:href="#WRyHOsbzj60Wx_-KPjFy_pad-25" x="10192.8" y="23753.4"/><use xlink:href="#WRyHOsbzj60Wx_-KPjFy_pad-25" x="11492.8" y="23753.4"/><use xlink:href="#WRyHOsbzj60Wx_-KPjFy_pad-25" x="12142.8" y="23753.4"/><use xlink:href="#WRyHOsbzj60Wx_-KPjFy_pad-25" x="12792.8" y="23753.4"/><use xlink:href="#WRyHOsbzj60Wx_-KPjFy_pad-25" x="13442.8" y="23753.4"/><use xlink:href="#WRyHOsbzj60Wx_-KPjFy_pad-25" x="14092.8" y="23753.4"/><use xlink:href="#WRyHOsbzj60Wx_-KPjFy_pad-25" x="442.8" y="23103.4"/><use xlink:href="#WRyHOsbzj60Wx_-KPjFy_pad-25" x="1092.8" y="23103.4"/><use xlink:href="#WRyHOsbzj60Wx_-KPjFy_pad-25" x="3692.8" y="23103.4"/><use xlink:href="#WRyHOsbzj60Wx_-KPjFy_pad-25" x="4342.8" y="23103.4"/><use xlink:href="#WRyHOsbzj60Wx_-KPjFy_pad-25" x="4992.8" y="23103.4"/><use xlink:href="#WRyHOsbzj60Wx_-KPjFy_pad-25" x="5642.8" y="23103.4"/><use xlink:href="#WRyHOsbzj60Wx_-KPjFy_pad-25" x="6292.8" y="23103.4"/><use xlink:href="#WRyHOsbzj60Wx_-KPjFy_pad-25" x="6942.8" y="23103.4"/><use xlink:href="#WRyHOsbzj60Wx_-KPjFy_pad-25" x="7592.8" y="23103.4"/><use xlink:href="#WRyHOsbzj60Wx_-KPjFy_pad-25" x="8242.8" y="23103.4"/><use xlink:href="#WRyHOsbzj60Wx_-KPjFy_pad-25" x="8892.8" y="23103.4"/><use xlink:href="#WRyHOsbzj60Wx_-KPjFy_pad-25" x="9542.8" y="23103.4"/><use xlink:href="#WRyHOsbzj60Wx_-KPjFy_pad-25" x="10192.8" y="23103.4"/><use xlink:href="#WRyHOsbzj60Wx_-KPjFy_pad-25" x="12142.8" y="23103.4"/><use xlink:href="#WRyHOsbzj60Wx_-KPjFy_pad-25" x="12792.8" y="23103.4"/><use xlink:href="#WRyHOsbzj60Wx_-KPjFy_pad-25" x="13442.8" y="23103.4"/><use xlink:href="#WRyHOsbzj60Wx_-KPjFy_pad-25" x="-207.2" y="22453.4"/><use xlink:href="#WRyHOsbzj60Wx_-KPjFy_pad-25" x="442.8" y="22453.4"/><use xlink:href="#WRyHOsbzj60Wx_-KPjFy_pad-25" x="1092.8" y="22453.4"/><use xlink:href="#WRyHOsbzj60Wx_-KPjFy_pad-25" x="1742.8" y="22453.4"/><use xlink:href="#WRyHOsbzj60Wx_-KPjFy_pad-25" x="2392.8" y="22453.4"/><use xlink:href="#WRyHOsbzj60Wx_-KPjFy_pad-25" x="3042.8" y="22453.4"/><use xlink:href="#WRyHOsbzj60Wx_-KPjFy_pad-25" x="3692.8" y="22453.4"/><use xlink:href="#WRyHOsbzj60Wx_-KPjFy_pad-25" x="4342.8" y="22453.4"/><use xlink:href="#WRyHOsbzj60Wx_-KPjFy_pad-25" x="4992.8" y="22453.4"/><use xlink:href="#WRyHOsbzj60Wx_-KPjFy_pad-25" x="5642.8" y="22453.4"/><use xlink:href="#WRyHOsbzj60Wx_-KPjFy_pad-25" x="6292.8" y="22453.4"/><use xlink:href="#WRyHOsbzj60Wx_-KPjFy_pad-25" x="6942.8" y="22453.4"/><use xlink:href="#WRyHOsbzj60Wx_-KPjFy_pad-25" x="7592.8" y="22453.4"/><use xlink:href="#WRyHOsbzj60Wx_-KPjFy_pad-25" x="8242.8" y="22453.4"/><use xlink:href="#WRyHOsbzj60Wx_-KPjFy_pad-25" x="8892.8" y="22453.4"/><use xlink:href="#WRyHOsbzj60Wx_-KPjFy_pad-25" x="9542.8" y="22453.4"/><use xlink:href="#WRyHOsbzj60Wx_-KPjFy_pad-25" x="10192.8" y="22453.4"/><use xlink:href="#WRyHOsbzj60Wx_-KPjFy_pad-25" x="10842.8" y="22453.4"/><use xlink:href="#WRyHOsbzj60Wx_-KPjFy_pad-25" x="11492.8" y="22453.4"/><use xlink:href="#WRyHOsbzj60Wx_-KPjFy_pad-25" x="12142.8" y="22453.4"/><use xlink:href="#WRyHOsbzj60Wx_-KPjFy_pad-25" x="12792.8" y="22453.4"/><use xlink:href="#WRyHOsbzj60Wx_-KPjFy_pad-25" x="13442.8" y="22453.4"/><use xlink:href="#WRyHOsbzj60Wx_-KPjFy_pad-25" x="14092.8" y="22453.4"/><use xlink:href="#WRyHOsbzj60Wx_-KPjFy_pad-25" x="442.8" y="21803.4"/><use xlink:href="#WRyHOsbzj60Wx_-KPjFy_pad-25" x="1092.8" y="21803.4"/><use xlink:href="#WRyHOsbzj60Wx_-KPjFy_pad-25" x="2392.8" y="21803.4"/><use xlink:href="#WRyHOsbzj60Wx_-KPjFy_pad-25" x="3042.8" y="21803.4"/><use xlink:href="#WRyHOsbzj60Wx_-KPjFy_pad-25" x="3692.8" y="21803.4"/><use xlink:href="#WRyHOsbzj60Wx_-KPjFy_pad-25" x="4342.8" y="21803.4"/><use xlink:href="#WRyHOsbzj60Wx_-KPjFy_pad-25" x="4992.8" y="21803.4"/><use xlink:href="#WRyHOsbzj60Wx_-KPjFy_pad-25" x="5642.8" y="21803.4"/><use xlink:href="#WRyHOsbzj60Wx_-KPjFy_pad-25" x="6292.8" y="21803.4"/><use xlink:href="#WRyHOsbzj60Wx_-KPjFy_pad-25" x="6942.8" y="21803.4"/><use xlink:href="#WRyHOsbzj60Wx_-KPjFy_pad-25" x="7592.8" y="21803.4"/><use xlink:href="#WRyHOsbzj60Wx_-KPjFy_pad-25" x="8242.8" y="21803.4"/><use xlink:href="#WRyHOsbzj60Wx_-KPjFy_pad-25" x="8892.8" y="21803.4"/><use xlink:href="#WRyHOsbzj60Wx_-KPjFy_pad-25" x="9542.8" y="21803.4"/><use xlink:href="#WRyHOsbzj60Wx_-KPjFy_pad-25" x="10192.8" y="21803.4"/><use xlink:href="#WRyHOsbzj60Wx_-KPjFy_pad-25" x="11492.8" y="21803.4"/><use xlink:href="#WRyHOsbzj60Wx_-KPjFy_pad-25" x="12142.8" y="21803.4"/><use xlink:href="#WRyHOsbzj60Wx_-KPjFy_pad-25" x="12792.8" y="21803.4"/><use xlink:href="#WRyHOsbzj60Wx_-KPjFy_pad-25" x="13442.8" y="21803.4"/><use xlink:href="#WRyHOsbzj60Wx_-KPjFy_pad-25" x="-207.2" y="21153.4"/><use xlink:href="#WRyHOsbzj60Wx_-KPjFy_pad-25" x="442.8" y="21153.4"/><use xlink:href="#WRyHOsbzj60Wx_-KPjFy_pad-25" x="1092.8" y="21153.4"/><use xlink:href="#WRyHOsbzj60Wx_-KPjFy_pad-25" x="3692.8" y="21153.4"/><use xlink:href="#WRyHOsbzj60Wx_-KPjFy_pad-25" x="4342.8" y="21153.4"/><use xlink:href="#WRyHOsbzj60Wx_-KPjFy_pad-25" x="4992.8" y="21153.4"/><use xlink:href="#WRyHOsbzj60Wx_-KPjFy_pad-25" x="5642.8" y="21153.4"/><use xlink:href="#WRyHOsbzj60Wx_-KPjFy_pad-25" x="6292.8" y="21153.4"/><use xlink:href="#WRyHOsbzj60Wx_-KPjFy_pad-25" x="6942.8" y="21153.4"/><use xlink:href="#WRyHOsbzj60Wx_-KPjFy_pad-25" x="7592.8" y="21153.4"/><use xlink:href="#WRyHOsbzj60Wx_-KPjFy_pad-25" x="8242.8" y="21153.4"/><use xlink:href="#WRyHOsbzj60Wx_-KPjFy_pad-25" x="8892.8" y="21153.4"/><use xlink:href="#WRyHOsbzj60Wx_-KPjFy_pad-25" x="9542.8" y="21153.4"/><use xlink:href="#WRyHOsbzj60Wx_-KPjFy_pad-25" x="10192.8" y="21153.4"/><use xlink:href="#WRyHOsbzj60Wx_-KPjFy_pad-25" x="10842.8" y="21153.4"/><use xlink:href="#WRyHOsbzj60Wx_-KPjFy_pad-25" x="12142.8" y="21153.4"/><use xlink:href="#WRyHOsbzj60Wx_-KPjFy_pad-25" x="12792.8" y="21153.4"/><use xlink:href="#WRyHOsbzj60Wx_-KPjFy_pad-25" x="13442.8" y="21153.4"/><use xlink:href="#WRyHOsbzj60Wx_-KPjFy_pad-25" x="14092.8" y="21153.4"/><use xlink:href="#WRyHOsbzj60Wx_-KPjFy_pad-25" x="442.8" y="20503.4"/><use xlink:href="#WRyHOsbzj60Wx_-KPjFy_pad-25" x="1092.8" y="20503.4"/><use xlink:href="#WRyHOsbzj60Wx_-KPjFy_pad-25" x="1742.8" y="20503.4"/><use xlink:href="#WRyHOsbzj60Wx_-KPjFy_pad-25" x="2392.8" y="20503.4"/><use xlink:href="#WRyHOsbzj60Wx_-KPjFy_pad-25" x="3042.8" y="20503.4"/><use xlink:href="#WRyHOsbzj60Wx_-KPjFy_pad-25" x="3692.8" y="20503.4"/><use xlink:href="#WRyHOsbzj60Wx_-KPjFy_pad-25" x="4342.8" y="20503.4"/><use xlink:href="#WRyHOsbzj60Wx_-KPjFy_pad-25" x="4992.8" y="20503.4"/><use xlink:href="#WRyHOsbzj60Wx_-KPjFy_pad-25" x="5642.8" y="20503.4"/><use xlink:href="#WRyHOsbzj60Wx_-KPjFy_pad-25" x="6292.8" y="20503.4"/><use xlink:href="#WRyHOsbzj60Wx_-KPjFy_pad-25" x="6942.8" y="20503.4"/><use xlink:href="#WRyHOsbzj60Wx_-KPjFy_pad-25" x="7592.8" y="20503.4"/><use xlink:href="#WRyHOsbzj60Wx_-KPjFy_pad-25" x="8242.8" y="20503.4"/><use xlink:href="#WRyHOsbzj60Wx_-KPjFy_pad-25" x="8892.8" y="20503.4"/><use xlink:href="#WRyHOsbzj60Wx_-KPjFy_pad-25" x="9542.8" y="20503.4"/><use xlink:href="#WRyHOsbzj60Wx_-KPjFy_pad-25" x="10192.8" y="20503.4"/><use xlink:href="#WRyHOsbzj60Wx_-KPjFy_pad-25" x="10842.8" y="20503.4"/><use xlink:href="#WRyHOsbzj60Wx_-KPjFy_pad-25" x="11492.8" y="20503.4"/><use xlink:href="#WRyHOsbzj60Wx_-KPjFy_pad-25" x="12142.8" y="20503.4"/><use xlink:href="#WRyHOsbzj60Wx_-KPjFy_pad-25" x="12792.8" y="20503.4"/><use xlink:href="#WRyHOsbzj60Wx_-KPjFy_pad-25" x="13442.8" y="20503.4"/><use xlink:href="#WRyHOsbzj60Wx_-KPjFy_pad-25" x="-207.2" y="19853.4"/><use xlink:href="#WRyHOsbzj60Wx_-KPjFy_pad-25" x="442.8" y="19853.4"/><use xlink:href="#WRyHOsbzj60Wx_-KPjFy_pad-25" x="1092.8" y="19853.4"/><use xlink:href="#WRyHOsbzj60Wx_-KPjFy_pad-25" x="1742.8" y="19853.4"/><use xlink:href="#WRyHOsbzj60Wx_-KPjFy_pad-25" x="2392.8" y="19853.4"/><use xlink:href="#WRyHOsbzj60Wx_-KPjFy_pad-25" x="3042.8" y="19853.4"/><use xlink:href="#WRyHOsbzj60Wx_-KPjFy_pad-25" x="3692.8" y="19853.4"/><use xlink:href="#WRyHOsbzj60Wx_-KPjFy_pad-25" x="4342.8" y="19853.4"/><use xlink:href="#WRyHOsbzj60Wx_-KPjFy_pad-25" x="4992.8" y="19853.4"/><use xlink:href="#WRyHOsbzj60Wx_-KPjFy_pad-25" x="5642.8" y="19853.4"/><use xlink:href="#WRyHOsbzj60Wx_-KPjFy_pad-25" x="6292.8" y="19853.4"/><use xlink:href="#WRyHOsbzj60Wx_-KPjFy_pad-25" x="6942.8" y="19853.4"/><use xlink:href="#WRyHOsbzj60Wx_-KPjFy_pad-25" x="7592.8" y="19853.4"/><use xlink:href="#WRyHOsbzj60Wx_-KPjFy_pad-25" x="8242.8" y="19853.4"/><use xlink:href="#WRyHOsbzj60Wx_-KPjFy_pad-25" x="8892.8" y="19853.4"/><use xlink:href="#WRyHOsbzj60Wx_-KPjFy_pad-25" x="9542.8" y="19853.4"/><use xlink:href="#WRyHOsbzj60Wx_-KPjFy_pad-25" x="10192.8" y="19853.4"/><use xlink:href="#WRyHOsbzj60Wx_-KPjFy_pad-25" x="10842.8" y="19853.4"/><use xlink:href="#WRyHOsbzj60Wx_-KPjFy_pad-25" x="11492.8" y="19853.4"/><use xlink:href="#WRyHOsbzj60Wx_-KPjFy_pad-25" x="12792.8" y="19853.4"/><use xlink:href="#WRyHOsbzj60Wx_-KPjFy_pad-25" x="13442.8" y="19853.4"/><use xlink:href="#WRyHOsbzj60Wx_-KPjFy_pad-25" x="14092.8" y="19853.4"/><use xlink:href="#WRyHOsbzj60Wx_-KPjFy_pad-25" x="442.8" y="19203.4"/><use xlink:href="#WRyHOsbzj60Wx_-KPjFy_pad-25" x="1092.8" y="19203.4"/><use xlink:href="#WRyHOsbzj60Wx_-KPjFy_pad-25" x="3692.8" y="19203.4"/><use xlink:href="#WRyHOsbzj60Wx_-KPjFy_pad-25" x="4342.8" y="19203.4"/><use xlink:href="#WRyHOsbzj60Wx_-KPjFy_pad-25" x="4992.8" y="19203.4"/><use xlink:href="#WRyHOsbzj60Wx_-KPjFy_pad-25" x="5642.8" y="19203.4"/><use xlink:href="#WRyHOsbzj60Wx_-KPjFy_pad-25" x="6292.8" y="19203.4"/><use xlink:href="#WRyHOsbzj60Wx_-KPjFy_pad-25" x="6942.8" y="19203.4"/><use xlink:href="#WRyHOsbzj60Wx_-KPjFy_pad-25" x="7592.8" y="19203.4"/><use xlink:href="#WRyHOsbzj60Wx_-KPjFy_pad-25" x="8242.8" y="19203.4"/><use xlink:href="#WRyHOsbzj60Wx_-KPjFy_pad-25" x="8892.8" y="19203.4"/><use xlink:href="#WRyHOsbzj60Wx_-KPjFy_pad-25" x="9542.8" y="19203.4"/><use xlink:href="#WRyHOsbzj60Wx_-KPjFy_pad-25" x="10192.8" y="19203.4"/><use xlink:href="#WRyHOsbzj60Wx_-KPjFy_pad-25" x="10842.8" y="19203.4"/><use xlink:href="#WRyHOsbzj60Wx_-KPjFy_pad-25" x="11492.8" y="19203.4"/><use xlink:href="#WRyHOsbzj60Wx_-KPjFy_pad-25" x="12142.8" y="19203.4"/><use xlink:href="#WRyHOsbzj60Wx_-KPjFy_pad-25" x="13442.8" y="19203.4"/><use xlink:href="#WRyHOsbzj60Wx_-KPjFy_pad-25" x="14092.8" y="19203.4"/><use xlink:href="#WRyHOsbzj60Wx_-KPjFy_pad-25" x="-207.2" y="18553.4"/><use xlink:href="#WRyHOsbzj60Wx_-KPjFy_pad-25" x="442.8" y="18553.4"/><use xlink:href="#WRyHOsbzj60Wx_-KPjFy_pad-25" x="1092.8" y="18553.4"/><use xlink:href="#WRyHOsbzj60Wx_-KPjFy_pad-25" x="1742.8" y="18553.4"/><use xlink:href="#WRyHOsbzj60Wx_-KPjFy_pad-25" x="2392.8" y="18553.4"/><use xlink:href="#WRyHOsbzj60Wx_-KPjFy_pad-25" x="3042.8" y="18553.4"/><use xlink:href="#WRyHOsbzj60Wx_-KPjFy_pad-25" x="3692.8" y="18553.4"/><use xlink:href="#WRyHOsbzj60Wx_-KPjFy_pad-25" x="4342.8" y="18553.4"/><use xlink:href="#WRyHOsbzj60Wx_-KPjFy_pad-25" x="4992.8" y="18553.4"/><use xlink:href="#WRyHOsbzj60Wx_-KPjFy_pad-25" x="5642.8" y="18553.4"/><use xlink:href="#WRyHOsbzj60Wx_-KPjFy_pad-25" x="6292.8" y="18553.4"/><use xlink:href="#WRyHOsbzj60Wx_-KPjFy_pad-25" x="6942.8" y="18553.4"/><use xlink:href="#WRyHOsbzj60Wx_-KPjFy_pad-25" x="7592.8" y="18553.4"/><use xlink:href="#WRyHOsbzj60Wx_-KPjFy_pad-25" x="8242.8" y="18553.4"/><use xlink:href="#WRyHOsbzj60Wx_-KPjFy_pad-25" x="8892.8" y="18553.4"/><use xlink:href="#WRyHOsbzj60Wx_-KPjFy_pad-25" x="9542.8" y="18553.4"/><use xlink:href="#WRyHOsbzj60Wx_-KPjFy_pad-25" x="10192.8" y="18553.4"/><use xlink:href="#WRyHOsbzj60Wx_-KPjFy_pad-25" x="10842.8" y="18553.4"/><use xlink:href="#WRyHOsbzj60Wx_-KPjFy_pad-25" x="11492.8" y="18553.4"/><use xlink:href="#WRyHOsbzj60Wx_-KPjFy_pad-25" x="12142.8" y="18553.4"/><use xlink:href="#WRyHOsbzj60Wx_-KPjFy_pad-25" x="12792.8" y="18553.4"/><use xlink:href="#WRyHOsbzj60Wx_-KPjFy_pad-25" x="13442.8" y="18553.4"/><use xlink:href="#WRyHOsbzj60Wx_-KPjFy_pad-25" x="442.8" y="17903.4"/><use xlink:href="#WRyHOsbzj60Wx_-KPjFy_pad-25" x="1092.8" y="17903.4"/><use xlink:href="#WRyHOsbzj60Wx_-KPjFy_pad-25" x="2392.8" y="17903.4"/><use xlink:href="#WRyHOsbzj60Wx_-KPjFy_pad-25" x="3042.8" y="17903.4"/><use xlink:href="#WRyHOsbzj60Wx_-KPjFy_pad-25" x="3692.8" y="17903.4"/><use xlink:href="#WRyHOsbzj60Wx_-KPjFy_pad-25" x="4342.8" y="17903.4"/><use xlink:href="#WRyHOsbzj60Wx_-KPjFy_pad-25" x="4992.8" y="17903.4"/><use xlink:href="#WRyHOsbzj60Wx_-KPjFy_pad-25" x="5642.8" y="17903.4"/><use xlink:href="#WRyHOsbzj60Wx_-KPjFy_pad-25" x="6292.8" y="17903.4"/><use xlink:href="#WRyHOsbzj60Wx_-KPjFy_pad-25" x="6942.8" y="17903.4"/><use xlink:href="#WRyHOsbzj60Wx_-KPjFy_pad-25" x="7592.8" y="17903.4"/><use xlink:href="#WRyHOsbzj60Wx_-KPjFy_pad-25" x="8242.8" y="17903.4"/><use xlink:href="#WRyHOsbzj60Wx_-KPjFy_pad-25" x="8892.8" y="17903.4"/><use xlink:href="#WRyHOsbzj60Wx_-KPjFy_pad-25" x="9542.8" y="17903.4"/><use xlink:href="#WRyHOsbzj60Wx_-KPjFy_pad-25" x="10192.8" y="17903.4"/><use xlink:href="#WRyHOsbzj60Wx_-KPjFy_pad-25" x="10842.8" y="17903.4"/><use xlink:href="#WRyHOsbzj60Wx_-KPjFy_pad-25" x="11492.8" y="17903.4"/><use xlink:href="#WRyHOsbzj60Wx_-KPjFy_pad-25" x="12142.8" y="17903.4"/><use xlink:href="#WRyHOsbzj60Wx_-KPjFy_pad-25" x="12792.8" y="17903.4"/><use xlink:href="#WRyHOsbzj60Wx_-KPjFy_pad-25" x="13442.8" y="17903.4"/><use xlink:href="#WRyHOsbzj60Wx_-KPjFy_pad-25" x="14092.8" y="17903.4"/><use xlink:href="#WRyHOsbzj60Wx_-KPjFy_pad-25" x="-207.2" y="17253.4"/><use xlink:href="#WRyHOsbzj60Wx_-KPjFy_pad-25" x="442.8" y="17253.4"/><use xlink:href="#WRyHOsbzj60Wx_-KPjFy_pad-25" x="1092.8" y="17253.4"/><use xlink:href="#WRyHOsbzj60Wx_-KPjFy_pad-25" x="3692.8" y="17253.4"/><use xlink:href="#WRyHOsbzj60Wx_-KPjFy_pad-25" x="4342.8" y="17253.4"/><use xlink:href="#WRyHOsbzj60Wx_-KPjFy_pad-25" x="4992.8" y="17253.4"/><use xlink:href="#WRyHOsbzj60Wx_-KPjFy_pad-25" x="5642.8" y="17253.4"/><use xlink:href="#WRyHOsbzj60Wx_-KPjFy_pad-25" x="6292.8" y="17253.4"/><use xlink:href="#WRyHOsbzj60Wx_-KPjFy_pad-25" x="6942.8" y="17253.4"/><use xlink:href="#WRyHOsbzj60Wx_-KPjFy_pad-25" x="7592.8" y="17253.4"/><use xlink:href="#WRyHOsbzj60Wx_-KPjFy_pad-25" x="8242.8" y="17253.4"/><use xlink:href="#WRyHOsbzj60Wx_-KPjFy_pad-25" x="8892.8" y="17253.4"/><use xlink:href="#WRyHOsbzj60Wx_-KPjFy_pad-25" x="9542.8" y="17253.4"/><use xlink:href="#WRyHOsbzj60Wx_-KPjFy_pad-25" x="10192.8" y="17253.4"/><use xlink:href="#WRyHOsbzj60Wx_-KPjFy_pad-25" x="10842.8" y="17253.4"/><use xlink:href="#WRyHOsbzj60Wx_-KPjFy_pad-25" x="11492.8" y="17253.4"/><use xlink:href="#WRyHOsbzj60Wx_-KPjFy_pad-25" x="12142.8" y="17253.4"/><use xlink:href="#WRyHOsbzj60Wx_-KPjFy_pad-25" x="12792.8" y="17253.4"/><use xlink:href="#WRyHOsbzj60Wx_-KPjFy_pad-25" x="13442.8" y="17253.4"/><use xlink:href="#WRyHOsbzj60Wx_-KPjFy_pad-25" x="442.8" y="16603.4"/><use xlink:href="#WRyHOsbzj60Wx_-KPjFy_pad-25" x="1092.8" y="16603.4"/><use xlink:href="#WRyHOsbzj60Wx_-KPjFy_pad-25" x="1742.8" y="16603.4"/><use xlink:href="#WRyHOsbzj60Wx_-KPjFy_pad-25" x="2392.8" y="16603.4"/><use xlink:href="#WRyHOsbzj60Wx_-KPjFy_pad-25" x="3042.8" y="16603.4"/><use xlink:href="#WRyHOsbzj60Wx_-KPjFy_pad-25" x="3692.8" y="16603.4"/><use xlink:href="#WRyHOsbzj60Wx_-KPjFy_pad-25" x="4342.8" y="16603.4"/><use xlink:href="#WRyHOsbzj60Wx_-KPjFy_pad-25" x="4992.8" y="16603.4"/><use xlink:href="#WRyHOsbzj60Wx_-KPjFy_pad-25" x="5642.8" y="16603.4"/><use xlink:href="#WRyHOsbzj60Wx_-KPjFy_pad-25" x="6292.8" y="16603.4"/><use xlink:href="#WRyHOsbzj60Wx_-KPjFy_pad-25" x="6942.8" y="16603.4"/><use xlink:href="#WRyHOsbzj60Wx_-KPjFy_pad-25" x="7592.8" y="16603.4"/><use xlink:href="#WRyHOsbzj60Wx_-KPjFy_pad-25" x="8242.8" y="16603.4"/><use xlink:href="#WRyHOsbzj60Wx_-KPjFy_pad-25" x="8892.8" y="16603.4"/><use xlink:href="#WRyHOsbzj60Wx_-KPjFy_pad-25" x="9542.8" y="16603.4"/><use xlink:href="#WRyHOsbzj60Wx_-KPjFy_pad-25" x="10192.8" y="16603.4"/><use xlink:href="#WRyHOsbzj60Wx_-KPjFy_pad-25" x="10842.8" y="16603.4"/><use xlink:href="#WRyHOsbzj60Wx_-KPjFy_pad-25" x="11492.8" y="16603.4"/><use xlink:href="#WRyHOsbzj60Wx_-KPjFy_pad-25" x="12792.8" y="16603.4"/><use xlink:href="#WRyHOsbzj60Wx_-KPjFy_pad-25" x="13442.8" y="16603.4"/><use xlink:href="#WRyHOsbzj60Wx_-KPjFy_pad-25" x="14092.8" y="16603.4"/><use xlink:href="#WRyHOsbzj60Wx_-KPjFy_pad-25" x="-207.2" y="15953.4"/><use xlink:href="#WRyHOsbzj60Wx_-KPjFy_pad-25" x="442.8" y="15953.4"/><use xlink:href="#WRyHOsbzj60Wx_-KPjFy_pad-25" x="1092.8" y="15953.4"/><use xlink:href="#WRyHOsbzj60Wx_-KPjFy_pad-25" x="2392.8" y="15953.4"/><use xlink:href="#WRyHOsbzj60Wx_-KPjFy_pad-25" x="3042.8" y="15953.4"/><use xlink:href="#WRyHOsbzj60Wx_-KPjFy_pad-25" x="3692.8" y="15953.4"/><use xlink:href="#WRyHOsbzj60Wx_-KPjFy_pad-25" x="4992.8" y="15953.4"/><use xlink:href="#WRyHOsbzj60Wx_-KPjFy_pad-25" x="5642.8" y="15953.4"/><use xlink:href="#WRyHOsbzj60Wx_-KPjFy_pad-25" x="6292.8" y="15953.4"/><use xlink:href="#WRyHOsbzj60Wx_-KPjFy_pad-25" x="7592.8" y="15953.4"/><use xlink:href="#WRyHOsbzj60Wx_-KPjFy_pad-25" x="8892.8" y="15953.4"/><use xlink:href="#WRyHOsbzj60Wx_-KPjFy_pad-25" x="10192.8" y="15953.4"/><use xlink:href="#WRyHOsbzj60Wx_-KPjFy_pad-25" x="11492.8" y="15953.4"/><use xlink:href="#WRyHOsbzj60Wx_-KPjFy_pad-25" x="12142.8" y="15953.4"/><use xlink:href="#WRyHOsbzj60Wx_-KPjFy_pad-25" x="12792.8" y="15953.4"/><use xlink:href="#WRyHOsbzj60Wx_-KPjFy_pad-25" x="13442.8" y="15953.4"/><use xlink:href="#WRyHOsbzj60Wx_-KPjFy_pad-25" x="14092.8" y="15953.4"/><use xlink:href="#WRyHOsbzj60Wx_-KPjFy_pad-25" x="-207.2" y="15303.4"/><use xlink:href="#WRyHOsbzj60Wx_-KPjFy_pad-25" x="442.8" y="15303.4"/><use xlink:href="#WRyHOsbzj60Wx_-KPjFy_pad-25" x="1092.8" y="15303.4"/><use xlink:href="#WRyHOsbzj60Wx_-KPjFy_pad-25" x="1742.8" y="15303.4"/><use xlink:href="#WRyHOsbzj60Wx_-KPjFy_pad-25" x="2392.8" y="15303.4"/><use xlink:href="#WRyHOsbzj60Wx_-KPjFy_pad-25" x="3692.8" y="15303.4"/><use xlink:href="#WRyHOsbzj60Wx_-KPjFy_pad-25" x="4342.8" y="15303.4"/><use xlink:href="#WRyHOsbzj60Wx_-KPjFy_pad-25" x="5642.8" y="15303.4"/><use xlink:href="#WRyHOsbzj60Wx_-KPjFy_pad-25" x="6292.8" y="15303.4"/><use xlink:href="#WRyHOsbzj60Wx_-KPjFy_pad-25" x="7592.8" y="15303.4"/><use xlink:href="#WRyHOsbzj60Wx_-KPjFy_pad-25" x="8242.8" y="15303.4"/><use xlink:href="#WRyHOsbzj60Wx_-KPjFy_pad-25" x="9542.8" y="15303.4"/><use xlink:href="#WRyHOsbzj60Wx_-KPjFy_pad-25" x="10192.8" y="15303.4"/><use xlink:href="#WRyHOsbzj60Wx_-KPjFy_pad-25" x="11492.8" y="15303.4"/><use xlink:href="#WRyHOsbzj60Wx_-KPjFy_pad-25" x="12792.8" y="15303.4"/><use xlink:href="#WRyHOsbzj60Wx_-KPjFy_pad-25" x="13442.8" y="15303.4"/><use xlink:href="#WRyHOsbzj60Wx_-KPjFy_pad-25" x="14092.8" y="15303.4"/><use xlink:href="#WRyHOsbzj60Wx_-KPjFy_pad-25" x="-207.2" y="14653.4"/><use xlink:href="#WRyHOsbzj60Wx_-KPjFy_pad-25" x="442.8" y="14653.4"/><use xlink:href="#WRyHOsbzj60Wx_-KPjFy_pad-25" x="1092.8" y="14653.4"/><use xlink:href="#WRyHOsbzj60Wx_-KPjFy_pad-25" x="2392.8" y="14653.4"/><use xlink:href="#WRyHOsbzj60Wx_-KPjFy_pad-25" x="3692.8" y="14653.4"/><use xlink:href="#WRyHOsbzj60Wx_-KPjFy_pad-25" x="4342.8" y="14653.4"/><use xlink:href="#WRyHOsbzj60Wx_-KPjFy_pad-25" x="5642.8" y="14653.4"/><use xlink:href="#WRyHOsbzj60Wx_-KPjFy_pad-25" x="6292.8" y="14653.4"/><use xlink:href="#WRyHOsbzj60Wx_-KPjFy_pad-25" x="7592.8" y="14653.4"/><use xlink:href="#WRyHOsbzj60Wx_-KPjFy_pad-25" x="8242.8" y="14653.4"/><use xlink:href="#WRyHOsbzj60Wx_-KPjFy_pad-25" x="9542.8" y="14653.4"/><use xlink:href="#WRyHOsbzj60Wx_-KPjFy_pad-25" x="10192.8" y="14653.4"/><use xlink:href="#WRyHOsbzj60Wx_-KPjFy_pad-25" x="11492.8" y="14653.4"/><use xlink:href="#WRyHOsbzj60Wx_-KPjFy_pad-25" x="12142.8" y="14653.4"/><use xlink:href="#WRyHOsbzj60Wx_-KPjFy_pad-25" x="12792.8" y="14653.4"/><use xlink:href="#WRyHOsbzj60Wx_-KPjFy_pad-25" x="13442.8" y="14653.4"/><use xlink:href="#WRyHOsbzj60Wx_-KPjFy_pad-25" x="14092.8" y="14653.4"/><use xlink:href="#WRyHOsbzj60Wx_-KPjFy_pad-12" x="49935.8" y="4823.4"/><use xlink:href="#WRyHOsbzj60Wx_-KPjFy_pad-12" x="49935.8" y="11023.4"/><use xlink:href="#WRyHOsbzj60Wx_-KPjFy_pad-12" x="53635.8" y="4823.4"/><use xlink:href="#WRyHOsbzj60Wx_-KPjFy_pad-12" x="53635.8" y="11023.4"/><use xlink:href="#WRyHOsbzj60Wx_-KPjFy_pad-26" x="30942.8" y="38653.4"/><use xlink:href="#WRyHOsbzj60Wx_-KPjFy_pad-26" x="115042.8" y="38653.4"/><use xlink:href="#WRyHOsbzj60Wx_-KPjFy_pad-13" x="59024.8" y="-4776.6"/><use xlink:href="#WRyHOsbzj60Wx_-KPjFy_pad-13" x="59024.8" y="2843.4"/><use xlink:href="#WRyHOsbzj60Wx_-KPjFy_pad-12" x="62762.8" y="-5336.6"/><use xlink:href="#WRyHOsbzj60Wx_-KPjFy_pad-12" x="62762.8" y="863.4"/><use xlink:href="#WRyHOsbzj60Wx_-KPjFy_pad-12" x="66462.8" y="-5336.6"/><use xlink:href="#WRyHOsbzj60Wx_-KPjFy_pad-12" x="66462.8" y="863.4"/><use xlink:href="#WRyHOsbzj60Wx_-KPjFy_pad-13" x="91282.8" y="-7316.6"/><use xlink:href="#WRyHOsbzj60Wx_-KPjFy_pad-13" x="91282.8" y="303.4"/><use xlink:href="#WRyHOsbzj60Wx_-KPjFy_pad-13" x="37942.8" y="303.4"/><use xlink:href="#WRyHOsbzj60Wx_-KPjFy_pad-13" x="37942.8" y="-7316.6"/><use xlink:href="#WRyHOsbzj60Wx_-KPjFy_pad-12" x="69112.8" y="14983.4"/><use xlink:href="#WRyHOsbzj60Wx_-KPjFy_pad-12" x="69112.8" y="21183.4"/><use xlink:href="#WRyHOsbzj60Wx_-KPjFy_pad-12" x="72812.8" y="14983.4"/><use xlink:href="#WRyHOsbzj60Wx_-KPjFy_pad-12" x="72812.8" y="21183.4"/><use xlink:href="#WRyHOsbzj60Wx_-KPjFy_pad-27" x="-121557.2" y="-18146.6"/><use xlink:href="#WRyHOsbzj60Wx_-KPjFy_pad-28" x="-121557.2" y="-15606.6"/><use xlink:href="#WRyHOsbzj60Wx_-KPjFy_pad-28" x="-121557.2" y="-13066.6"/><use xlink:href="#WRyHOsbzj60Wx_-KPjFy_pad-28" x="-121557.2" y="-10526.6"/><use xlink:href="#WRyHOsbzj60Wx_-KPjFy_pad-28" x="-121557.2" y="-7986.6"/><use xlink:href="#WRyHOsbzj60Wx_-KPjFy_pad-28" x="-121557.2" y="-5446.6"/><use xlink:href="#WRyHOsbzj60Wx_-KPjFy_pad-28" x="-121557.2" y="-2906.6"/><use xlink:href="#WRyHOsbzj60Wx_-KPjFy_pad-28" x="-121557.2" y="-366.6"/><use xlink:href="#WRyHOsbzj60Wx_-KPjFy_pad-28" x="-121557.2" y="2173.4"/><use xlink:href="#WRyHOsbzj60Wx_-KPjFy_pad-28" x="-121557.2" y="4713.4"/><use xlink:href="#WRyHOsbzj60Wx_-KPjFy_pad-28" x="-121557.2" y="7253.4"/><use xlink:href="#WRyHOsbzj60Wx_-KPjFy_pad-28" x="-121557.2" y="9793.4"/><use xlink:href="#WRyHOsbzj60Wx_-KPjFy_pad-28" x="-121557.2" y="12333.4"/><use xlink:href="#WRyHOsbzj60Wx_-KPjFy_pad-28" x="-121557.2" y="14873.4"/><use xlink:href="#WRyHOsbzj60Wx_-KPjFy_pad-28" x="-121557.2" y="17413.4"/><use xlink:href="#WRyHOsbzj60Wx_-KPjFy_pad-28" x="-121557.2" y="19953.4"/><use xlink:href="#WRyHOsbzj60Wx_-KPjFy_pad-28" x="-121557.2" y="22493.4"/><use xlink:href="#WRyHOsbzj60Wx_-KPjFy_pad-28" x="-121557.2" y="25033.4"/><use xlink:href="#WRyHOsbzj60Wx_-KPjFy_pad-28" x="-121557.2" y="27573.4"/><use xlink:href="#WRyHOsbzj60Wx_-KPjFy_pad-28" x="-121557.2" y="30113.4"/><use xlink:href="#WRyHOsbzj60Wx_-KPjFy_pad-28" x="-25037.2" y="30113.4"/><use xlink:href="#WRyHOsbzj60Wx_-KPjFy_pad-28" x="-25037.2" y="27573.4"/><use xlink:href="#WRyHOsbzj60Wx_-KPjFy_pad-28" x="-25037.2" y="25033.4"/><use xlink:href="#WRyHOsbzj60Wx_-KPjFy_pad-28" x="-25037.2" y="22493.4"/><use xlink:href="#WRyHOsbzj60Wx_-KPjFy_pad-28" x="-25037.2" y="19953.4"/><use xlink:href="#WRyHOsbzj60Wx_-KPjFy_pad-28" x="-25037.2" y="17413.4"/><use xlink:href="#WRyHOsbzj60Wx_-KPjFy_pad-28" x="-25037.2" y="14873.4"/><use xlink:href="#WRyHOsbzj60Wx_-KPjFy_pad-28" x="-25037.2" y="12333.4"/><use xlink:href="#WRyHOsbzj60Wx_-KPjFy_pad-28" x="-25037.2" y="9793.4"/><use xlink:href="#WRyHOsbzj60Wx_-KPjFy_pad-28" x="-25037.2" y="7253.4"/><use xlink:href="#WRyHOsbzj60Wx_-KPjFy_pad-28" x="-25037.2" y="4713.4"/><use xlink:href="#WRyHOsbzj60Wx_-KPjFy_pad-28" x="-25037.2" y="2173.4"/><use xlink:href="#WRyHOsbzj60Wx_-KPjFy_pad-28" x="-25037.2" y="-366.6"/><use xlink:href="#WRyHOsbzj60Wx_-KPjFy_pad-28" x="-25037.2" y="-2906.6"/><use xlink:href="#WRyHOsbzj60Wx_-KPjFy_pad-28" x="-25037.2" y="-5446.6"/><use xlink:href="#WRyHOsbzj60Wx_-KPjFy_pad-28" x="-25037.2" y="-7986.6"/><use xlink:href="#WRyHOsbzj60Wx_-KPjFy_pad-28" x="-25037.2" y="-10526.6"/><use xlink:href="#WRyHOsbzj60Wx_-KPjFy_pad-28" x="-25037.2" y="-13066.6"/><use xlink:href="#WRyHOsbzj60Wx_-KPjFy_pad-28" x="-25037.2" y="-15606.6"/><use xlink:href="#WRyHOsbzj60Wx_-KPjFy_pad-28" x="-25037.2" y="-18146.6"/><use xlink:href="#WRyHOsbzj60Wx_-KPjFy_pad-13" x="91282.8" y="15543.4"/><use xlink:href="#WRyHOsbzj60Wx_-KPjFy_pad-13" x="91282.8" y="23163.4"/><use xlink:href="#WRyHOsbzj60Wx_-KPjFy_pad-12" x="75462.8" y="14983.4"/><use xlink:href="#WRyHOsbzj60Wx_-KPjFy_pad-12" x="75462.8" y="21183.4"/><use xlink:href="#WRyHOsbzj60Wx_-KPjFy_pad-12" x="79162.8" y="14983.4"/><use xlink:href="#WRyHOsbzj60Wx_-KPjFy_pad-12" x="79162.8" y="21183.4"/><use xlink:href="#WRyHOsbzj60Wx_-KPjFy_pad-12" x="62762.8" y="14983.4"/><use xlink:href="#WRyHOsbzj60Wx_-KPjFy_pad-12" x="62762.8" y="21183.4"/><use xlink:href="#WRyHOsbzj60Wx_-KPjFy_pad-12" x="66462.8" y="14983.4"/><use xlink:href="#WRyHOsbzj60Wx_-KPjFy_pad-12" x="66462.8" y="21183.4"/><use xlink:href="#WRyHOsbzj60Wx_-KPjFy_pad-12" x="75462.8" y="-5336.6"/><use xlink:href="#WRyHOsbzj60Wx_-KPjFy_pad-12" x="75462.8" y="863.4"/><use xlink:href="#WRyHOsbzj60Wx_-KPjFy_pad-12" x="79162.8" y="-5336.6"/><use xlink:href="#WRyHOsbzj60Wx_-KPjFy_pad-12" x="79162.8" y="863.4"/><use xlink:href="#WRyHOsbzj60Wx_-KPjFy_pad-12" x="69112.8" y="4823.4"/><use xlink:href="#WRyHOsbzj60Wx_-KPjFy_pad-12" x="69112.8" y="11023.4"/><use xlink:href="#WRyHOsbzj60Wx_-KPjFy_pad-12" x="72812.8" y="4823.4"/><use xlink:href="#WRyHOsbzj60Wx_-KPjFy_pad-12" x="72812.8" y="11023.4"/><use xlink:href="#WRyHOsbzj60Wx_-KPjFy_pad-13" x="52928.8" y="15543.4"/><use xlink:href="#WRyHOsbzj60Wx_-KPjFy_pad-13" x="52928.8" y="23163.4"/><use xlink:href="#WRyHOsbzj60Wx_-KPjFy_pad-12" x="69112.8" y="-5336.6"/><use xlink:href="#WRyHOsbzj60Wx_-KPjFy_pad-12" x="69112.8" y="863.4"/><use xlink:href="#WRyHOsbzj60Wx_-KPjFy_pad-12" x="72812.8" y="-5336.6"/><use xlink:href="#WRyHOsbzj60Wx_-KPjFy_pad-12" x="72812.8" y="863.4"/><use xlink:href="#WRyHOsbzj60Wx_-KPjFy_pad-13" x="59024.8" y="13003.4"/><use xlink:href="#WRyHOsbzj60Wx_-KPjFy_pad-13" x="59024.8" y="20623.4"/><use xlink:href="#WRyHOsbzj60Wx_-KPjFy_pad-12" x="43712.8" y="-4066.6"/><use xlink:href="#WRyHOsbzj60Wx_-KPjFy_pad-12" x="43712.8" y="2133.4"/><use xlink:href="#WRyHOsbzj60Wx_-KPjFy_pad-12" x="47412.8" y="-4066.6"/><use xlink:href="#WRyHOsbzj60Wx_-KPjFy_pad-12" x="47412.8" y="2133.4"/><use xlink:href="#WRyHOsbzj60Wx_-KPjFy_pad-29" x="90876.4" y="25614.5"/><use xlink:href="#WRyHOsbzj60Wx_-KPjFy_pad-29" x="88336.4" y="25614.5"/><use xlink:href="#WRyHOsbzj60Wx_-KPjFy_pad-29" x="78176.4" y="25614.5"/><use xlink:href="#WRyHOsbzj60Wx_-KPjFy_pad-29" x="75636.4" y="25614.5"/><use xlink:href="#WRyHOsbzj60Wx_-KPjFy_pad-29" x="73096.4" y="25614.5"/><use xlink:href="#WRyHOsbzj60Wx_-KPjFy_pad-29" x="60396.4" y="-9945.5"/><use xlink:href="#WRyHOsbzj60Wx_-KPjFy_pad-29" x="62936.4" y="-9945.5"/><use xlink:href="#WRyHOsbzj60Wx_-KPjFy_pad-29" x="65476.4" y="-9945.5"/><use xlink:href="#WRyHOsbzj60Wx_-KPjFy_pad-29" x="85796.4" y="-9945.5"/><use xlink:href="#WRyHOsbzj60Wx_-KPjFy_pad-29" x="88336.4" y="-9945.5"/><use xlink:href="#WRyHOsbzj60Wx_-KPjFy_pad-29" x="90876.4" y="-9945.5"/><use xlink:href="#WRyHOsbzj60Wx_-KPjFy_pad-29" x="40076.4" y="-9945.5"/><use xlink:href="#WRyHOsbzj60Wx_-KPjFy_pad-29" x="37536.4" y="-9945.5"/><use xlink:href="#WRyHOsbzj60Wx_-KPjFy_pad-29" x="37536.4" y="25614.5"/><use xlink:href="#WRyHOsbzj60Wx_-KPjFy_pad-29" x="40076.4" y="25614.5"/><use xlink:href="#WRyHOsbzj60Wx_-KPjFy_pad-29" x="42616.4" y="25614.5"/><use xlink:href="#WRyHOsbzj60Wx_-KPjFy_pad-29" x="45156.4" y="25614.5"/><use xlink:href="#WRyHOsbzj60Wx_-KPjFy_pad-29" x="52776.4" y="25614.5"/><use xlink:href="#WRyHOsbzj60Wx_-KPjFy_pad-12" x="81812.8" y="-5336.6"/><use xlink:href="#WRyHOsbzj60Wx_-KPjFy_pad-12" x="81812.8" y="863.4"/><use xlink:href="#WRyHOsbzj60Wx_-KPjFy_pad-12" x="85512.8" y="-5336.6"/><use xlink:href="#WRyHOsbzj60Wx_-KPjFy_pad-12" x="85512.8" y="863.4"/><use xlink:href="#WRyHOsbzj60Wx_-KPjFy_pad-12" x="81812.8" y="14983.4"/><use xlink:href="#WRyHOsbzj60Wx_-KPjFy_pad-12" x="81812.8" y="21183.4"/><use xlink:href="#WRyHOsbzj60Wx_-KPjFy_pad-12" x="85512.8" y="14983.4"/><use xlink:href="#WRyHOsbzj60Wx_-KPjFy_pad-12" x="85512.8" y="21183.4"/><use xlink:href="#WRyHOsbzj60Wx_-KPjFy_pad-30" x="48356.8" y="-11130.602"/><use xlink:href="#WRyHOsbzj60Wx_-KPjFy_pad-30" x="56379.8" y="-11597.6"/><use xlink:href="#WRyHOsbzj60Wx_-KPjFy_pad-30" x="84976.8" y="25269.4"/><use xlink:href="#WRyHOsbzj60Wx_-KPjFy_pad-30" x="52779.8" y="-10147.6"/><use xlink:href="#WRyHOsbzj60Wx_-KPjFy_pad-30" x="82795.8" y="-11597.6"/><use xlink:href="#WRyHOsbzj60Wx_-KPjFy_pad-30" x="81376.8" y="26719.4"/><use xlink:href="#WRyHOsbzj60Wx_-KPjFy_pad-30" x="58008.8" y="-11634.6"/><use xlink:href="#WRyHOsbzj60Wx_-KPjFy_pad-30" x="92716.8" y="17426.4"/><use xlink:href="#WRyHOsbzj60Wx_-KPjFy_pad-30" x="84996.3" y="23163.4"/><use xlink:href="#WRyHOsbzj60Wx_-KPjFy_pad-30" x="94166.8" y="21026.4"/><use xlink:href="#WRyHOsbzj60Wx_-KPjFy_pad-30" x="46854.8" y="-11597.6"/><use xlink:href="#WRyHOsbzj60Wx_-KPjFy_pad-30" x="43254.8" y="-10147.6"/><use xlink:href="#WRyHOsbzj60Wx_-KPjFy_pad-30" x="79195.8" y="-10147.6"/><use xlink:href="#WRyHOsbzj60Wx_-KPjFy_pad-30" x="41752.8" y="-7316.6"/><use xlink:href="#WRyHOsbzj60Wx_-KPjFy_pad-30" x="60421.8" y="-7316.6"/><use xlink:href="#WRyHOsbzj60Wx_-KPjFy_pad-30" x="50769.8" y="-7316.6"/><use xlink:href="#WRyHOsbzj60Wx_-KPjFy_pad-30" x="37942.8" y="-5284.6"/><use xlink:href="#WRyHOsbzj60Wx_-KPjFy_pad-30" x="52928.8" y="-4014.6"/><use xlink:href="#WRyHOsbzj60Wx_-KPjFy_pad-30" x="41752.8" y="-11126.6"/><use xlink:href="#WRyHOsbzj60Wx_-KPjFy_pad-30" x="52166.8" y="-1855.6"/><use xlink:href="#WRyHOsbzj60Wx_-KPjFy_pad-30" x="43784.8" y="6272.4"/><use xlink:href="#WRyHOsbzj60Wx_-KPjFy_pad-30" x="81817.47" y="18987.869"/><use xlink:href="#WRyHOsbzj60Wx_-KPjFy_pad-30" x="78176.4" y="23140.115"/><use xlink:href="#WRyHOsbzj60Wx_-KPjFy_pad-30" x="37992.8" y="-1986.6"/><use xlink:href="#WRyHOsbzj60Wx_-KPjFy_pad-30" x="49935.8" y="6272.4"/><use xlink:href="#WRyHOsbzj60Wx_-KPjFy_pad-30" x="43657.8" y="9574.4"/><use xlink:href="#WRyHOsbzj60Wx_-KPjFy_pad-30" x="62834.8" y="6272.4"/><use xlink:href="#WRyHOsbzj60Wx_-KPjFy_pad-30" x="75534.8" y="-585.6"/><use xlink:href="#WRyHOsbzj60Wx_-KPjFy_pad-30" x="81122.8" y="-1093.6"/><use xlink:href="#WRyHOsbzj60Wx_-KPjFy_pad-30" x="49935.8" y="9574.4"/><use xlink:href="#WRyHOsbzj60Wx_-KPjFy_pad-30" x="37942.8" y="16940.4"/><use xlink:href="#WRyHOsbzj60Wx_-KPjFy_pad-30" x="62762.8" y="16178.4"/><use xlink:href="#WRyHOsbzj60Wx_-KPjFy_pad-30" x="52928.8" y="16940.4"/><use xlink:href="#WRyHOsbzj60Wx_-KPjFy_pad-30" x="90901.8" y="20750.857"/><use xlink:href="#WRyHOsbzj60Wx_-KPjFy_pad-30" x="69057.8" y="19734.4"/><use xlink:href="#WRyHOsbzj60Wx_-KPjFy_pad-30" x="62762.8" y="19861.4"/><use xlink:href="#WRyHOsbzj60Wx_-KPjFy_pad-30" x="81376.8" y="23163.4"/><use xlink:href="#WRyHOsbzj60Wx_-KPjFy_pad-30" x="66462.8" y="-712.6"/><use xlink:href="#WRyHOsbzj60Wx_-KPjFy_pad-30" x="65476.4" y="-7316.6"/><use xlink:href="#WRyHOsbzj60Wx_-KPjFy_pad-30" x="59024.8" y="1319.4"/><use xlink:href="#WRyHOsbzj60Wx_-KPjFy_pad-30" x="66517.8" y="19480.4"/><use xlink:href="#WRyHOsbzj60Wx_-KPjFy_pad-30" x="53563.8" y="6399.4"/><use xlink:href="#WRyHOsbzj60Wx_-KPjFy_pad-30" x="66517.8" y="-3633.6"/><use xlink:href="#WRyHOsbzj60Wx_-KPjFy_pad-30" x="59024.8" y="19099.4"/><use xlink:href="#WRyHOsbzj60Wx_-KPjFy_pad-30" x="77185.8" y="16686.4"/><use xlink:href="#WRyHOsbzj60Wx_-KPjFy_pad-30" x="81757.8" y="-2490.6"/><use xlink:href="#WRyHOsbzj60Wx_-KPjFy_pad-30" x="59024.8" y="-2998.6"/><use xlink:href="#WRyHOsbzj60Wx_-KPjFy_pad-30" x="43712.8" y="-2617.6"/><use xlink:href="#WRyHOsbzj60Wx_-KPjFy_pad-30" x="60421.8" y="-1601.6"/><use xlink:href="#WRyHOsbzj60Wx_-KPjFy_pad-30" x="81884.8" y="9447.4"/><use xlink:href="#WRyHOsbzj60Wx_-KPjFy_pad-30" x="46854.8" y="-7316.6"/><use xlink:href="#WRyHOsbzj60Wx_-KPjFy_pad-30" x="77058.8" y="19988.4"/><use xlink:href="#WRyHOsbzj60Wx_-KPjFy_pad-30" x="75636.4" y="23193.947"/><use xlink:href="#WRyHOsbzj60Wx_-KPjFy_pad-30" x="75462.8" y="9574.4"/><use xlink:href="#WRyHOsbzj60Wx_-KPjFy_pad-30" x="43784.8" y="15162.4"/><use xlink:href="#WRyHOsbzj60Wx_-KPjFy_pad-30" x="69057.8" y="9447.4"/><use xlink:href="#WRyHOsbzj60Wx_-KPjFy_pad-30" x="89827.693" y="16614.775"/><use xlink:href="#WRyHOsbzj60Wx_-KPjFy_pad-30" x="75407.8" y="16686.4"/><use xlink:href="#WRyHOsbzj60Wx_-KPjFy_pad-30" x="84551.8" y="16686.4"/><use xlink:href="#WRyHOsbzj60Wx_-KPjFy_pad-30" x="88298.3" y="23163.4"/><use xlink:href="#WRyHOsbzj60Wx_-KPjFy_pad-30" x="41189.8" y="9574.4"/><use xlink:href="#WRyHOsbzj60Wx_-KPjFy_pad-30" x="59024.8" y="14527.4"/><use xlink:href="#WRyHOsbzj60Wx_-KPjFy_pad-30" x="90901.8" y="-5538.6"/><use xlink:href="#WRyHOsbzj60Wx_-KPjFy_pad-30" x="90380.693" y="17486.119"/><use xlink:href="#WRyHOsbzj60Wx_-KPjFy_pad-30" x="94140.3" y="14908.4"/><use xlink:href="#WRyHOsbzj60Wx_-KPjFy_pad-30" x="91155.8" y="-1347.6"/><use xlink:href="#WRyHOsbzj60Wx_-KPjFy_pad-30" x="85567.8" y="6272.4"/><use xlink:href="#WRyHOsbzj60Wx_-KPjFy_pad-30" x="85525.976" y="17477.184"/><use xlink:href="#WRyHOsbzj60Wx_-KPjFy_pad-30" x="90520.8" y="-2871.6"/><use xlink:href="#WRyHOsbzj60Wx_-KPjFy_pad-30" x="85294.785" y="-11742.585"/><use xlink:href="#WRyHOsbzj60Wx_-KPjFy_pad-30" x="56379.8" y="-7362.34"/><use xlink:href="#WRyHOsbzj60Wx_-KPjFy_pad-30" x="69184.8" y="-4141.6"/><use xlink:href="#WRyHOsbzj60Wx_-KPjFy_pad-30" x="68422.8" y="18083.4"/><use xlink:href="#WRyHOsbzj60Wx_-KPjFy_pad-30" x="62762.8" y="-4141.6"/><use xlink:href="#WRyHOsbzj60Wx_-KPjFy_pad-30" x="73096.4" y="23156.184"/><use xlink:href="#WRyHOsbzj60Wx_-KPjFy_pad-30" x="52928.8" y="-5411.6"/><use xlink:href="#WRyHOsbzj60Wx_-KPjFy_pad-30" x="82795.8" y="-7338.6"/><use xlink:href="#WRyHOsbzj60Wx_-KPjFy_pad-30" x="92715.532" y="-5653.022"/><use xlink:href="#WRyHOsbzj60Wx_-KPjFy_pad-30" x="69184.8" y="-2871.6"/><use xlink:href="#WRyHOsbzj60Wx_-KPjFy_pad-30" x="62961.8" y="-7316.6"/><use xlink:href="#WRyHOsbzj60Wx_-KPjFy_pad-30" x="47412.8" y="18464.4"/><use xlink:href="#WRyHOsbzj60Wx_-KPjFy_pad-30" x="52928.8" y="-1220.6"/><use xlink:href="#WRyHOsbzj60Wx_-KPjFy_pad-30" x="47412.8" y="811.4"/><use xlink:href="#WRyHOsbzj60Wx_-KPjFy_pad-30" x="53055.8" y="21385.4"/><use xlink:href="#WRyHOsbzj60Wx_-KPjFy_pad-30" x="79217.8" y="-3887.6"/><use xlink:href="#WRyHOsbzj60Wx_-KPjFy_pad-30" x="77566.8" y="-7316.6"/><use xlink:href="#WRyHOsbzj60Wx_-KPjFy_pad-30" x="83281.8" y="20559.9"/><use xlink:href="#WRyHOsbzj60Wx_-KPjFy_pad-30" x="88336.4" y="-7316.6"/><use xlink:href="#WRyHOsbzj60Wx_-KPjFy_pad-30" x="79090.8" y="19480.4"/><use xlink:href="#WRyHOsbzj60Wx_-KPjFy_pad-30" x="85512.8" y="-3887.6"/><use xlink:href="#WRyHOsbzj60Wx_-KPjFy_pad-30" x="86710.8" y="23163.4"/><use xlink:href="#WRyHOsbzj60Wx_-KPjFy_pad-30" x="82639.352" y="18261.845"/><use xlink:href="#WRyHOsbzj60Wx_-KPjFy_pad-30" x="83662.8" y="-1855.6"/><use xlink:href="#WRyHOsbzj60Wx_-KPjFy_pad-30" x="66517.8" y="6272.4"/><use xlink:href="#WRyHOsbzj60Wx_-KPjFy_pad-30" x="72867.8" y="-712.6"/><use xlink:href="#WRyHOsbzj60Wx_-KPjFy_pad-30" x="79217.8" y="6145.4"/><use xlink:href="#WRyHOsbzj60Wx_-KPjFy_pad-30" x="85694.8" y="-7316.6"/><use xlink:href="#WRyHOsbzj60Wx_-KPjFy_pad-30" x="72867.8" y="6272.4"/><use xlink:href="#WRyHOsbzj60Wx_-KPjFy_pad-30" x="83662.8" y="-4649.6"/><use xlink:href="#WRyHOsbzj60Wx_-KPjFy_pad-30" x="40101.8" y="-7316.6"/><use xlink:href="#WRyHOsbzj60Wx_-KPjFy_pad-30" x="37561.8" y="21067.9"/><use xlink:href="#WRyHOsbzj60Wx_-KPjFy_pad-30" x="40076.4" y="23188.8"/><use xlink:href="#WRyHOsbzj60Wx_-KPjFy_pad-30" x="42616.4" y="23125.3"/><use xlink:href="#WRyHOsbzj60Wx_-KPjFy_pad-30" x="45156.4" y="23125.3"/><path d="M 18942.8 -1646.6 18442.8 -2146.6 18442.8 -5146.6 16692.8 -3396.6 M 21192.8 -7896.6 18442.8 -5146.6 M 18942.8 -1646.6 18692.8 -1396.6 M 20442.8 -3146.6 18942.8 -1646.6 M 14942.8 -5646.6 16442.8 -7146.6 M 14442.8 -5646.6 18692.8 -1396.6 M 14277.8 -5811.6 14442.8 -5646.6 14942.8 -5646.6 M 18442.8 -10646.6 22942.8 -6146.6 23442.8 -6146.6 M 23607.8 -6311.6 23442.8 -6146.6 21942.8 -4646.6 M 18442.8 -10646.6 14277.8 -14811.6 M 21192.8 -7896.6 18442.8 -10646.6 M 14277.8 -14811.6 14277.8 -16281.6 M 23607.8 -10311.6 21192.8 -7896.6 M 20942.8 -4646.6 18192.8 -7396.6 M 21942.8 -4646.6 20942.8 -4646.6 M 21942.8 -4646.6 21192.8 -3896.6 M 23607.8 -18821.6 23607.8 -10311.6 M 16692.8 -3396.6 18692.8 -1396.6 M 15442.8 -4646.6 16692.8 -3396.6 M 21192.8 -3896.6 20442.8 -3146.6 M 14277.8 -18821.6 14277.8 -10811.6 21192.8 -3896.6 M 17942.8 -7146.6 16442.8 -7146.6 20442.8 -3146.6 M 18192.8 -7396.6 17942.8 -7146.6 M 18192.8 -7396.6 23607.8 -12811.6 M 15442.8 -4646.6 18192.8 -7396.6 M 14277.8 -9311.6 16442.8 -7146.6 M 23607.8 -12811.6 23607.8 -17551.6 M 14277.8 -17551.6 14277.8 -9311.6 M 23607.8 -17551.6 23607.8 -6311.6 M 23607.8 -11201.6 23607.8 -6311.6 M 14277.8 -11201.6 14277.8 -5811.6 M 18692.8 -1396.6 18942.8 -1146.6 M 3242.8 -14646.6 2342.8 -13746.6 M 3242.8 -16246.6 3242.8 -14646.6 M 3242.8 -16246.6 6442.8 -16246.6 M 9642.8 -13846.6 8042.8 -12246.6 M 9642.8 -16246.6 9642.8 -13846.6 M 1642.8 -16246.6 2342.8 -15546.6 2342.8 -13746.6 4842.8 -16246.6 M 1642.8 -13046.6 2342.8 -13746.6 M 8042.8 -16246.6 7442.8 -15646.6 M 7442.8 -13646.6 5692.8 -15396.6 M 7442.8 -15646.6 7442.8 -13646.6 M 8042.8 -13046.6 7442.8 -13646.6 M 6442.8 -16246.6 6442.8 -16146.6 5692.8 -15396.6 4842.8 -16246.6 M 7242.8 -13046.6 6442.8 -12246.6 M 8042.8 -13046.6 7242.8 -13046.6 M 9642.8 -12246.6 5642.8 -12246.6 4842.8 -13046.6 4042.8 -13046.6 M 842.8 -11446.6 1642.8 -11446.6 M 42.8 -12246.6 842.8 -11446.6 M 42.8 -12246.6 42.8 -11446.6 M -757.2 -13046.6 42.8 -12246.6 M 842.8 -14646.6 -757.2 -13046.6 M 842.8 -16246.6 842.8 -14646.6 M 4042.8 -15446.6 4042.8 -11446.6 M 4842.8 -16246.6 4042.8 -15446.6 M 842.8 -13046.6 1642.8 -13046.6 M 842.8 -16246.6 842.8 -13046.6 M -1557.2 -11446.6 -757.2 -11446.6 42.8 -11446.6 1642.8 -11446.6 1942.8 -11146.6 4692.8 -8396.6 M 842.8 -12246.6 1942.8 -11146.6 M 4242.8 -9646.6 5642.8 -9646.6 M 2442.8 -11446.6 4242.8 -9646.6 M 5642.8 -10146.6 5642.8 -9646.6 5642.8 -9346.6 M 3242.8 -11446.6 4542.8 -10146.6 5642.8 -10146.6 M 4342.8 -11446.6 5642.8 -10146.6 M 4042.8 -11446.6 4342.8 -11446.6 M 5642.8 -10646.6 5642.8 -10146.6 M 4842.8 -11446.6 5642.8 -10646.6 M 4692.8 -8396.6 8442.8 -4646.6 M 5642.8 -11446.6 5642.8 -9346.6 4692.8 -8396.6 M 9942.8 -10946.6 9942.8 -9146.6 M 10442.8 -11446.6 9942.8 -10946.6 M 9942.8 -9146.6 14442.8 -4646.6 M 9442.8 -9646.6 9942.8 -9146.6 M 9642.8 -9846.6 9442.8 -9646.6 M 8692.8 -10396.6 9442.8 -9646.6 M 9642.8 -11446.6 9642.8 -9846.6 M 8842.8 -10546.6 8692.8 -10396.6 M 8842.8 -11446.6 8842.8 -10546.6 M 7642.8 -11446.6 8692.8 -10396.6 M 7242.8 -9346.6 11942.8 -4646.6 M 7242.8 -11446.6 7242.8 -9346.6 M 11942.8 -4646.6 14442.8 -4646.6 M 10442.8 -4646.6 11942.8 -4646.6 M 6442.8 -8646.6 10442.8 -4646.6 M 6442.8 -11446.6 6442.8 -8646.6 M 8442.8 -4646.6 10442.8 -4646.6 M 14442.8 -4646.6 15442.8 -4646.6 M 7242.8 -11446.6 7642.8 -11446.6 M 18942.8 -1146.6 18942.8 1353.4 M 23442.8 1353.4 18942.8 1353.4 4442.8 1353.4 M 23607.8 -12471.6 25782.8 -14646.6 M 27942.8 -14646.6 28442.8 -14646.6 M 24512.8 -14646.6 27942.8 -14646.6 M 25782.8 -14646.6 27942.8 -14646.6 M 23607.8 -13741.6 24512.8 -14646.6 M 23742.8 -15146.6 28442.8 -15146.6 M 23607.8 -15011.6 23742.8 -15146.6 M 28442.8 -15146.6 28442.8 -16146.6 M 28442.8 -14646.6 28442.8 -15146.6 M 23607.8 -16281.6 28307.8 -16281.6 M 28442.8 -16146.6 28442.8 -17646.6 M 28307.8 -16281.6 28442.8 -16146.6 M 23607.8 -17551.6 28347.8 -17551.6 M 28442.8 -17646.6 28442.8 -18646.6 M 28347.8 -17551.6 28442.8 -17646.6 M 28267.8 -18821.6 28442.8 -18646.6 28442.8 -19146.6 M 23607.8 -18821.6 28267.8 -18821.6 M 28442.8 -19146.6 25942.8 -21646.6 M 24997.8 -11201.6 28442.8 -14646.6 M 23607.8 -11201.6 24997.8 -11201.6 M 14277.8 -14446.6 12442.8 -16281.6 M 14277.8 -11201.6 14277.8 -14446.6 M 14277.8 -14211.6 11892.8 -16596.6 M 14277.8 -12471.6 14277.8 -14211.6 M 14277.8 -13741.6 14277.8 -14211.6 M 14277.8 -12471.6 14277.8 -14446.6 M 14277.8 -13741.6 14277.8 -14446.6 M 12442.8 -16281.6 12207.8 -16281.6 M 14277.8 -16281.6 12442.8 -16281.6 M 14277.8 -14211.6 11442.8 -17046.6 M 14277.8 -15011.6 12692.8 -16596.6 11892.8 -16596.6 11442.8 -17046.6 M 12207.8 -16281.6 11892.8 -16596.6 M 12947.8 -17551.6 12442.8 -17046.6 M 14277.8 -17551.6 12947.8 -17551.6 M 12442.8 -17046.6 11442.8 -17046.6 M 12502.8 -17046.6 12442.8 -17046.6 M 11442.8 -17046.6 10442.8 -17046.6 M 14277.8 -18821.6 12502.8 -17046.6 M 14277.8 -20091.6 11232.8 -17046.6 9642.8 -17046.6 M 7942.8 -21146.6 7942.8 -20346.6 M 8442.8 -21646.6 7942.8 -21146.6 M 7942.8 -20346.6 10442.8 -17846.6 M 24387.8 -20091.6 25942.8 -21646.6 8442.8 -21646.6 M 23607.8 -20091.6 24387.8 -20091.6 M -121557.2 7253.4 -124557.2 7253.4 M -4557.2 10353.4 -6057.2 10353.4 M 13092.8 19203.4 14442.8 17853.4 M -127557.2 -6146.6 -127557.2 -9146.6 M -119557.2 -24146.6 -6057.2 -24146.6 M 7442.8 29353.4 20442.8 29353.4 M -125807.2 6103.4 -127557.2 4353.4 M 442.8 6853.4 -307.2 6103.4 M -6057.2 19353.4 -6057.2 20353.4 M 8892.8 12703.4 8892.8 6903.4 M 20442.8 29353.4 20442.8 20353.4 M -127557.2 -4646.6 -127557.2 -6146.6 M -121557.2 -13066.6 -124477.2 -13066.6 M -125557.2 -14146.6 -127557.2 -14146.6 M -207.2 19853.4 -3057.2 19853.4 M 24442.8 10353.4 24942.8 10853.4 M -557.2 29353.4 7442.8 29353.4 M -127557.2 -14146.6 -127557.2 -16146.6 M 27192.8 24603.4 25942.8 25853.4 M -207.2 12703.4 4292.8 8203.4 M -907.2 21853.4 -6057.2 21853.4 M 292.8 19353.4 -6057.2 19353.4 M -6057.2 17353.4 -6057.2 19353.4 M 10842.8 12703.4 10842.8 9953.4 M 5642.8 27553.4 7442.8 29353.4 M -119537.2 12333.4 -98057.2 -9146.6 M -121557.2 -2906.6 -127297.2 -2906.6 M 25942.8 25853.4 24942.8 24853.4 M -207.2 14003.4 -2557.2 14003.4 M -126177.2 -10526.6 -127557.2 -9146.6 M 17942.8 6853.4 20942.8 6853.4 M 4292.8 8203.4 5642.8 6853.4 M -857.2 14003.4 -2557.2 14003.4 M 5642.8 6853.4 8942.8 6853.4 M -127297.2 -2906.6 -127557.2 -2646.6 M -121557.2 12333.4 -119537.2 12333.4 M 20942.8 6853.4 24942.8 10853.4 M 442.8 19203.4 292.8 19353.4 M -7057.2 -10146.6 -7057.2 -16646.6 M -121557.2 -18146.6 -121557.2 -15606.6 M -2557.2 14003.4 -3557.2 14003.4 M -3057.2 19853.4 -5557.2 19853.4 M 17942.8 17903.4 20992.8 17903.4 M 14692.8 10103.4 17942.8 6853.4 M 13842.8 17253.4 10192.8 17253.4 M 24942.8 10853.4 24942.8 2853.4 M 2392.8 15303.4 1092.8 14003.4 M 1442.8 -24146.6 1942.8 -24646.6 M 6292.8 12703.4 6292.8 10203.4 M 27192.8 24103.4 27192.8 24603.4 M 14942.8 10353.4 24442.8 10353.4 M 20992.8 17903.4 23692.8 20603.4 M 14942.8 10353.4 14692.8 10103.4 M -124477.2 -13066.6 -125557.2 -14146.6 M 13442.8 12703.4 13442.8 11353.4 M 8892.8 6903.4 8942.8 6853.4 M -121557.2 4713.4 -124097.2 7253.4 M -124657.2 7253.4 -125807.2 6103.4 M 16692.8 17903.4 17942.8 17903.4 M -127557.2 -2646.6 -127557.2 -4646.6 M -121877.2 2173.4 -125807.2 6103.4 M 13942.8 6853.4 17942.8 6853.4 M 14092.8 17903.4 17942.8 17903.4 M -121557.2 -7986.6 -125717.2 -7986.6 M 14442.8 17853.4 13842.8 17253.4 M 15792.8 12703.4 23692.8 20603.4 M 23092.8 12703.4 27192.8 16803.4 M 24942.8 2853.4 23442.8 1353.4 M 5642.8 6853.4 442.8 6853.4 M -121557.2 -5446.6 -126757.2 -5446.6 M 107359.7 1970.9 107359.7 224.294 M 10842.8 9953.4 13942.8 6853.4 M 26192.8 23603.4 26192.8 23103.4 M 4442.8 1353.4 -307.2 6103.4 M -6057.2 -24146.6 1442.8 -24146.6 M -127557.2 4353.4 -127557.2 -2646.6 M 107359.7 224.294 108836.4 -1252.406 M -121557.2 -15606.6 -123017.2 -14146.6 M 27192.8 24103.4 31942.8 28853.4 M 24942.8 24853.4 26192.8 23603.4 M 27192.8 16803.4 27192.8 24103.4 M -5557.2 19853.4 -6057.2 20353.4 M 6292.8 10203.4 4292.8 8203.4 M 24942.8 10853.4 23092.8 12703.4 M -207.2 17253.4 -5957.2 17253.4 M -6057.2 23853.4 -557.2 29353.4 M -125717.2 -7986.6 -127557.2 -6146.6 M -124557.2 7253.4 -124657.2 7253.4 M -120057.2 -23646.6 -119557.2 -24146.6 M 13442.8 11353.4 14692.8 10103.4 M 8942.8 6853.4 13942.8 6853.4 M -121557.2 2173.4 -121877.2 2173.4 M -6057.2 21853.4 -6057.2 23853.4 M 23692.8 20603.4 26192.8 23103.4 M -121557.2 -10526.6 -126177.2 -10526.6 M -121557.2 -366.6 -121557.2 2173.4 M 14942.8 12703.4 14942.8 10353.4 M 4442.8 1353.4 -7057.2 -10146.6 M -123017.2 -14146.6 -125557.2 -14146.6 M 14092.8 12703.4 14942.8 12703.4 M 13442.8 14653.4 16692.8 17903.4 M -126757.2 -5446.6 -127557.2 -4646.6 M -207.2 18553.4 -1757.2 18553.4 M -207.2 21153.4 -907.2 21853.4 M 5642.8 27003.4 5642.8 27553.4 M -127557.2 -9146.6 -127557.2 -14146.6 M -5957.2 17253.4 -6057.2 17353.4 M 23092.8 12703.4 15792.8 12703.4 M 20442.8 29353.4 24942.8 24853.4 M -207.2 14653.4 -857.2 14003.4 M -6057.2 15353.4 -6057.2 13853.4 M 26192.8 23103.4 27192.8 24103.4 M -6057.2 13853.4 -6057.2 17353.4 M -6057.2 10353.4 -6057.2 13853.4 M -3557.2 14003.4 -4707.2 14003.4 M -307.2 6103.4 -4557.2 10353.4 M 7592.8 19203.4 13092.8 19203.4 M -1757.2 18553.4 -3057.2 19853.4 M -6057.2 20353.4 -6057.2 21853.4 M -124097.2 7253.4 -124557.2 7253.4 M 14942.8 12703.4 15792.8 12703.4 M -4707.2 14003.4 -6057.2 15353.4 M 1092.8 14003.4 -3557.2 14003.4 M -127557.2 -16146.6 -120057.2 -23646.6 M 14092.8 27003.4 14242.8 26853.4 M 2942.8 -23646.6 2942.8 -22525.794 M 15042.8 22453.4 15442.8 22853.4" fill="none" stroke-width="254"/><path d="M 137006.4 1852.594 134836.4 -317.406" fill="none" stroke-width="250"/><path d="M -90557.2 15353.4 -90557.2 -17646.6 M 94942.8 -14646.6 94942.8 -13146.6" fill="none" stroke-width="1000"/><path d="M -7678.006 -16025.794 -10985.8 -16025.794" fill="none" stroke-width="254"/><path d="M -25037.2 12333.4 -25037.2 9373.4 M -121557.2 -10526.6 -106177.2 -10526.6" fill="none" stroke-width="1000"/><path d="M 41254.2 -5355.794 40341.7 -6268.294 M -2057.2 30853.4 18442.8 30853.4 M 15442.8 26853.4 15442.8 22353.4" fill="none" stroke-width="250"/><path d="M -25037.2 -366.6 -25037.2 2173.4" fill="none" stroke-width="1000"/><path d="M 41464.2 -3025.794 41254.2 -2815.794" fill="none" stroke-width="250"/><path d="M 14542.8 23753.4 15442.8 22853.4" fill="none" stroke-width="254"/><path d="M 134956.4 6228.794 136511.903 7784.297" fill="none" stroke-width="250"/><path d="M 113963.1 18333.1 130942.8 1353.4" fill="none" stroke-width="1000"/><path d="M 41254.2 -1470.794 41254.2 -1545.794" fill="none" stroke-width="250"/><path d="M 15267.8 20528.4 15267.8 18028.4" fill="none" stroke-width="254"/><path d="M 37934.2 -4025.794 37434.2 -3525.794" fill="none" stroke-width="250"/><path d="M 15442.8 21203.4 15442.8 21853.4" fill="none" stroke-width="254"/><path d="M 14942.8 21853.4 14442.8 21353.4" fill="none" stroke-width="250"/><path d="M 134442.8 -19146.6 134442.8 -11228.212" fill="none" stroke-width="1000"/><path d="M 38604.2 -11840.794 38374.2 -12070.794 M 16692.8 28103.4 15442.8 26853.4" fill="none" stroke-width="250"/><path d="M 36442.8 -24146.6 39942.8 -24146.6 M 14092.8 22453.4 15042.8 22453.4" fill="none" stroke-width="254"/><path d="M 40341.7 -4998.294 40341.7 -6268.294 M 41374.2 -11840.794 38604.2 -11840.794 M 41254.2 4955.406 41254.2 -1545.794" fill="none" stroke-width="250"/><path d="M -121557.2 19953.4 -94457.2 -7146.6" fill="none" stroke-width="1000"/><path d="M -13525.8 19384.8 -2057.2 30853.4" fill="none" stroke-width="250"/><path d="M 14092.8 19853.4 15442.8 21203.4" fill="none" stroke-width="254"/><path d="M -121557.2 -18146.6 -18186.606 -18146.6 M -65157.2 15853.4 -39057.2 15853.4" fill="none" stroke-width="1000"/><path d="M 15442.8 22353.4 15442.8 21853.4 M 109523.1 -4296.9 96583.1 -4296.9 M 16692.8 23603.4 16692.8 28103.4" fill="none" stroke-width="250"/><path d="M -94457.2 -7146.6 -90557.2 -7146.6 M -104557.2 29353.4 -121557.2 29353.4" fill="none" stroke-width="1000"/><path d="M 134956.4 -10687.406 134956.4 6228.794 M 18442.8 30853.4 18942.8 30353.4" fill="none" stroke-width="250"/><path d="M 130942.8 1353.4 133511.903 3922.503" fill="none" stroke-width="1000"/><path d="M 39942.8 -19534.394 37934.2 -17525.794" fill="none" stroke-width="254"/><path d="M 134442.8 -11228.212 134983.606 -10687.406" fill="none" stroke-width="1000"/><path d="M -7057.2 -16646.6 -7678.006 -16025.794" fill="none" stroke-width="254"/><path d="M -13525.8 -16065.794 -7065.8 -22525.794" fill="none" stroke-width="250"/><path d="M 36442.8 -21146.6 36442.8 -24146.6" fill="none" stroke-width="254"/><path d="M -17065.8 1474.206 -17065.8 9474.206" fill="none" stroke-width="250"/><path d="M 101553.1 24743.1 102442.8 23853.4" fill="none" stroke-width="1000"/><path d="M 106993.1 -571.9 104493.1 -571.9 M -9825.8 -785.794 -13525.8 -785.794 M 104493.1 -571.9 100543.1 -571.9" fill="none" stroke-width="250"/><path d="M -107777.2 -14146.6 -90557.2 -14146.6" fill="none" stroke-width="1000"/><path d="M -13525.8 5353.4 -13525.8 5754.166" fill="none" stroke-width="250"/><path d="M 102754.5 12041.7 104442.8 12041.7 M 101553.1 12857.5 101553.1 19222.8" fill="none" stroke-width="1000"/><path d="M 14092.8 21153.4 14242.8 21153.4" fill="none" stroke-width="254"/><path d="M 107359.7 1970.9 107359.7 7050.9 M 41254.2 -1545.794 40341.7 -2458.294" fill="none" stroke-width="250"/><path d="M -57537.2 15853.4 -27557.2 15853.4 M 133942.8 -18646.6 134442.8 -19146.6" fill="none" stroke-width="1000"/><path d="M 15267.8 18028.4 15442.8 17853.4 M 24942.8 -9646.6 36442.8 -21146.6 M 39942.8 -24146.6 39942.8 -19534.394" fill="none" stroke-width="254"/><path d="M -62617.2 15853.4 -22057.2 15853.4" fill="none" stroke-width="1000"/><path d="M 40341.7 -3728.294 40341.7 -4998.294 M 38604.2 2305.406 41254.2 4955.406 M 40341.7 -7538.294 39726.7 -8153.294" fill="none" stroke-width="250"/><path d="M -60077.2 15853.4 -35244.994 15853.4 M 102442.8 18333.1 113963.1 18333.1 M 90942.8 -18646.6 94942.8 -14646.6" fill="none" stroke-width="1000"/><path d="M 138203 4395.394 138203 3049.194 M 37434.2 -3525.794 37434.2 -525.794 M 101705.3 7050.9 99739.7 7050.9 M -16065.8 -785.794 -16065.8 5814.166" fill="none" stroke-width="250"/><path d="M -57537.2 15853.4 -47944.994 15853.4 M 100286.4 24227.594 86046.4 9987.594" fill="none" stroke-width="1000"/><path d="M 137456.4 582.594 137456.4 1402.594" fill="none" stroke-width="250"/><path d="M 14242.8 26853.4 15442.8 26853.4 M 30942.8 38653.4 -12357.2 38653.4 M 14092.8 19203.4 15267.8 20378.4" fill="none" stroke-width="254"/><path d="M -32704.994 15853.4 -16065.8 -785.794 M 133511.903 3922.503 133511.903 4784.297 M -25037.2 9373.4 -25631.097 8779.503 M 94942.8 -13146.6 96942.8 -11146.6" fill="none" stroke-width="1000"/><path d="M -13525.8 -785.794 -13525.8 5353.4" fill="none" stroke-width="250"/><path d="M -90557.2 15853.4 -47944.994 15853.4" fill="none" stroke-width="1000"/><path d="M 110103.1 -736.9 109938.1 -571.9 M 133511.903 4784.297 130698.506 1970.9 M 37934.2 -17525.794 37934.2 -4025.794" fill="none" stroke-width="250"/><path d="M 15267.8 20528.4 15267.8 21028.4" fill="none" stroke-width="254"/><path d="M 40341.7 -6268.294 40341.7 -7538.294" fill="none" stroke-width="250"/><path d="M -18186.606 -18146.6 -16065.8 -16025.794" fill="none" stroke-width="1000"/><path d="M 38374.2 -10775.794 39726.7 -9423.294" fill="none" stroke-width="250"/><path d="M 101553.1 19222.8 102442.8 18333.1 M -47944.994 15853.4 -16065.8 -16025.794" fill="none" stroke-width="1000"/><path d="M -16065.8 -785.794 -13525.8 -785.794 M 18942.8 30353.4 16692.8 28103.4 M -13525.8 5353.4 -13525.8 19384.8 M 15442.8 22353.4 16692.8 23603.4" fill="none" stroke-width="250"/><path d="M -25037.2 30113.4 -39297.2 15853.4" fill="none" stroke-width="1000"/><path d="M 103553.1 5203.1 101705.3 7050.9" fill="none" stroke-width="250"/><path d="M 102442.8 23853.4 102442.8 12353.4" fill="none" stroke-width="1000"/><path d="M -99057.2 -10146.6 -99057.2 -14146.6" fill="none" stroke-width="254"/><path d="M 102279.7 1970.9 100543.1 234.3" fill="none" stroke-width="250"/><path d="M -90557.2 15353.4 -104557.2 29353.4 M -52457.2 15853.4 -32704.994 15853.4" fill="none" stroke-width="1000"/><path d="M -12557.2 38853.4 -16065.8 35344.8 M 15267.8 20378.4 15267.8 20528.4" fill="none" stroke-width="254"/><path d="M 136511.903 7784.297 133511.903 4784.297 M 109938.1 -571.9 106993.1 -571.9 M 137456.4 1402.594 137006.4 1852.594 M 138203 3049.194 137006.4 1852.594 M 137736.4 -9417.406 134956.4 -9417.406 M -7065.8 -22525.794 32934.2 -22525.794 M 38604.2 -11840.794 38604.2 2305.406" fill="none" stroke-width="250"/><path d="M -16057.2 -16034.394 -16065.8 -16025.794 M 115442.8 -18646.6 133942.8 -18646.6 M -16057.2 -20646.6 -16057.2 -16034.394" fill="none" stroke-width="1000"/><path d="M 105400.9 7050.9 103553.1 5203.1" fill="none" stroke-width="250"/><path d="M 14092.8 23753.4 14542.8 23753.4" fill="none" stroke-width="254"/><path d="M 102442.8 12353.4 102754.5 12041.7" fill="none" stroke-width="1000"/><path d="M 40341.7 -2458.294 40341.7 -3728.294" fill="none" stroke-width="250"/><path d="M -121557.2 25033.4 -114237.2 25033.4" fill="none" stroke-width="1000"/><path d="M 39726.7 -8153.294 39726.7 -9423.294" fill="none" stroke-width="250"/><path d="M 96942.8 -11146.6 96942.8 -9376.9" fill="none" stroke-width="1000"/><path d="M 107359.7 1970.9 106993.1 1604.3 M 39726.7 -9423.294 41254.2 -7895.794 M 41254.2 -4085.794 40341.7 -4998.294" fill="none" stroke-width="250"/><path d="M 105442.8 13041.7 105442.8 14853.4" fill="none" stroke-width="1000"/><path d="M 106993.1 1604.3 106993.1 -571.9" fill="none" stroke-width="250"/><path d="M -23118.006 -16025.794 -13525.8 -16025.794 M -10936.394 -16025.794 -10985.8 -16025.794 M 112821.994 -16025.794 115442.8 -18646.6 M -25037.2 25033.4 -25037.2 22873.4" fill="none" stroke-width="1000"/><path d="M 130698.506 1970.9 107359.7 1970.9" fill="none" stroke-width="250"/><path d="M -87557.2 -20646.6 -16057.2 -20646.6" fill="none" stroke-width="1000"/><path d="M 109523.1 -9376.9 96942.8 -9376.9 M 107359.7 7050.9 105400.9 7050.9 M 15442.8 21853.4 14942.8 21853.4" fill="none" stroke-width="250"/><path d="M -54997.2 15853.4 -23118.006 -16025.794" fill="none" stroke-width="1000"/><path d="M -16065.8 35344.8 -16065.8 353.4" fill="none" stroke-width="254"/><path d="M -39297.2 15853.4 -49557.2 15853.4" fill="none" stroke-width="1000"/><path d="M 24942.8 2853.4 24942.8 -9646.6" fill="none" stroke-width="254"/><path d="M 134983.606 -10687.406 134956.4 -10687.406" fill="none" stroke-width="250"/><path d="M -39057.2 15853.4 -9057.2 -14146.6" fill="none" stroke-width="1000"/><path d="M 38374.2 -12070.794 38374.2 -10775.794" fill="none" stroke-width="250"/><path d="M 39055.006 -18646.6 37934.2 -17525.794 M 115442.8 -18646.6 90942.8 -18646.6" fill="none" stroke-width="1000"/><path d="M 41374.2 -10570.794 41374.2 -11840.794" fill="none" stroke-width="250"/><path d="M 102442.8 12353.4 102442.8 11967.8 M -121557.2 -366.6 -107777.2 -14146.6" fill="none" stroke-width="1000"/><path d="M 1942.8 -24646.6 2942.8 -23646.6" fill="none" stroke-width="254"/><path d="M 104493.1 4184.3 104493.1 -571.9 M 96942.8 -9376.9 96583.1 -9376.9 M 137006.4 -10687.406 134983.606 -10687.406" fill="none" stroke-width="250"/><path d="M -10985.8 -16025.794 -13525.8 -16025.794 M -12357.2 38653.4 -12557.2 38853.4" fill="none" stroke-width="254"/><path d="M -114237.2 25033.4 -90557.2 1353.4 M 90942.8 -18646.6 39055.006 -18646.6" fill="none" stroke-width="1000"/><path d="M -13525.8 -16025.794 -13525.8 -16065.794" fill="none" stroke-width="250"/><path d="M 14092.8 26353.4 14092.8 25703.4" fill="none" stroke-width="254"/><path d="M 105442.8 9853.4 105442.8 16353.4" fill="none" stroke-width="1000"/><path d="M 41254.2 -6625.794 40341.7 -7538.294" fill="none" stroke-width="250"/><path d="M -106177.2 -10526.6 -102557.2 -14146.6" fill="none" stroke-width="1000"/><path d="M -98057.2 -9146.6 -99057.2 -10146.6" fill="none" stroke-width="254"/><path d="M 41464.2 -8105.794 41254.2 -7895.794 M 138203 6935.394 138203 4395.394 M 41254.2 -2815.794 40341.7 -3728.294" fill="none" stroke-width="250"/><path d="M 105442.8 14853.4 105442.8 9853.4 M -90557.2 -17646.6 -87557.2 -20646.6 M -9057.2 -14146.6 -10936.394 -16025.794 M -121557.2 26853.4 -121557.2 29353.4" fill="none" stroke-width="1000"/><path d="M 14242.8 21153.4 14942.8 21853.4" fill="none" stroke-width="254"/><path d="M 104442.8 12041.7 105442.8 13041.7" fill="none" stroke-width="1000"/><path d="M 14092.8 25703.4 15442.8 24353.4" fill="none" stroke-width="254"/><path d="M 136511.903 7784.297 138203 9475.394 M 32934.2 -22525.794 37934.2 -17525.794" fill="none" stroke-width="250"/><path d="M -25037.2 22873.4 -32381.097 15529.503 M -90557.2 15853.4 -90557.2 15353.4" fill="none" stroke-width="1000"/><path d="M 60421.8 -7316.6 60421.8 -9920.1" fill="none" stroke-width="1500"/><path d="M 37489.8 11023.4 37437.8 10971.4 M 37489.8 4823.4 37437.8 4875.4 35783.8 4875.4 M 52928.8 -2617.6 52166.8 -1855.6" fill="none" stroke-width="250"/><path d="M 60421.8 -9920.1 60396.4 -9945.5" fill="none" stroke-width="1000"/><path d="M 35783.8 -5157.6 35783.8 4875.4 M 37942.8 -5284.6 37942.8 -7316.6 M 35783.8 21004.4 37942.8 23163.4 M 37437.8 10971.4 35783.8 10971.4 35783.8 21004.4 M 52928.8 -2617.6 52928.8 -4014.6 M 35783.8 4875.4 35783.8 10971.4 M 37942.8 -7316.6 35783.8 -5157.6 M 49935.8 6272.4 49935.8 4823.4 M 62762.8 4823.4 62762.8 6200.4 M 62762.8 4823.4 62762.8 11023.4 M 81812.8 18992.539 81817.47 18987.869 M 81812.8 21183.4 81812.8 18992.539 M 62834.8 6272.4 62762.8 6200.4 M 75534.8 -585.6 75462.8 -513.6 M 43657.8 10968.4 43657.8 9574.4 M 49935.8 11023.4 49935.8 9574.4 M 37992.8 -1986.6 37992.8 253.4 37942.8 303.4 M 80614.8 16559.4 81249.8 17194.4 M 49935.8 9574.4 49935.8 6272.4 M 81812.8 17757.4 81812.8 17194.4 M 75462.8 -5336.6 75462.8 863.4 M 75462.8 -513.6 75462.8 863.4 M 81122.8 -1093.6 80614.8 -585.6 M 81812.8 17194.4 81812.8 14983.4 M 43657.8 10968.4 43712.8 11023.4 M 43784.8 4895.4 43712.8 4823.4 M 80614.8 -585.6 80614.8 16559.4 M 81249.8 17194.4 81812.8 17194.4" fill="none" stroke-width="250"/><path d="M 78176.4 25614.5 78176.4 23140.115" fill="none" stroke-width="1500"/><path d="M 81812.8 21183.4 81812.8 17757.4 M 43712.8 4823.4 43712.8 11023.4 M 43784.8 6272.4 43784.8 4895.4 M 69112.8 21183.4 69112.8 19789.4 M 62762.8 16178.4 62762.8 19861.4 M 69112.8 14983.4 69112.8 21183.4" fill="none" stroke-width="250"/><path d="M 31942.8 28853.4 32442.8 28353.4" fill="none" stroke-width="254"/><path d="M 91854.757 20750.857 90901.8 20750.857 M 91689.2 25614.5 92679.8 24623.9 M 62762.8 14983.4 62762.8 16178.4 M 33181.7 25614.5 32442.8 26353.4 M 90876.4 25614.5 91689.2 25614.5 M 37942.8 16940.4 37942.8 15543.4" fill="none" stroke-width="250"/><path d="M 115042.8 38653.4 103915.3 38653.4" fill="none" stroke-width="254"/><path d="M 92679.8 24623.9 92679.8 21575.9 M 62762.8 19861.4 62762.8 21183.4 M 90876.4 25614.5 33181.7 25614.5 M 52928.8 15543.4 52928.8 16940.4 M 69057.8 19734.4 69112.8 19789.4" fill="none" stroke-width="250"/><path d="M 32442.8 28353.4 32442.8 26353.4 M 103915.3 38653.4 90876.4 25614.5" fill="none" stroke-width="254"/><path d="M 92679.8 21575.9 91854.757 20750.857 M 53563.8 6399.4 53635.8 6327.4 M 53456.8 5002.4 53635.8 4823.4 M 66462.8 863.4 67406.8 1807.4 M 66462.8 -3688.6 66462.8 -5336.6 M 67406.8 1807.4 67406.8 14039.4 M 59024.8 1319.4 59024.8 2843.4 M 66462.8 -5336.6 66462.8 -712.6 M 53635.8 6327.4 53635.8 4823.4 M 66517.8 19480.4 66517.8 21128.4" fill="none" stroke-width="250"/><path d="M 65476.4 -7316.6 65476.4 -9945.5" fill="none" stroke-width="1500"/><path d="M 66517.8 -3633.6 66462.8 -3688.6 M 66517.8 21128.4 66462.8 21183.4 M 59024.8 20623.4 59024.8 19099.4 M 67406.8 14039.4 66462.8 14983.4 M 66462.8 -712.6 66462.8 863.4 M 66462.8 21183.4 66462.8 14983.4 M 53635.8 4823.4 53635.8 11023.4 M 75462.8 9574.4 75462.8 4823.4 M 77185.8 16686.4 77185.8 19861.4 M 81884.8 10951.4 81884.8 9447.4 M 59024.8 -4776.6 59024.8 -2998.6 M 81884.8 10951.4 81812.8 11023.4 M 81812.8 -1982.6 81812.8 -1601.6 M 81812.8 -2490.6 81812.8 -1982.6 M 81757.8 -2490.6 81812.8 -2490.6" fill="none" stroke-width="250"/><path d="M 75636.4 25614.5 75636.4 23193.947" fill="none" stroke-width="1500"/><path d="M 43712.8 -2617.6 43712.8 -4066.6 M 77185.8 19861.4 77058.8 19988.4 M 81812.8 -1601.6 81812.8 863.4 M 75462.8 11023.4 75462.8 9574.4 M 43712.8 2133.4 43712.8 -2617.6 M 81812.8 11023.4 81812.8 4823.4 M 81812.8 -2490.6 81757.8 -2490.6 M 81812.8 863.4 81812.8 4823.4 M 81812.8 -5336.6 81812.8 -2490.6 M 60421.8 -1601.6 59024.8 -2998.6 M 81757.8 -2490.6 81812.8 -2490.6 M 90211.425 16614.775 89827.693 16614.775 M 41189.8 4823.4 41189.8 9574.4 M 89755.692 21706.008 88298.3 23163.4 M 69112.8 9502.4 69112.8 11023.4 M 69112.8 4823.4 69112.8 11023.4 M 41189.8 9574.4 41189.8 11023.4 M 89827.693 16614.775 89755.692 16686.776 M 43712.8 19913.4 43712.8 13713.4" fill="none" stroke-width="250"/><path d="M 88336.4 23201.5 88298.3 23163.4" fill="none" stroke-width="1500"/><path d="M 75407.8 16686.4 75407.8 15038.4 M 43712.8 13713.4 43712.8 15090.4 M 89755.692 16686.776 89755.692 21706.008" fill="none" stroke-width="250"/><path d="M 88336.4 25614.5 88336.4 23201.5" fill="none" stroke-width="1500"/><path d="M 75407.8 15038.4 75462.8 14983.4 M 91282.8 15543.4 90211.425 16614.775 M 69057.8 9447.4 69112.8 9502.4 M 75462.8 14983.4 75462.8 21183.4 M 59024.8 14527.4 59024.8 13003.4 M 43784.8 15162.4 43712.8 15090.4" fill="none" stroke-width="250"/><path d="M 88298.3 25576.4 88336.4 25614.5" fill="none" stroke-width="1000"/><path d="M 85512.8 4823.4 85512.8 11023.4 M 90260.246 22140.846 90260.246 17606.566 M 91155.8 176.4 91155.8 -1347.6" fill="none" stroke-width="250"/><path d="M 89885.8 -8954.9 89885.8 -5856.1" fill="none" stroke-width="500"/><path d="M 85512.8 14983.4 85512.8 18718.4 M 91282.8 23163.4 90260.246 22140.846" fill="none" stroke-width="250"/><path d="M 89885.8 -5856.1 90203.3 -5538.6" fill="none" stroke-width="500"/><path d="M 91282.8 303.4 91155.8 176.4 M 85567.8 6272.4 85512.8 6217.4 M 90260.246 17606.566 90380.693 17486.119 M 85512.8 6217.4 85512.8 4823.4" fill="none" stroke-width="250"/><path d="M 90203.3 -5538.6 90901.8 -5538.6" fill="none" stroke-width="500"/><path d="M 85512.8 17490.36 85525.976 17477.184 M 85512.8 11023.4 85512.8 14983.4 M 85512.8 18718.4 85512.8 21183.4" fill="none" stroke-width="250"/><path d="M 90876.4 -9945.5 89885.8 -8954.9" fill="none" stroke-width="500"/><path d="M 85512.8 18718.4 85512.8 17490.36 M 92715.532 -3796.332 91790.8 -2871.6 M 62762.8 -4141.6 62762.8 863.4 M 69184.8 -4141.6 69112.8 -4213.6 M 92715.532 -5653.022 92715.532 -3796.332 M 67914.8 17575.4 68422.8 18083.4 M 62762.8 -5336.6 62762.8 -4141.6 M 91790.8 -2871.6 90520.8 -2871.6 M 69112.8 -2871.6 69112.8 -2109.6 67914.8 -911.6 M 91282.8 -7316.6 91282.8 -7085.754 M 69112.8 -2109.6 69112.8 863.4 M 69112.8 -5336.6 69112.8 -4213.6 M 67914.8 -911.6 67914.8 17575.4 M 91282.8 -7085.754 92715.532 -5653.022 M 52928.8 -5411.6 52928.8 -7316.6 M 69112.8 -5336.6 69112.8 -2871.6 M 69184.8 -2871.6 69112.8 -2871.6 M 69184.8 -2871.6 69112.8 -2871.6 69184.8 -2871.6" fill="none" stroke-width="250"/><path d="M 73096.4 23156.184 73096.4 25614.5 M 62961.8 -9920.1 62936.4 -9945.5" fill="none" stroke-width="1500"/><path d="M 47412.8 11023.4 47412.8 4823.4 M 47412.8 2133.4 47412.8 4823.4 M 47412.8 11023.4 47412.8 13713.4 M 47412.8 811.4 47412.8 2133.4 M 47412.8 13713.4 47412.8 18464.4 M 52928.8 303.4 52928.8 -1220.6 M 47412.8 -4066.6 47412.8 811.4 M 53055.8 23036.4 52928.8 23163.4 M 53055.8 23036.4 53055.8 21385.4" fill="none" stroke-width="250"/><path d="M 62961.8 -7316.6 62961.8 -9920.1" fill="none" stroke-width="1500"/><path d="M 47412.8 18464.4 47412.8 19913.4 M 79090.8 19480.4 79162.8 19552.4 M 79162.8 14983.4 79162.8 21183.4 M 79217.8 -5281.6 79217.8 -3887.6" fill="none" stroke-width="250"/><path d="M 88336.4 -9945.5 88336.4 -7316.6" fill="none" stroke-width="1500"/><path d="M 85512.8 -3887.6 85512.8 863.4 M 80106.8 14039.4 79162.8 14983.4 M 79162.8 863.4 80106.8 1807.4 M 79162.8 19552.4 79162.8 21183.4 M 80106.8 1807.4 80106.8 14039.4 M 83281.8 18904.293 82639.352 18261.845 M 85512.8 -5336.6 85512.8 -3887.6 M 79162.8 -5336.6 79217.8 -5281.6 M 79162.8 -5336.6 79162.8 863.4 M 83281.8 20559.9 83281.8 18904.293 M 72867.8 808.4 72812.8 863.4 M 79162.8 4823.4 79162.8 6090.4" fill="none" stroke-width="250"/><path d="M 85796.4 -9945.5 85796.4 -7418.2" fill="none" stroke-width="1500"/><path d="M 72812.8 11023.4 72812.8 14983.4 M 72867.8 6272.4 72812.8 6217.4 M 72812.8 14983.4 72812.8 21183.4 M 72812.8 4823.4 72812.8 11023.4 M 72867.8 -712.6 72867.8 808.4 M 66462.8 11023.4 66462.8 4823.4 M 72812.8 6217.4 72812.8 4823.4 M 66517.8 6272.4 66462.8 6217.4 M 72812.8 -5336.6 72812.8 863.4 72812.8 4823.4" fill="none" stroke-width="250"/><path d="M 85796.4 -7418.2 85694.8 -7316.6" fill="none" stroke-width="1500"/><path d="M 83662.8 -4649.6 83662.8 -1855.6 M 79162.8 6090.4 79217.8 6145.4 M 79162.8 4823.4 79162.8 11023.4" fill="none" stroke-width="250"/><path d="M 85694.8 -9843.9 85796.4 -9945.5" fill="none" stroke-width="1000"/><path d="M 66462.8 4823.4 66462.8 6217.4" fill="none" stroke-width="250"/><path d="M 40076.4 -9945.5 40076.4 -7342 40101.8 -7316.6 M 37536.4 -9945.5 35241.7 -9945.5 M 40076.4 25614.5 40076.4 23188.8 M 42616.4 25614.5 42616.4 23125.3 M 45156.4 25614.5 45156.4 23125.3" fill="none" stroke-width="1500"/></g></svg>