<svg version="1.1" xmlns="http://www.w3.org/2000/svg" xmlns:xlink="http://www.w3.org/1999/xlink" stroke-linecap="round" stroke-linejoin="round" stroke-width="0" fill-rule="evenodd" width="267.4mm" height="182.25mm" viewBox="-133900 -93400 267400 182250" id="ACAx9hfAuDmpiyTBvrry"><defs><circle cx="0" cy="0" r="1250" id="ACAx9hfAuDmpiyTBvrry_pad-10"/><g id="ACAx9hfAuDmpiyTBvrry_pad-11"><polygon points="900,-900 900,900 -900,900 -900,-900"/><circle cx="900" cy="-900" r="200"/><circle cx="900" cy="900" r="200"/><circle cx="-900" cy="900" r="200"/><circle cx="-900" cy="-900" r="200"/><polygon points="1100,-900 1100,900 700,900 700,-900"/><polygon points="900,700 -900,700 -900,1100 900,1100"/><polygon points="-700,900 -700,-900 -1100,-900 -1100,900"/><polygon points="-900,-1100 900,-1100 900,-700 -900,-700"/></g><circle cx="0" cy="0" r="1100" id="ACAx9hfAuDmpiyTBvrry_pad-12"/><circle cx="0" cy="0" r="1000" id="ACAx9hfAuDmpiyTBvrry_pad-13"/><g id="ACAx9hfAuDmpiyTBvrry_pad-14"><polygon points="500,500 -500,500 -500,-500 500,-500"/><circle cx="500" cy="500" r="500"/><circle cx="-500" cy="500" r="500"/><circle cx="-500" cy="-500" r="500"/><circle cx="500" cy="-500" r="500"/><polygon points="500,0 -500,0 -500,1000 500,1000"/><polygon points="0,500 0,-500 -1000,-500 -1000,500"/><polygon points="-500,-1000 500,-1000 500,0 -500,0"/><polygon points="1000,-500 1000,500 0,500 0,-500"/></g><g id="ACAx9hfAuDmpiyTBvrry_pad-15"><polygon points="775,-205 775,205 -775,205 -775,-205"/><circle cx="775" cy="-205" r="200"/><circle cx="775" cy="205" r="200"/><circle cx="-775" cy="205" r="200"/><circle cx="-775" cy="-205" r="200"/><polygon points="975,-205 975,205 575,205 575,-205"/><polygon points="775,5 -775,5 -775,405 775,405"/><polygon points="-575,205 -575,-205 -975,-205 -975,205"/><polygon points="-775,-405 775,-405 775,-5 -775,-5"/></g><g id="ACAx9hfAuDmpiyTBvrry_pad-16"><polygon points="775,-130 775,130 -775,130 -775,-130"/><circle cx="775" cy="-130" r="200"/><circle cx="775" cy="130" r="200"/><circle cx="-775" cy="130" r="200"/><circle cx="-775" cy="-130" r="200"/><polygon points="975,-130 975,130 575,130 575,-130"/><polygon points="775,-70 -775,-70 -775,330 775,330"/><polygon points="-575,130 -575,-130 -975,-130 -975,130"/><polygon points="-775,-330 775,-330 775,70 -775,70"/></g><g id="ACAx9hfAuDmpiyTBvrry_pad-17"><polygon points="-775,130 -775,-130 775,-130 775,130"/><circle cx="-775" cy="130" r="200"/><circle cx="-775" cy="-130" r="200"/><circle cx="775" cy="-130" r="200"/><circle cx="775" cy="130" r="200"/><polygon points="-575,130 -575,-130 -975,-130 -975,130"/><polygon points="-775,-330 775,-330 775,70 -775,70"/><polygon points="975,-130 975,130 575,130 575,-130"/><polygon points="775,-70 -775,-70 -775,330 775,330"/></g><g id="ACAx9hfAuDmpiyTBvrry_pad-18"><polygon points="750,-400 750,400 -750,400 -750,-400"/><circle cx="750" cy="-400" r="200"/><circle cx="750" cy="400" r="200"/><circle cx="-750" cy="400" r="200"/><circle cx="-750" cy="-400" r="200"/><polygon points="950,-400 950,400 550,400 550,-400"/><polygon points="750,200 -750,200 -750,600 750,600"/><polygon points="-550,400 -550,-400 -950,-400 -950,400"/><polygon points="-750,-600 750,-600 750,-200 -750,-200"/></g><g id="ACAx9hfAuDmpiyTBvrry_pad-19"><polygon points="1025,-180 1025,180 -1025,180 -1025,-180"/><circle cx="1025" cy="-180" r="200"/><circle cx="1025" cy="180" r="200"/><circle cx="-1025" cy="180" r="200"/><circle cx="-1025" cy="-180" r="200"/><polygon points="1225,-180 1225,180 825,180 825,-180"/><polygon points="1025,-20 -1025,-20 -1025,380 1025,380"/><polygon points="-825,180 -825,-180 -1225,-180 -1225,180"/><polygon points="-1025,-380 1025,-380 1025,20 -1025,20"/></g><g id="ACAx9hfAuDmpiyTBvrry_pad-20"><polygon points="-750,350 -750,-350 750,-350 750,350"/><circle cx="-750" cy="350" r="200"/><circle cx="-750" cy="-350" r="200"/><circle cx="750" cy="-350" r="200"/><circle cx="750" cy="350" r="200"/><polygon points="-550,350 -550,-350 -950,-350 -950,350"/><polygon points="-750,-550 750,-550 750,-150 -750,-150"/><polygon points="950,-350 950,350 550,350 550,-350"/><polygon points="750,150 -750,150 -750,550 750,550"/></g><g id="ACAx9hfAuDmpiyTBvrry_pad-21"><polygon points="-762,750 -762,-750 762,-750 762,750"/><circle cx="-762" cy="750" r="200"/><circle cx="-762" cy="-750" r="200"/><circle cx="762" cy="-750" r="200"/><circle cx="762" cy="750" r="200"/><polygon points="-562,750 -562,-750 -962,-750 -962,750"/><polygon points="-762,-950 762,-950 762,-550 -762,-550"/><polygon points="962,-750 962,750 562,750 562,-750"/><polygon points="762,550 -762,550 -762,950 762,950"/></g><circle cx="0" cy="0" r="950" id="ACAx9hfAuDmpiyTBvrry_pad-22"/><rect x="-962" y="-1200" width="1924" height="2400" rx="962" ry="962" id="ACAx9hfAuDmpiyTBvrry_pad-23"/><circle cx="0" cy="0" r="550" id="ACAx9hfAuDmpiyTBvrry_pad-24"/><g id="ACAx9hfAuDmpiyTBvrry_pad-25"><polygon points="-525,700 -525,-700 525,-700 525,700"/><circle cx="-525" cy="700" r="200"/><circle cx="-525" cy="-700" r="200"/><circle cx="525" cy="-700" r="200"/><circle cx="525" cy="700" r="200"/><polygon points="-325,700 -325,-700 -725,-700 -725,700"/><polygon points="-525,-900 525,-900 525,-500 -525,-500"/><polygon points="725,-700 725,700 325,700 325,-700"/><polygon points="525,500 -525,500 -525,900 525,900"/></g><g id="ACAx9hfAuDmpiyTBvrry_pad-26"><polygon points="-700,-525 700,-525 700,525 -700,525"/><circle cx="-700" cy="-525" r="200"/><circle cx="700" cy="-525" r="200"/><circle cx="700" cy="525" r="200"/><circle cx="-700" cy="525" r="200"/><polygon points="-700,-725 700,-725 700,-325 -700,-325"/><polygon points="900,-525 900,525 500,525 500,-525"/><polygon points="700,325 -700,325 -700,725 700,725"/><polygon points="-500,525 -500,-525 -900,-525 -900,525"/></g><g id="ACAx9hfAuDmpiyTBvrry_pad-27"><polygon points="700,525 -700,525 -700,-525 700,-525"/><circle cx="700" cy="525" r="200"/><circle cx="-700" cy="525" r="200"/><circle cx="-700" cy="-525" r="200"/><circle cx="700" cy="-525" r="200"/><polygon points="700,325 -700,325 -700,725 700,725"/><polygon points="-500,525 -500,-525 -900,-525 -900,525"/><polygon points="-700,-725 700,-725 700,-325 -700,-325"/><polygon points="900,-525 900,525 500,525 500,-525"/></g></defs><g transform="translate(0,-4550) scale(1,-1)" fill="currentColor" stroke="currentColor"><use xlink:href="#ACAx9hfAuDmpiyTBvrry_pad-10" x="-132650" y="87600"/><use xlink:href="#ACAx9hfAuDmpiyTBvrry_pad-11" x="101553.1" y="22203.1"/><use xlink:href="#ACAx9hfAuDmpiyTBvrry_pad-12" x="101553.1" y="24743.1"/><use xlink:href="#ACAx9hfAuDmpiyTBvrry_pad-10" x="132250" y="-92150"/><use xlink:href="#ACAx9hfAuDmpiyTBvrry_pad-13" x="107359.7" y="7050.9"/><use xlink:href="#ACAx9hfAuDmpiyTBvrry_pad-13" x="107359.7" y="1970.9"/><use xlink:href="#ACAx9hfAuDmpiyTBvrry_pad-14" x="99739.7" y="7050.9"/><use xlink:href="#ACAx9hfAuDmpiyTBvrry_pad-13" x="99739.7" y="4510.9"/><use xlink:href="#ACAx9hfAuDmpiyTBvrry_pad-13" x="99739.7" y="1970.9"/><use xlink:href="#ACAx9hfAuDmpiyTBvrry_pad-13" x="102279.7" y="7050.9"/><use xlink:href="#ACAx9hfAuDmpiyTBvrry_pad-13" x="102279.7" y="4510.9"/><use xlink:href="#ACAx9hfAuDmpiyTBvrry_pad-13" x="102279.7" y="1970.9"/><use xlink:href="#ACAx9hfAuDmpiyTBvrry_pad-15" x="105373.1" y="10608.1"/><use xlink:href="#ACAx9hfAuDmpiyTBvrry_pad-16" x="105373.1" y="11183.1"/><use xlink:href="#ACAx9hfAuDmpiyTBvrry_pad-16" x="105373.1" y="11683.1"/><use xlink:href="#ACAx9hfAuDmpiyTBvrry_pad-16" x="105373.1" y="12183.1"/><use xlink:href="#ACAx9hfAuDmpiyTBvrry_pad-16" x="105373.1" y="12683.1"/><use xlink:href="#ACAx9hfAuDmpiyTBvrry_pad-17" x="105373.1" y="13183.1"/><use xlink:href="#ACAx9hfAuDmpiyTBvrry_pad-16" x="105373.1" y="13683.1"/><use xlink:href="#ACAx9hfAuDmpiyTBvrry_pad-16" x="105373.1" y="14183.1"/><use xlink:href="#ACAx9hfAuDmpiyTBvrry_pad-16" x="105373.1" y="14683.1"/><use xlink:href="#ACAx9hfAuDmpiyTBvrry_pad-16" x="105373.1" y="15183.1"/><use xlink:href="#ACAx9hfAuDmpiyTBvrry_pad-16" x="105373.1" y="15683.1"/><use xlink:href="#ACAx9hfAuDmpiyTBvrry_pad-15" x="105373.1" y="16258.1"/><use xlink:href="#ACAx9hfAuDmpiyTBvrry_pad-18" x="103053.1" y="9808.1"/><use xlink:href="#ACAx9hfAuDmpiyTBvrry_pad-19" x="105123.1" y="10028.1"/><use xlink:href="#ACAx9hfAuDmpiyTBvrry_pad-20" x="103053.1" y="16703.1"/><use xlink:href="#ACAx9hfAuDmpiyTBvrry_pad-19" x="105123.1" y="16838.1"/><use xlink:href="#ACAx9hfAuDmpiyTBvrry_pad-21" x="-121557.2" y="-18146.6"/><use xlink:href="#ACAx9hfAuDmpiyTBvrry_pad-22" x="-121557.2" y="-15606.6"/><use xlink:href="#ACAx9hfAuDmpiyTBvrry_pad-22" x="-121557.2" y="-13066.6"/><use xlink:href="#ACAx9hfAuDmpiyTBvrry_pad-22" x="-121557.2" y="-10526.6"/><use xlink:href="#ACAx9hfAuDmpiyTBvrry_pad-22" x="-121557.2" y="-7986.6"/><use xlink:href="#ACAx9hfAuDmpiyTBvrry_pad-22" x="-121557.2" y="-5446.6"/><use xlink:href="#ACAx9hfAuDmpiyTBvrry_pad-22" x="-121557.2" y="-2906.6"/><use xlink:href="#ACAx9hfAuDmpiyTBvrry_pad-22" x="-121557.2" y="-366.6"/><use xlink:href="#ACAx9hfAuDmpiyTBvrry_pad-22" x="-121557.2" y="2173.4"/><use xlink:href="#ACAx9hfAuDmpiyTBvrry_pad-22" x="-121557.2" y="4713.4"/><use xlink:href="#ACAx9hfAuDmpiyTBvrry_pad-22" x="-121557.2" y="7253.4"/><use xlink:href="#ACAx9hfAuDmpiyTBvrry_pad-22" x="-121557.2" y="9793.4"/><use xlink:href="#ACAx9hfAuDmpiyTBvrry_pad-22" x="-121557.2" y="12333.4"/><use xlink:href="#ACAx9hfAuDmpiyTBvrry_pad-22" x="-121557.2" y="14873.4"/><use xlink:href="#ACAx9hfAuDmpiyTBvrry_pad-22" x="-121557.2" y="17413.4"/><use xlink:href="#ACAx9hfAuDmpiyTBvrry_pad-22" x="-121557.2" y="19953.4"/><use xlink:href="#ACAx9hfAuDmpiyTBvrry_pad-22" x="-121557.2" y="22493.4"/><use xlink:href="#ACAx9hfAuDmpiyTBvrry_pad-22" x="-121557.2" y="25033.4"/><use xlink:href="#ACAx9hfAuDmpiyTBvrry_pad-22" x="-121557.2" y="27573.4"/><use xlink:href="#ACAx9hfAuDmpiyTBvrry_pad-22" x="-121557.2" y="30113.4"/><use xlink:href="#ACAx9hfAuDmpiyTBvrry_pad-22" x="-25037.2" y="30113.4"/><use xlink:href="#ACAx9hfAuDmpiyTBvrry_pad-22" x="-25037.2" y="27573.4"/><use xlink:href="#ACAx9hfAuDmpiyTBvrry_pad-22" x="-25037.2" y="25033.4"/><use xlink:href="#ACAx9hfAuDmpiyTBvrry_pad-22" x="-25037.2" y="22493.4"/><use xlink:href="#ACAx9hfAuDmpiyTBvrry_pad-22" x="-25037.2" y="19953.4"/><use xlink:href="#ACAx9hfAuDmpiyTBvrry_pad-22" x="-25037.2" y="17413.4"/><use xlink:href="#ACAx9hfAuDmpiyTBvrry_pad-22" x="-25037.2" y="14873.4"/><use xlink:href="#ACAx9hfAuDmpiyTBvrry_pad-22" x="-25037.2" y="12333.4"/><use xlink:href="#ACAx9hfAuDmpiyTBvrry_pad-22" x="-25037.2" y="9793.4"/><use xlink:href="#ACAx9hfAuDmpiyTBvrry_pad-22" x="-25037.2" y="7253.4"/><use xlink:href="#ACAx9hfAuDmpiyTBvrry_pad-22" x="-25037.2" y="4713.4"/><use xlink:href="#ACAx9hfAuDmpiyTBvrry_pad-22" x="-25037.2" y="2173.4"/><use xlink:href="#ACAx9hfAuDmpiyTBvrry_pad-22" x="-25037.2" y="-366.6"/><use xlink:href="#ACAx9hfAuDmpiyTBvrry_pad-22" x="-25037.2" y="-2906.6"/><use xlink:href="#ACAx9hfAuDmpiyTBvrry_pad-22" x="-25037.2" y="-5446.6"/><use xlink:href="#ACAx9hfAuDmpiyTBvrry_pad-22" x="-25037.2" y="-7986.6"/><use xlink:href="#ACAx9hfAuDmpiyTBvrry_pad-22" x="-25037.2" y="-10526.6"/><use xlink:href="#ACAx9hfAuDmpiyTBvrry_pad-22" x="-25037.2" y="-13066.6"/><use xlink:href="#ACAx9hfAuDmpiyTBvrry_pad-22" x="-25037.2" y="-15606.6"/><use xlink:href="#ACAx9hfAuDmpiyTBvrry_pad-22" x="-25037.2" y="-18146.6"/><use xlink:href="#ACAx9hfAuDmpiyTBvrry_pad-23" x="90876.4" y="25614.5"/><use xlink:href="#ACAx9hfAuDmpiyTBvrry_pad-23" x="88336.4" y="25614.5"/><use xlink:href="#ACAx9hfAuDmpiyTBvrry_pad-23" x="78176.4" y="25614.5"/><use xlink:href="#ACAx9hfAuDmpiyTBvrry_pad-23" x="75636.4" y="25614.5"/><use xlink:href="#ACAx9hfAuDmpiyTBvrry_pad-23" x="73096.4" y="25614.5"/><use xlink:href="#ACAx9hfAuDmpiyTBvrry_pad-23" x="60396.4" y="-9945.5"/><use xlink:href="#ACAx9hfAuDmpiyTBvrry_pad-23" x="62936.4" y="-9945.5"/><use xlink:href="#ACAx9hfAuDmpiyTBvrry_pad-23" x="65476.4" y="-9945.5"/><use xlink:href="#ACAx9hfAuDmpiyTBvrry_pad-23" x="85796.4" y="-9945.5"/><use xlink:href="#ACAx9hfAuDmpiyTBvrry_pad-23" x="88336.4" y="-9945.5"/><use xlink:href="#ACAx9hfAuDmpiyTBvrry_pad-23" x="90876.4" y="-9945.5"/><use xlink:href="#ACAx9hfAuDmpiyTBvrry_pad-23" x="40076.4" y="-9945.5"/><use xlink:href="#ACAx9hfAuDmpiyTBvrry_pad-23" x="37536.4" y="-9945.5"/><use xlink:href="#ACAx9hfAuDmpiyTBvrry_pad-23" x="37536.4" y="25614.5"/><use xlink:href="#ACAx9hfAuDmpiyTBvrry_pad-23" x="40076.4" y="25614.5"/><use xlink:href="#ACAx9hfAuDmpiyTBvrry_pad-23" x="42616.4" y="25614.5"/><use xlink:href="#ACAx9hfAuDmpiyTBvrry_pad-23" x="45156.4" y="25614.5"/><use xlink:href="#ACAx9hfAuDmpiyTBvrry_pad-23" x="52776.4" y="25614.5"/><use xlink:href="#ACAx9hfAuDmpiyTBvrry_pad-24" x="94341.8" y="19226.4"/><use xlink:href="#ACAx9hfAuDmpiyTBvrry_pad-24" x="92541.8" y="19226.4"/><use xlink:href="#ACAx9hfAuDmpiyTBvrry_pad-25" x="92716.8" y="21026.4"/><use xlink:href="#ACAx9hfAuDmpiyTBvrry_pad-25" x="94166.8" y="17426.4"/><use xlink:href="#ACAx9hfAuDmpiyTBvrry_pad-25" x="94166.8" y="21026.4"/><use xlink:href="#ACAx9hfAuDmpiyTBvrry_pad-25" x="92716.8" y="17426.4"/><use xlink:href="#ACAx9hfAuDmpiyTBvrry_pad-24" x="83176.8" y="26894.4"/><use xlink:href="#ACAx9hfAuDmpiyTBvrry_pad-24" x="83176.8" y="25094.4"/><use xlink:href="#ACAx9hfAuDmpiyTBvrry_pad-26" x="81376.8" y="25269.4"/><use xlink:href="#ACAx9hfAuDmpiyTBvrry_pad-26" x="84976.8" y="26719.4"/><use xlink:href="#ACAx9hfAuDmpiyTBvrry_pad-26" x="81376.8" y="26719.4"/><use xlink:href="#ACAx9hfAuDmpiyTBvrry_pad-26" x="84976.8" y="25269.4"/><use xlink:href="#ACAx9hfAuDmpiyTBvrry_pad-24" x="45054.8" y="-11772.6"/><use xlink:href="#ACAx9hfAuDmpiyTBvrry_pad-24" x="45054.8" y="-9972.6"/><use xlink:href="#ACAx9hfAuDmpiyTBvrry_pad-27" x="46854.8" y="-10147.6"/><use xlink:href="#ACAx9hfAuDmpiyTBvrry_pad-27" x="43254.8" y="-11597.6"/><use xlink:href="#ACAx9hfAuDmpiyTBvrry_pad-27" x="46854.8" y="-11597.6"/><use xlink:href="#ACAx9hfAuDmpiyTBvrry_pad-27" x="43254.8" y="-10147.6"/><use xlink:href="#ACAx9hfAuDmpiyTBvrry_pad-24" x="80995.8" y="-11772.6"/><use xlink:href="#ACAx9hfAuDmpiyTBvrry_pad-24" x="80995.8" y="-9972.6"/><use xlink:href="#ACAx9hfAuDmpiyTBvrry_pad-27" x="82795.8" y="-10147.6"/><use xlink:href="#ACAx9hfAuDmpiyTBvrry_pad-27" x="79195.8" y="-11597.6"/><use xlink:href="#ACAx9hfAuDmpiyTBvrry_pad-27" x="82795.8" y="-11597.6"/><use xlink:href="#ACAx9hfAuDmpiyTBvrry_pad-27" x="79195.8" y="-10147.6"/><use xlink:href="#ACAx9hfAuDmpiyTBvrry_pad-24" x="54579.8" y="-11772.6"/><use xlink:href="#ACAx9hfAuDmpiyTBvrry_pad-24" x="54579.8" y="-9972.6"/><use xlink:href="#ACAx9hfAuDmpiyTBvrry_pad-27" x="56379.8" y="-10147.6"/><use xlink:href="#ACAx9hfAuDmpiyTBvrry_pad-27" x="52779.8" y="-11597.6"/><use xlink:href="#ACAx9hfAuDmpiyTBvrry_pad-27" x="56379.8" y="-11597.6"/><use xlink:href="#ACAx9hfAuDmpiyTBvrry_pad-27" x="52779.8" y="-10147.6"/></g></svg>