<svg version="1.1" xmlns="http://www.w3.org/2000/svg" xmlns:xlink="http://www.w3.org/1999/xlink" stroke-linecap="round" stroke-linejoin="round" stroke-width="0" fill-rule="evenodd" width="9.049700000000001in" height="1.9394in" viewBox="-4805.4 -734.1 9049.7 1939.4" id="ner9jRfZHg3raopAdG_k"><defs><circle cx="0" cy="0" r="7.85" id="ner9jRfZHg3raopAdG_k_pad-1"/><circle cx="0" cy="0" r="17.5" id="ner9jRfZHg3raopAdG_k_pad-2"/><circle cx="0" cy="0" r="17.7" id="ner9jRfZHg3raopAdG_k_pad-3"/><circle cx="0" cy="0" r="19.7" id="ner9jRfZHg3raopAdG_k_pad-4"/></defs><g transform="translate(0,471.20000000000005) scale(1,-1)" fill="currentColor" stroke="currentColor"><use xlink:href="#ner9jRfZHg3raopAdG_k_pad-1" x="1478.8" y="829.4"/><use xlink:href="#ner9jRfZHg3raopAdG_k_pad-1" x="1493.8" y="666.9"/><use xlink:href="#ner9jRfZHg3raopAdG_k_pad-1" x="1493.8" y="-208.1"/><use xlink:href="#ner9jRfZHg3raopAdG_k_pad-1" x="1495.8" y="-78.2"/><use xlink:href="#ner9jRfZHg3raopAdG_k_pad-1" x="1577.8" y="912.9"/><use xlink:href="#ner9jRfZHg3raopAdG_k_pad-1" x="1578.8" y="-288.1"/><use xlink:href="#ner9jRfZHg3raopAdG_k_pad-1" x="1621.6" y="376.9"/><use xlink:href="#ner9jRfZHg3raopAdG_k_pad-1" x="1643.8" y="-288.1"/><use xlink:href="#ner9jRfZHg3raopAdG_k_pad-1" x="1643.8" y="-438.1"/><use xlink:href="#ner9jRfZHg3raopAdG_k_pad-1" x="1677.8" y="910.4"/><use xlink:href="#ner9jRfZHg3raopAdG_k_pad-1" x="1702.9" y="-399.5"/><use xlink:href="#ner9jRfZHg3raopAdG_k_pad-1" x="1718.8" y="376.9"/><use xlink:href="#ner9jRfZHg3raopAdG_k_pad-1" x="1721" y="-103.1"/><use xlink:href="#ner9jRfZHg3raopAdG_k_pad-1" x="1723.8" y="596.9"/><use xlink:href="#ner9jRfZHg3raopAdG_k_pad-1" x="1723.8" y="246.9"/><use xlink:href="#ner9jRfZHg3raopAdG_k_pad-1" x="1777.8" y="910.4"/><use xlink:href="#ner9jRfZHg3raopAdG_k_pad-1" x="1844.7" y="-288.1"/><use xlink:href="#ner9jRfZHg3raopAdG_k_pad-1" x="1844.7" y="-456.6"/><use xlink:href="#ner9jRfZHg3raopAdG_k_pad-1" x="1866.6" y="726.9"/><use xlink:href="#ner9jRfZHg3raopAdG_k_pad-1" x="1866.6" y="31.9"/><use xlink:href="#ner9jRfZHg3raopAdG_k_pad-1" x="1903.8" y="-438.2"/><use xlink:href="#ner9jRfZHg3raopAdG_k_pad-1" x="1966" y="376.9"/><use xlink:href="#ner9jRfZHg3raopAdG_k_pad-1" x="1966" y="246.9"/><use xlink:href="#ner9jRfZHg3raopAdG_k_pad-1" x="1998.8" y="-288.1"/><use xlink:href="#ner9jRfZHg3raopAdG_k_pad-1" x="2053.8" y="-73.1"/><use xlink:href="#ner9jRfZHg3raopAdG_k_pad-1" x="2077.9" y="-399.5"/><use xlink:href="#ner9jRfZHg3raopAdG_k_pad-1" x="2083.8" y="666.9"/><use xlink:href="#ner9jRfZHg3raopAdG_k_pad-1" x="2083.8" y="-48.1"/><use xlink:href="#ner9jRfZHg3raopAdG_k_pad-1" x="2083.8" y="-158.1"/><use xlink:href="#ner9jRfZHg3raopAdG_k_pad-1" x="2083.8" y="-213.1"/><use xlink:href="#ner9jRfZHg3raopAdG_k_pad-1" x="2088.8" y="841.9"/><use xlink:href="#ner9jRfZHg3raopAdG_k_pad-1" x="2108.8" y="251.9"/><use xlink:href="#ner9jRfZHg3raopAdG_k_pad-1" x="2219.7" y="-289.9"/><use xlink:href="#ner9jRfZHg3raopAdG_k_pad-1" x="2219.7" y="-456.6"/><use xlink:href="#ner9jRfZHg3raopAdG_k_pad-1" x="2283.8" y="-458.1"/><use xlink:href="#ner9jRfZHg3raopAdG_k_pad-1" x="2323.8" y="751.9"/><use xlink:href="#ner9jRfZHg3raopAdG_k_pad-1" x="2323.8" y="571.9"/><use xlink:href="#ner9jRfZHg3raopAdG_k_pad-1" x="2323.8" y="51.9"/><use xlink:href="#ner9jRfZHg3raopAdG_k_pad-1" x="2323.8" y="-118.1"/><use xlink:href="#ner9jRfZHg3raopAdG_k_pad-1" x="2378.8" y="-63.1"/><use xlink:href="#ner9jRfZHg3raopAdG_k_pad-1" x="2378.8" y="-288.1"/><use xlink:href="#ner9jRfZHg3raopAdG_k_pad-1" x="2471" y="781.9"/><use xlink:href="#ner9jRfZHg3raopAdG_k_pad-1" x="2471" y="636.9"/><use xlink:href="#ner9jRfZHg3raopAdG_k_pad-1" x="2471" y="-163.1"/><use xlink:href="#ner9jRfZHg3raopAdG_k_pad-1" x="2473.8" y="246.9"/><use xlink:href="#ner9jRfZHg3raopAdG_k_pad-1" x="2478.8" y="-288.1"/><use xlink:href="#ner9jRfZHg3raopAdG_k_pad-1" x="2577.8" y="-288.1"/><use xlink:href="#ner9jRfZHg3raopAdG_k_pad-1" x="2616.6" y="-28.1"/><use xlink:href="#ner9jRfZHg3raopAdG_k_pad-1" x="2618.8" y="766.9"/><use xlink:href="#ner9jRfZHg3raopAdG_k_pad-1" x="2618.8" y="246.9"/><use xlink:href="#ner9jRfZHg3raopAdG_k_pad-1" x="2618.8" y="-143.1"/><use xlink:href="#ner9jRfZHg3raopAdG_k_pad-1" x="2693.8" y="711.9"/><use xlink:href="#ner9jRfZHg3raopAdG_k_pad-1" x="2718.8" y="776.9"/><use xlink:href="#ner9jRfZHg3raopAdG_k_pad-1" x="2718.8" y="371.9"/><use xlink:href="#ner9jRfZHg3raopAdG_k_pad-1" x="2723.8" y="-113.1"/><use xlink:href="#ner9jRfZHg3raopAdG_k_pad-1" x="2723.8" y="-163.1"/><use xlink:href="#ner9jRfZHg3raopAdG_k_pad-1" x="2868.8" y="246.9"/><use xlink:href="#ner9jRfZHg3raopAdG_k_pad-1" x="2868.8" y="-28.1"/><use xlink:href="#ner9jRfZHg3raopAdG_k_pad-1" x="2877.8" y="911.7"/><use xlink:href="#ner9jRfZHg3raopAdG_k_pad-1" x="2968.8" y="656.9"/><use xlink:href="#ner9jRfZHg3raopAdG_k_pad-1" x="2971" y="376.9"/><use xlink:href="#ner9jRfZHg3raopAdG_k_pad-1" x="2973.8" y="-23.1"/><use xlink:href="#ner9jRfZHg3raopAdG_k_pad-1" x="2977.8" y="913.1"/><use xlink:href="#ner9jRfZHg3raopAdG_k_pad-1" x="3033.8" y="786.9"/><use xlink:href="#ner9jRfZHg3raopAdG_k_pad-1" x="3038.8" y="656.9"/><use xlink:href="#ner9jRfZHg3raopAdG_k_pad-1" x="3053.8" y="-288.1"/><use xlink:href="#ner9jRfZHg3raopAdG_k_pad-1" x="3077.8" y="911"/><use xlink:href="#ner9jRfZHg3raopAdG_k_pad-1" x="3113.8" y="766.9"/><use xlink:href="#ner9jRfZHg3raopAdG_k_pad-1" x="3117.9" y="-399.5"/><use xlink:href="#ner9jRfZHg3raopAdG_k_pad-1" x="3118.8" y="241.9"/><use xlink:href="#ner9jRfZHg3raopAdG_k_pad-1" x="3118.8" y="-153.1"/><use xlink:href="#ner9jRfZHg3raopAdG_k_pad-1" x="3193.8" y="-43.1"/><use xlink:href="#ner9jRfZHg3raopAdG_k_pad-1" x="3203.8" y="1051.9"/><use xlink:href="#ner9jRfZHg3raopAdG_k_pad-1" x="3203.8" y="911.9"/><use xlink:href="#ner9jRfZHg3raopAdG_k_pad-1" x="3218.8" y="-98.1"/><use xlink:href="#ner9jRfZHg3raopAdG_k_pad-1" x="3221.2" y="747.6"/><use xlink:href="#ner9jRfZHg3raopAdG_k_pad-1" x="3223.8" y="371.9"/><use xlink:href="#ner9jRfZHg3raopAdG_k_pad-1" x="3253.5" y="719"/><use xlink:href="#ner9jRfZHg3raopAdG_k_pad-1" x="3259.7" y="-288.9"/><use xlink:href="#ner9jRfZHg3raopAdG_k_pad-1" x="3259.7" y="-456.6"/><use xlink:href="#ner9jRfZHg3raopAdG_k_pad-1" x="3278.8" y="809.4"/><use xlink:href="#ner9jRfZHg3raopAdG_k_pad-1" x="3293.8" y="-73.1"/><use xlink:href="#ner9jRfZHg3raopAdG_k_pad-1" x="3293.8" y="-183.1"/><use xlink:href="#ner9jRfZHg3raopAdG_k_pad-1" x="3328.8" y="656.9"/><use xlink:href="#ner9jRfZHg3raopAdG_k_pad-1" x="3345.5" y="994.9"/><use xlink:href="#ner9jRfZHg3raopAdG_k_pad-1" x="3346.3" y="911.9"/><use xlink:href="#ner9jRfZHg3raopAdG_k_pad-1" x="3358.1" y="-462.3"/><use xlink:href="#ner9jRfZHg3raopAdG_k_pad-1" x="3366.6" y="-153.1"/><use xlink:href="#ner9jRfZHg3raopAdG_k_pad-1" x="3367.2" y="688.1"/><use xlink:href="#ner9jRfZHg3raopAdG_k_pad-1" x="3368.8" y="246.9"/><use xlink:href="#ner9jRfZHg3raopAdG_k_pad-1" x="3373.8" y="-288.1"/><use xlink:href="#ner9jRfZHg3raopAdG_k_pad-1" x="3413.8" y="911.9"/><use xlink:href="#ner9jRfZHg3raopAdG_k_pad-1" x="3476.3" y="911.9"/><use xlink:href="#ner9jRfZHg3raopAdG_k_pad-1" x="3477.8" y="-288.1"/><use xlink:href="#ner9jRfZHg3raopAdG_k_pad-1" x="3536.5" y="654.1"/><use xlink:href="#ner9jRfZHg3raopAdG_k_pad-1" x="3558.3" y="688.4"/><use xlink:href="#ner9jRfZHg3raopAdG_k_pad-1" x="3563.8" y="-113.1"/><use xlink:href="#ner9jRfZHg3raopAdG_k_pad-1" x="3578.8" y="817"/><use xlink:href="#ner9jRfZHg3raopAdG_k_pad-1" x="3578.8" y="-218.1"/><use xlink:href="#ner9jRfZHg3raopAdG_k_pad-1" x="3588.8" y="-53.1"/><use xlink:href="#ner9jRfZHg3raopAdG_k_pad-1" x="3650.2" y="-222.6"/><use xlink:href="#ner9jRfZHg3raopAdG_k_pad-1" x="3650.3" y="686.1"/><use xlink:href="#ner9jRfZHg3raopAdG_k_pad-1" x="3706.3" y="586.9"/><use xlink:href="#ner9jRfZHg3raopAdG_k_pad-1" x="3707.4" y="827.8"/><use xlink:href="#ner9jRfZHg3raopAdG_k_pad-2" x="3926.8" y="277.6"/><use xlink:href="#ner9jRfZHg3raopAdG_k_pad-2" x="3926.8" y="177.6"/><use xlink:href="#ner9jRfZHg3raopAdG_k_pad-2" x="3926.8" y="77.6"/><use xlink:href="#ner9jRfZHg3raopAdG_k_pad-2" x="4026.8" y="277.6"/><use xlink:href="#ner9jRfZHg3raopAdG_k_pad-2" x="4026.8" y="177.6"/><use xlink:href="#ner9jRfZHg3raopAdG_k_pad-2" x="4026.8" y="77.6"/><use xlink:href="#ner9jRfZHg3raopAdG_k_pad-2" x="4226.8" y="277.6"/><use xlink:href="#ner9jRfZHg3raopAdG_k_pad-2" x="4226.8" y="77.6"/><use xlink:href="#ner9jRfZHg3raopAdG_k_pad-3" x="3998.2" y="974.1"/><use xlink:href="#ner9jRfZHg3raopAdG_k_pad-3" x="3998.2" y="874.1"/><use xlink:href="#ner9jRfZHg3raopAdG_k_pad-4" x="-4785.7" y="1185.6"/><use xlink:href="#ner9jRfZHg3raopAdG_k_pad-4" x="-4785.7" y="1085.6"/><use xlink:href="#ner9jRfZHg3raopAdG_k_pad-4" x="-4785.7" y="985.6"/><use xlink:href="#ner9jRfZHg3raopAdG_k_pad-4" x="-4785.7" y="885.6"/><use xlink:href="#ner9jRfZHg3raopAdG_k_pad-4" x="-4785.7" y="785.6"/><use xlink:href="#ner9jRfZHg3raopAdG_k_pad-4" x="-4785.7" y="685.6"/><use xlink:href="#ner9jRfZHg3raopAdG_k_pad-4" x="-4785.7" y="585.6"/><use xlink:href="#ner9jRfZHg3raopAdG_k_pad-4" x="-4785.7" y="485.6"/><use xlink:href="#ner9jRfZHg3raopAdG_k_pad-4" x="-4785.7" y="385.6"/><use xlink:href="#ner9jRfZHg3raopAdG_k_pad-4" x="-4785.7" y="285.6"/><use xlink:href="#ner9jRfZHg3raopAdG_k_pad-4" x="-4785.7" y="185.6"/><use xlink:href="#ner9jRfZHg3raopAdG_k_pad-4" x="-4785.7" y="85.6"/><use xlink:href="#ner9jRfZHg3raopAdG_k_pad-4" x="-4785.7" y="-14.4"/><use xlink:href="#ner9jRfZHg3raopAdG_k_pad-4" x="-4785.7" y="-114.4"/><use xlink:href="#ner9jRfZHg3raopAdG_k_pad-4" x="-4785.7" y="-214.4"/><use xlink:href="#ner9jRfZHg3raopAdG_k_pad-4" x="-4785.7" y="-314.4"/><use xlink:href="#ner9jRfZHg3raopAdG_k_pad-4" x="-4785.7" y="-414.4"/><use xlink:href="#ner9jRfZHg3raopAdG_k_pad-4" x="-4785.7" y="-514.4"/><use xlink:href="#ner9jRfZHg3raopAdG_k_pad-4" x="-4785.7" y="-614.4"/><use xlink:href="#ner9jRfZHg3raopAdG_k_pad-4" x="-4785.7" y="-714.4"/><use xlink:href="#ner9jRfZHg3raopAdG_k_pad-4" x="-985.7" y="1185.6"/><use xlink:href="#ner9jRfZHg3raopAdG_k_pad-4" x="-985.7" y="1085.6"/><use xlink:href="#ner9jRfZHg3raopAdG_k_pad-4" x="-985.7" y="985.6"/><use xlink:href="#ner9jRfZHg3raopAdG_k_pad-4" x="-985.7" y="885.6"/><use xlink:href="#ner9jRfZHg3raopAdG_k_pad-4" x="-985.7" y="785.6"/><use xlink:href="#ner9jRfZHg3raopAdG_k_pad-4" x="-985.7" y="685.6"/><use xlink:href="#ner9jRfZHg3raopAdG_k_pad-4" x="-985.7" y="585.6"/><use xlink:href="#ner9jRfZHg3raopAdG_k_pad-4" x="-985.7" y="485.6"/><use xlink:href="#ner9jRfZHg3raopAdG_k_pad-4" x="-985.7" y="385.6"/><use xlink:href="#ner9jRfZHg3raopAdG_k_pad-4" x="-985.7" y="285.6"/><use xlink:href="#ner9jRfZHg3raopAdG_k_pad-4" x="-985.7" y="185.6"/><use xlink:href="#ner9jRfZHg3raopAdG_k_pad-4" x="-985.7" y="85.6"/><use xlink:href="#ner9jRfZHg3raopAdG_k_pad-4" x="-985.7" y="-14.4"/><use xlink:href="#ner9jRfZHg3raopAdG_k_pad-4" x="-985.7" y="-114.4"/><use xlink:href="#ner9jRfZHg3raopAdG_k_pad-4" x="-985.7" y="-214.4"/><use xlink:href="#ner9jRfZHg3raopAdG_k_pad-4" x="-985.7" y="-314.4"/><use xlink:href="#ner9jRfZHg3raopAdG_k_pad-4" x="-985.7" y="-414.4"/><use xlink:href="#ner9jRfZHg3raopAdG_k_pad-4" x="-985.7" y="-514.4"/><use xlink:href="#ner9jRfZHg3raopAdG_k_pad-4" x="-985.7" y="-614.4"/><use xlink:href="#ner9jRfZHg3raopAdG_k_pad-4" x="-985.7" y="-714.4"/><use xlink:href="#ner9jRfZHg3raopAdG_k_pad-4" x="1477.8" y="1008.4"/><use xlink:href="#ner9jRfZHg3raopAdG_k_pad-4" x="1477.8" y="-391.6"/><use xlink:href="#ner9jRfZHg3raopAdG_k_pad-4" x="1577.8" y="1008.4"/><use xlink:href="#ner9jRfZHg3raopAdG_k_pad-4" x="1577.8" y="-391.6"/><use xlink:href="#ner9jRfZHg3raopAdG_k_pad-4" x="1677.8" y="1008.4"/><use xlink:href="#ner9jRfZHg3raopAdG_k_pad-4" x="1777.8" y="1008.4"/><use xlink:href="#ner9jRfZHg3raopAdG_k_pad-4" x="2077.8" y="1008.4"/><use xlink:href="#ner9jRfZHg3raopAdG_k_pad-4" x="2377.8" y="-391.6"/><use xlink:href="#ner9jRfZHg3raopAdG_k_pad-4" x="2477.8" y="-391.6"/><use xlink:href="#ner9jRfZHg3raopAdG_k_pad-4" x="2577.8" y="-391.6"/><use xlink:href="#ner9jRfZHg3raopAdG_k_pad-4" x="2877.8" y="1008.4"/><use xlink:href="#ner9jRfZHg3raopAdG_k_pad-4" x="2977.8" y="1008.4"/><use xlink:href="#ner9jRfZHg3raopAdG_k_pad-4" x="3077.8" y="1008.4"/><use xlink:href="#ner9jRfZHg3raopAdG_k_pad-4" x="3377.8" y="-391.6"/><use xlink:href="#ner9jRfZHg3raopAdG_k_pad-4" x="3477.8" y="1008.4"/><use xlink:href="#ner9jRfZHg3raopAdG_k_pad-4" x="3477.8" y="-391.6"/><use xlink:href="#ner9jRfZHg3raopAdG_k_pad-4" x="3577.8" y="1008.4"/><use xlink:href="#ner9jRfZHg3raopAdG_k_pad-4" x="3577.8" y="-391.6"/></g></svg>